mtllib house2.mtl
o mesh_0
usemtl house2_0
v 0.4698365 0.0000000 0.3271982
v 0.4698365 0.0000000 0.3271982
v 0.4698365 0.0000000 0.3271982
v 0.4698365 0.5140001 0.3271982
v 0.4698365 0.5140001 0.3271982
v 0.4698365 0.5140001 0.3271982
v 0.4698365 0.0000000 -0.3049870
v 0.4698365 0.0000000 -0.3049870
v 0.4698365 0.0000000 -0.3049870
v 0.4698365 0.5140001 -0.3049870
v 0.4698365 0.5140001 -0.3049870
v 0.4698365 0.5140001 -0.3049870
v -0.4630527 0.0000000 -0.3049871
v -0.4630527 0.0000000 -0.3049871
v -0.4630527 0.0000000 -0.3049871
v -0.4630527 0.5140001 -0.3049871
v -0.4630527 0.5140001 -0.3049871
v -0.4630527 0.5140001 -0.3049871
v -0.4630527 0.0000000 0.1696961
v -0.4630527 0.0000000 0.1696961
v -0.4630527 0.0000000 0.1696961
v -0.4630527 0.5140001 0.1696961
v -0.4630527 0.5140001 0.1696961
v -0.4630527 0.5140001 0.1696961
v -0.1623486 0.0000000 0.1696961
v -0.1623486 0.0000000 0.1696961
v -0.1623486 0.0000000 0.1696961
v -0.1623486 0.5140001 0.1696961
v -0.1623486 0.5140001 0.1696961
v -0.1623486 0.5140001 0.1696961
v -0.1623486 0.0000000 0.3271979
v -0.1623486 0.0000000 0.3271979
v -0.1623486 0.0000000 0.3271979
v -0.1623486 0.5140001 0.3271979
v -0.1623486 0.5140001 0.3271979
v -0.1623486 0.5140001 0.3271979
v -0.1623486 0.5140001 -0.3049871
v -0.1623486 0.5140001 -0.3049871
v -0.1623486 0.0000000 -0.3049871
v -0.1623486 0.0000000 -0.3049871
v 0.4698365 0.5140001 0.1821607
v 0.4698365 0.5140001 0.1821607
v 0.4698365 0.0000000 0.1821607
v 0.4698365 0.0000000 0.1821607
vt 0.5305389 0.8885246
vt 0.9441566 0.9748867
vt 0.9616973 0.3802739
vt 0.5305389 0.7334478
vt 0.8066205 0.3802739
vt 0.8997270 0.8873248
vt 0.1594117 0.4345884
vt 0.9616973 0.5710078
vt 0.9876872 0.9748867
vt 0.0043350 0.4345884
vt 0.8066205 0.5710078
vt 0.9432577 0.8873248
vt 0.1594118 0.7160465
vt 0.8080294 0.5805694
vt 0.9876872 0.9106503
vt 0.0043350 0.7160465
vt 0.8080294 0.7356462
vt 0.9432577 0.9515612
vt 0.3326316 0.8118471
vt 0.9512440 0.5805693
vt 0.9550018 0.9106503
vt 0.3326316 0.9669240
vt 0.9105723 0.9515612
vt 0.9512441 0.7356461
vt 0.0043350 0.0522662
vt 0.4233558 0.8118471
vt 0.9550018 0.9313560
vt 0.1594118 0.0522661
vt 0.4233558 0.9669240
vt 0.9105723 0.9308553
vt 0.0043350 0.0047469
vt 0.7212728 0.8885245
vt 0.9441566 0.9313560
vt 0.1594118 0.0047469
vt 0.7212728 0.7334478
vt 0.8997270 0.9308553
vt 0.0043350 0.6253222
vt 0.9432577 0.9308553
vt 0.1594118 0.6253222
vt 0.9876872 0.9313560
vt 0.8066205 0.4240326
vt 0.9097139 0.8873248
vt 0.9541435 0.9748867
vt 0.9616973 0.4240326
f 1/1 4/4 35/35
f 1/1 35/35 32/32
f 41/41 44/44 8/8
f 41/41 8/8 11/11
f 37/37 39/39 13/13
f 37/37 13/13 16/16
f 17/17 14/14 20/20
f 17/17 20/20 24/24
f 22/22 19/19 26/26
f 22/22 26/26 29/29
f 28/28 25/25 31/31
f 28/28 31/31 34/34
f 10/10 7/7 39/39
f 10/10 39/39 37/37
f 38/38 18/18 23/23
f 38/38 23/23 30/30
f 5/5 3/3 44/44
f 5/5 44/44 41/41
f 30/30 36/36 6/6
f 30/30 6/6 42/42
f 38/38 30/30 42/42
f 38/38 42/42 12/12
f 43/43 2/2 33/33
f 43/43 33/33 27/27
f 27/27 21/21 15/15
f 27/27 15/15 40/40
f 43/43 27/27 40/40
f 43/43 40/40 9/9
o mesh_1
usemtl house2_1
v 0.0258234 0.0000000 0.3407267
v 0.0258234 0.0000000 0.3407267
v 0.0258234 0.0000000 0.3407267
v 0.2816670 0.0000000 0.3407267
v 0.2816670 0.0000000 0.3407267
v 0.2816670 0.0000000 0.3407267
v 0.0258234 0.0000000 0.3161999
v 0.0258234 0.0000000 0.3161999
v 0.0258234 0.0000000 0.3161999
v 0.2816670 0.0000000 0.3161999
v 0.2816670 0.0000000 0.3161999
v 0.2816670 0.0000000 0.3161999
v 0.0258234 0.4515231 0.3407267
v 0.0258234 0.4515231 0.3407267
v 0.0258234 0.4515231 0.3407267
v 0.2816670 0.4515231 0.3407267
v 0.2816670 0.4515231 0.3407267
v 0.2816670 0.4515231 0.3407267
v 0.0258234 0.4515231 0.3161999
v 0.0258234 0.4515231 0.3161999
v 0.0258234 0.4515231 0.3161999
v 0.2816670 0.4515231 0.3161999
v 0.2816670 0.4515231 0.3161999
v 0.2816670 0.4515231 0.3161999
v 0.0483235 0.2667473 0.3383990
v 0.0483235 0.2667473 0.3383990
v 0.0345726 0.2667473 0.3383990
v 0.0345726 0.2667473 0.3383990
v 0.0483235 0.2804995 0.3383990
v 0.0483235 0.2804995 0.3383990
v 0.0447278 0.2769024 0.3467239
v 0.0447278 0.2769024 0.3467239
v 0.0345726 0.2804995 0.3383990
v 0.0345726 0.2804995 0.3383990
v 0.0447097 0.2704224 0.3475649
v 0.0447097 0.2704224 0.3475649
v 0.0447097 0.2704224 0.3475649
v 0.0381847 0.2770168 0.3469418
v 0.0381847 0.2770168 0.3469418
v 0.0447278 0.2765534 0.3498861
v 0.0447278 0.2765534 0.3498861
v 0.0381683 0.2755448 0.3520604
v 0.0381683 0.2755448 0.3520604
v 0.0447278 0.2732352 0.3549392
v 0.0447278 0.2732352 0.3549392
v 0.0447278 0.2732352 0.3549392
v 0.0381896 0.2703406 0.3478834
v 0.0381896 0.2703406 0.3478834
v 0.0381896 0.2703406 0.3478834
v 0.0447278 0.2681563 0.3503719
v 0.0447278 0.2681563 0.3503719
v 0.0381683 0.2680478 0.3503826
v 0.0381683 0.2680478 0.3503826
v 0.0381683 0.2707287 0.3566282
v 0.0381683 0.2707287 0.3566282
v 0.0381683 0.2707287 0.3566282
v 0.0447278 0.2684342 0.3570150
v 0.0447278 0.2684342 0.3570150
v 0.0483235 0.2304006 0.3383990
v 0.0483235 0.2304006 0.3383990
v 0.0345726 0.2304006 0.3383990
v 0.0345726 0.2304006 0.3383990
v 0.0483235 0.2166484 0.3383990
v 0.0483235 0.2166484 0.3383990
v 0.0447124 0.2201492 0.3469299
v 0.0447124 0.2201492 0.3469299
v 0.0345726 0.2166484 0.3383990
v 0.0345726 0.2166484 0.3383990
v 0.0447097 0.2267255 0.3475649
v 0.0447097 0.2267255 0.3475649
v 0.0447097 0.2267255 0.3475649
v 0.0381805 0.2201481 0.3470209
v 0.0381805 0.2201481 0.3470209
v 0.0381683 0.2216031 0.3520604
v 0.0381683 0.2216031 0.3520604
v 0.0447278 0.2217224 0.3523559
v 0.0447278 0.2217224 0.3523559
v 0.0382063 0.2267808 0.3478047
v 0.0382063 0.2267808 0.3478047
v 0.0382063 0.2267808 0.3478047
v 0.0447278 0.2289915 0.3503719
v 0.0447278 0.2289915 0.3503719
v 0.0381683 0.2291001 0.3503826
v 0.0381683 0.2291001 0.3503826
v 0.0381683 0.2264192 0.3566282
v 0.0381683 0.2264192 0.3566282
v 0.0381683 0.2264192 0.3566282
v 0.0447278 0.2267340 0.3566625
v 0.0447278 0.2267340 0.3566625
v 0.0447278 0.2267340 0.3566625
vt 0.8258054 0.3697830
vt 0.9302067 0.8863056
vt 0.9382595 0.8710330
vt 0.6189219 0.3697830
vt 0.8056282 0.8785782
vt 0.9382595 0.8005549
vt 0.8056282 0.8003250
vt 0.9302067 0.8795488
vt 0.9315031 0.8710330
vt 0.8056282 0.8718218
vt 0.8056282 0.8708031
vt 0.9315031 0.8005549
vt 0.8058243 0.8863056
vt 0.8258054 0.0046668
vt 0.9392784 0.8710330
vt 0.6189219 0.0046668
vt 0.9300109 0.8785782
vt 0.9392784 0.8005549
vt 0.8058242 0.8795489
vt 0.9300106 0.8003250
vt 0.9460346 0.8710330
vt 0.9300106 0.8708031
vt 0.9300109 0.8718218
vt 0.9460346 0.8005549
vt 0.9555919 0.8667545
vt 0.9620383 0.8738302
vt 0.9620383 0.8650390
vt 0.9679961 0.8899916
vt 0.9555919 0.8579625
vt 0.9977368 0.8702585
vt 0.9610722 0.8602620
vt 0.9944686 0.8649586
vt 0.9679961 0.8987836
vt 0.9890798 0.8717877
vt 0.9557452 0.8715203
vt 0.9616092 0.8644048
vt 0.9846716 0.8859073
vt 0.9736274 0.8965578
vt 0.9903301 0.8655821
vt 0.9630882 0.8604852
vt 0.9941215 0.8630130
vt 0.9768881 0.8956166
vt 0.9897272 0.8622389
vt 0.9663094 0.8626066
vt 0.9844164 0.8875057
vt 0.9934734 0.8593085
vt 0.9555863 0.8673521
vt 0.9742277 0.8922896
vt 0.9888403 0.8858550
vt 0.9633979 0.8658535
vt 0.9846629 0.8844585
vt 0.9758191 0.8908237
vt 0.9888566 0.8843892
vt 0.9797987 0.8925375
vt 0.9801952 0.8857423
vt 0.9890798 0.8584983
vt 0.9676328 0.8656759
vt 0.9843806 0.8842329
vt 0.9555919 0.8899916
vt 0.9678510 0.8758727
vt 0.9678510 0.8670816
vt 0.9679961 0.8667545
vt 0.9555919 0.8987836
vt 0.9933854 0.8943435
vt 0.9612043 0.8965454
vt 0.9875055 0.8920353
vt 0.9679961 0.8579625
vt 0.9933854 0.8855523
vt 0.9616092 0.8923410
vt 0.9741610 0.8735638
vt 0.9846716 0.8579711
vt 0.9736776 0.8602007
vt 0.9874538 0.8878594
vt 0.9768881 0.8611308
vt 0.9841548 0.8878523
vt 0.9646627 0.8955396
vt 0.9839517 0.8920459
vt 0.9741784 0.8644410
vt 0.9742930 0.8694056
vt 0.9888295 0.8580065
vt 0.9633979 0.8908923
vt 0.9846629 0.8594198
vt 0.9758191 0.8659238
vt 0.9888566 0.8594892
vt 0.9797987 0.8642097
vt 0.9801688 0.8878506
vt 0.9801952 0.8579882
vt 0.9674081 0.8923356
vt 0.9800595 0.8920441
vt 0.9843867 0.8581583
f 47/47 53/53 56/56
f 47/47 56/56 50/50
f 45/45 48/48 60/60
f 45/45 60/60 58/58
f 59/59 62/62 68/68
f 59/59 68/68 65/65
f 51/51 64/64 66/66
f 51/51 66/66 55/55
f 46/46 57/57 63/63
f 46/46 63/63 52/52
f 49/49 54/54 67/67
f 49/49 67/67 61/61
f 83/83 85/85 76/76
f 82/82 92/92 86/86
f 87/87 90/90 85/85
f 88/88 94/94 80/80
f 86/86 92/92 98/98
f 95/95 97/97 93/93
f 71/71 70/70 79/79
f 71/71 79/79 91/91
f 99/99 102/102 89/89
f 125/125 120/120 113/113
f 129/129 127/127 122/122
f 133/133 130/130 121/121
f 128/128 126/126 124/124
f 82/82 77/77 72/72
f 82/82 72/72 92/92
f 74/74 78/78 83/83
f 74/74 83/83 76/76
f 69/69 73/73 75/75
f 69/69 75/75 80/80
f 132/132 125/125 94/94
f 132/132 94/94 101/101
f 75/75 84/84 80/80
f 83/83 87/87 85/85
f 81/81 95/95 93/93
f 84/84 88/88 80/80
f 87/87 100/100 90/90
f 98/98 92/92 96/96
f 88/88 101/101 94/94
f 126/126 128/128 97/97
f 126/126 97/97 95/95
f 96/96 127/127 129/129
f 96/96 129/129 98/98
f 131/131 134/134 102/102
f 131/131 102/102 99/99
f 114/114 104/104 105/105
f 114/114 105/105 123/123
f 122/122 106/106 111/111
f 122/122 111/111 116/116
f 117/117 112/112 108/108
f 117/117 108/108 110/110
f 109/109 107/107 103/103
f 109/109 103/103 113/113
f 117/117 110/110 121/121
f 117/117 121/121 119/119
f 113/113 120/120 109/109
f 116/116 118/118 122/122
f 124/124 126/126 115/115
f 125/125 132/132 120/120
f 118/118 129/129 122/122
f 121/121 130/130 119/119
o mesh_2
usemtl house2_2
v -0.3452200 0.9970736 0.0185550
v -0.3452200 0.9970736 0.0185550
v 0.0000000 0.9970736 0.0185550
v -0.3453984 1.0000000 0.0000000
v -0.3453984 1.0000000 0.0000000
v 0.0000000 1.0000000 0.0000000
v -0.3452200 0.9884242 0.0342320
v -0.3452200 0.9884242 0.0342320
v 0.0000000 0.9884242 0.0342320
v -0.3452187 0.9692427 0.0484453
v -0.3452187 0.9692427 0.0484453
v 0.0000000 0.9692427 0.0484453
v -0.3452200 0.9495633 0.0523598
v -0.3452200 0.9495633 0.0523598
v 0.0000000 0.9512228 0.0523598
v -0.3288218 0.9343974 0.0498146
v -0.3288218 0.9343974 0.0498146
v -0.2916973 0.9389191 0.0511862
v -0.2916973 0.9389191 0.0511862
v -0.2916973 0.9389191 0.0511862
v -0.2914380 0.9970736 0.0185550
v -0.3327009 0.9970736 0.0185550
v -0.3327726 1.0000000 0.0000000
v -0.2915097 1.0000000 0.0000000
v -0.2914380 0.9884242 0.0342320
v -0.3327009 0.9884242 0.0342320
v -0.2914380 0.9692427 0.0484453
v -0.3327009 0.9692427 0.0484453
v -0.2914380 0.9512228 0.0523598
v -0.3327009 0.9512228 0.0523598
v -0.3073825 0.9455778 0.0519673
v -0.3073825 0.9455778 0.0519673
v -0.3120694 0.9692427 0.0484453
v -0.3120694 0.9512228 0.0523598
v -0.3120694 0.9884242 0.0342320
v -0.3120694 0.9970736 0.0185550
v -0.3121412 1.0000000 0.0000000
v -0.3946282 0.7564417 0.2811651
v -0.3533654 0.7522804 0.2909513
v -0.3727331 0.7634544 0.2925598
v -0.5352814 0.5162412 0.3763633
v -0.5352814 0.5162412 0.3763633
v -0.5076104 0.5110890 0.3979369
v -0.5076104 0.5110890 0.3979369
v -0.5239129 0.5170330 0.3947516
v -0.5239129 0.5170330 0.3947516
v 0.0000000 0.9160176 0.0403733
v 0.0000000 0.9160176 0.0403733
v -0.3660274 0.7855579 0.2629123
v -0.3876393 0.7778341 0.2531945
v -0.3441674 0.7834689 0.2685645
v -0.3441674 0.7834689 0.2685645
v 0.0000000 0.7788825 0.2698107
v -0.3933644 0.7603100 0.2761073
v -0.3715205 0.7674513 0.2871988
v -0.3469721 0.7596752 0.2810854
v -0.3555624 0.7254032 0.2654126
v -0.3555624 0.7254032 0.2654126
v -0.3464043 0.7541687 0.2533041
v -0.3464043 0.7541687 0.2533041
v 0.0000000 0.7430539 0.2586527
v -0.4734725 0.5316726 0.3653183
v -0.4734725 0.5316726 0.3653183
v -0.4734725 0.5316726 0.3653183
v -0.5009748 0.5544219 0.3792463
v -0.5132679 0.5530549 0.3602816
v -0.4751366 0.5380487 0.3748320
v 0.0000000 0.7165414 0.2719887
v 0.0000000 0.5360659 0.3697901
v -0.4820529 0.5141379 0.3395287
v -0.4820529 0.5141379 0.3395287
v -0.4820529 0.5141379 0.3395287
v -0.4820529 0.5141379 0.3395287
v 0.0000000 0.5140001 0.3406482
v 0.0000000 0.5140001 0.3406482
v -0.4820529 0.5141379 0.0000000
v -0.4820529 0.5141379 0.0000000
v 0.0000000 0.5140001 0.0000000
v -0.3452188 0.9395308 0.0513718
v -0.3452188 0.9395308 0.0513718
v -0.3452188 0.9395308 0.0513718
v -0.3329603 0.9223167 0.0451030
v -0.3452188 0.9213568 0.0431490
v -0.3452188 0.9213568 0.0431490
v -0.3937976 0.7468057 0.2633082
v -0.3883872 0.7614178 0.2439213
v -0.3139353 0.9046664 0.0256521
v -0.3139353 0.9046664 0.0256521
v -0.3452188 0.9055153 0.0270920
v -0.3452188 0.9055153 0.0270920
v -0.3452188 0.9055153 0.0270920
v -0.3720559 0.7490690 0.2367212
v -0.3720559 0.7490690 0.2367212
v -0.3857332 0.7291454 0.2492088
v -0.3857332 0.7291454 0.2492088
v -0.3100553 0.8969665 0.0000000
v -0.3446902 0.8996090 0.0000000
v -0.3446902 0.8996090 0.0000000
v -0.3623892 0.7515323 0.0000000
v -0.3807841 0.7281650 0.0000000
v -0.5124336 0.5479016 0.3502871
v -0.5100750 0.5330252 0.3434901
v -0.5100750 0.5330252 0.3434901
v -0.5100750 0.5330252 0.3434901
v -0.5346089 0.5087578 0.3652679
v -0.5346089 0.5087578 0.3652679
v -0.5238477 0.4990345 0.3568039
v -0.5238477 0.4990345 0.3568039
v -0.5238477 0.4990345 0.3568039
v -0.4961125 0.4945475 0.3840401
v -0.4961125 0.4945475 0.3840401
v -0.4961125 0.4945475 0.3840401
v -0.5074976 0.4916453 0.3602633
v -0.5074976 0.4916453 0.3602633
v -0.5105115 0.5322466 0.0000000
v -0.3450658 0.9502002 0.0000000
v -0.3252903 0.7534912 0.2536301
v -0.3231897 0.7831893 0.2686405
v -0.2826653 0.9180476 0.0484910
v -0.2826653 0.9180476 0.0484910
v -0.2736743 0.9512228 0.0523598
v -0.2736743 0.9692427 0.0484453
v -0.2737416 1.0000000 0.0000000
v -0.2736743 0.9884242 0.0342320
v -0.2736743 0.9970736 0.0185550
v -0.3338901 0.7248631 0.2658134
v -0.4494865 0.5360657 0.3697899
v -0.4526708 0.5141295 0.3395970
v -0.4526708 0.5141295 0.3395970
v -0.4526708 0.5141295 0.0000000
v 0.3452200 0.9970736 0.0185550
v 0.3452200 0.9970736 0.0185550
v 0.3453984 1.0000000 0.0000000
v 0.3453984 1.0000000 0.0000000
v 0.3452200 0.9884242 0.0342320
v 0.3452200 0.9884242 0.0342320
v 0.3452187 0.9692427 0.0484453
v 0.3452187 0.9692427 0.0484453
v 0.3452200 0.9495633 0.0523598
v 0.3452200 0.9495633 0.0523598
v 0.3288218 0.9343974 0.0498146
v 0.3288218 0.9343974 0.0498146
v 0.2916973 0.9389191 0.0511862
v 0.2916973 0.9389191 0.0511862
v 0.2916973 0.9389191 0.0511862
v 0.2914380 0.9970736 0.0185550
v 0.3327009 0.9970736 0.0185550
v 0.3327726 1.0000000 0.0000000
v 0.2915097 1.0000000 0.0000000
v 0.2914380 0.9884242 0.0342320
v 0.3327009 0.9884242 0.0342320
v 0.2914380 0.9692427 0.0484453
v 0.3327009 0.9692427 0.0484453
v 0.2914380 0.9512228 0.0523598
v 0.3327009 0.9512228 0.0523598
v 0.3073825 0.9455778 0.0519673
v 0.3073825 0.9455778 0.0519673
v 0.3120694 0.9692427 0.0484453
v 0.3120694 0.9512228 0.0523598
v 0.3120694 0.9884242 0.0342320
v 0.3120694 0.9970736 0.0185550
v 0.3121412 1.0000000 0.0000000
v 0.3946282 0.7564417 0.2811651
v 0.3533654 0.7522804 0.2909513
v 0.3727331 0.7634544 0.2925598
v 0.5352814 0.5162412 0.3763633
v 0.5352814 0.5162412 0.3763633
v 0.5076104 0.5110890 0.3979369
v 0.5076104 0.5110890 0.3979369
v 0.5239129 0.5170330 0.3947516
v 0.5239129 0.5170330 0.3947516
v 0.3660274 0.7855579 0.2629123
v 0.3876393 0.7778341 0.2531945
v 0.3441674 0.7834689 0.2685645
v 0.3441674 0.7834689 0.2685645
v 0.3933644 0.7603100 0.2761073
v 0.3715205 0.7674513 0.2871988
v 0.3469721 0.7596752 0.2810854
v 0.3555624 0.7254032 0.2654126
v 0.3555624 0.7254032 0.2654126
v 0.3464043 0.7541687 0.2533041
v 0.3464043 0.7541687 0.2533041
v 0.4734725 0.5316726 0.3653183
v 0.4734725 0.5316726 0.3653183
v 0.4734725 0.5316726 0.3653183
v 0.5009748 0.5544219 0.3792463
v 0.5132679 0.5530549 0.3602816
v 0.4751366 0.5380487 0.3748320
v 0.4820529 0.5141379 0.3395287
v 0.4820529 0.5141379 0.3395287
v 0.4820529 0.5141379 0.3395287
v 0.4820529 0.5141379 0.3395287
v 0.4820529 0.5141379 0.0000000
v 0.4820529 0.5141379 0.0000000
v 0.3452188 0.9395308 0.0513718
v 0.3452188 0.9395308 0.0513718
v 0.3452188 0.9395308 0.0513718
v 0.3329603 0.9223167 0.0451030
v 0.3452188 0.9213568 0.0431490
v 0.3452188 0.9213568 0.0431490
v 0.3937976 0.7468057 0.2633082
v 0.3883872 0.7614178 0.2439213
v 0.3139353 0.9046664 0.0256521
v 0.3139353 0.9046664 0.0256521
v 0.3452188 0.9055153 0.0270920
v 0.3452188 0.9055153 0.0270920
v 0.3452188 0.9055153 0.0270920
v 0.3720559 0.7490690 0.2367212
v 0.3720559 0.7490690 0.2367212
v 0.3857332 0.7291454 0.2492088
v 0.3857332 0.7291454 0.2492088
v 0.3100553 0.8969665 0.0000000
v 0.3446902 0.8996090 0.0000000
v 0.3446902 0.8996090 0.0000000
v 0.3623892 0.7515323 0.0000000
v 0.3807841 0.7281650 0.0000000
v 0.5124336 0.5479016 0.3502871
v 0.5100750 0.5330252 0.3434901
v 0.5100750 0.5330252 0.3434901
v 0.5100750 0.5330252 0.3434901
v 0.5346089 0.5087578 0.3652679
v 0.5346089 0.5087578 0.3652679
v 0.5238477 0.4990345 0.3568039
v 0.5238477 0.4990345 0.3568039
v 0.5238477 0.4990345 0.3568039
v 0.4961125 0.4945475 0.3840401
v 0.4961125 0.4945475 0.3840401
v 0.4961125 0.4945475 0.3840401
v 0.5074976 0.4916453 0.3602633
v 0.5074976 0.4916453 0.3602633
v 0.5105115 0.5322466 0.0000000
v 0.3450658 0.9502002 0.0000000
v 0.3252903 0.7534912 0.2536301
v 0.3231897 0.7831893 0.2686405
v 0.2826653 0.9180476 0.0484910
v 0.2826653 0.9180476 0.0484910
v 0.2736743 0.9512228 0.0523598
v 0.2736743 0.9692427 0.0484453
v 0.2737416 1.0000000 0.0000000
v 0.2736743 0.9884242 0.0342320
v 0.2736743 0.9970736 0.0185550
v 0.3338901 0.7248631 0.2658134
v 0.4494865 0.5360657 0.3697899
v 0.4526708 0.5141295 0.3395970
v 0.4526708 0.5141295 0.3395970
v 0.4526708 0.5141295 0.0000000
v -0.3452200 0.9970736 -0.0185550
v -0.3452200 0.9970736 -0.0185550
v 0.0000000 0.9970736 -0.0185550
v -0.3452200 0.9884242 -0.0342320
v -0.3452200 0.9884242 -0.0342320
v 0.0000000 0.9884242 -0.0342320
v -0.3452187 0.9692427 -0.0484453
v -0.3452187 0.9692427 -0.0484453
v 0.0000000 0.9692427 -0.0484453
v -0.3452200 0.9495633 -0.0523598
v -0.3452200 0.9495633 -0.0523598
v 0.0000000 0.9512228 -0.0523598
v -0.3288218 0.9343974 -0.0498146
v -0.3288218 0.9343974 -0.0498146
v -0.2916973 0.9389191 -0.0511862
v -0.2916973 0.9389191 -0.0511862
v -0.2916973 0.9389191 -0.0511862
v -0.2914380 0.9970736 -0.0185550
v -0.3327009 0.9970736 -0.0185550
v -0.2914380 0.9884242 -0.0342320
v -0.3327009 0.9884242 -0.0342320
v -0.2914380 0.9692427 -0.0484453
v -0.3327009 0.9692427 -0.0484453
v -0.2914380 0.9512228 -0.0523598
v -0.3327009 0.9512228 -0.0523598
v -0.3073825 0.9455778 -0.0519673
v -0.3073825 0.9455778 -0.0519673
v -0.3120694 0.9692427 -0.0484453
v -0.3120694 0.9512228 -0.0523598
v -0.3120694 0.9884242 -0.0342320
v -0.3120694 0.9970736 -0.0185550
v -0.3946282 0.7564417 -0.2811651
v -0.3533654 0.7522804 -0.2909513
v -0.3727331 0.7634544 -0.2925598
v -0.5352814 0.5162412 -0.3763633
v -0.5352814 0.5162412 -0.3763633
v -0.5076104 0.5110890 -0.3979369
v -0.5076104 0.5110890 -0.3979369
v -0.5239129 0.5170330 -0.3947516
v -0.5239129 0.5170330 -0.3947516
v 0.0000000 0.9160176 -0.0403733
v 0.0000000 0.9160176 -0.0403733
v -0.3660274 0.7855579 -0.2629123
v -0.3876393 0.7778341 -0.2531945
v -0.3441674 0.7834689 -0.2685645
v -0.3441674 0.7834689 -0.2685645
v 0.0000000 0.7788825 -0.2698107
v -0.3933644 0.7603100 -0.2761073
v -0.3715205 0.7674513 -0.2871988
v -0.3469721 0.7596752 -0.2810854
v -0.3555624 0.7254032 -0.2654126
v -0.3555624 0.7254032 -0.2654126
v -0.3464043 0.7541687 -0.2533041
v -0.3464043 0.7541687 -0.2533041
v 0.0000000 0.7430539 -0.2586527
v -0.4734725 0.5316726 -0.3653183
v -0.4734725 0.5316726 -0.3653183
v -0.4734725 0.5316726 -0.3653183
v -0.5009748 0.5544219 -0.3792463
v -0.5132679 0.5530549 -0.3602816
v -0.4751366 0.5380487 -0.3748320
v 0.0000000 0.7165414 -0.2719887
v 0.0000000 0.5360659 -0.3697901
v -0.4820529 0.5141379 -0.3395287
v -0.4820529 0.5141379 -0.3395287
v -0.4820529 0.5141379 -0.3395287
v -0.4820529 0.5141379 -0.3395287
v 0.0000000 0.5140001 -0.3406482
v 0.0000000 0.5140001 -0.3406482
v -0.3452188 0.9395308 -0.0513718
v -0.3452188 0.9395308 -0.0513718
v -0.3452188 0.9395308 -0.0513718
v -0.3329603 0.9223167 -0.0451030
v -0.3452188 0.9213568 -0.0431490
v -0.3452188 0.9213568 -0.0431490
v -0.3937976 0.7468057 -0.2633082
v -0.3883872 0.7614178 -0.2439213
v -0.3139353 0.9046664 -0.0256521
v -0.3139353 0.9046664 -0.0256521
v -0.3452188 0.9055153 -0.0270920
v -0.3452188 0.9055153 -0.0270920
v -0.3452188 0.9055153 -0.0270920
v -0.3720559 0.7490690 -0.2367212
v -0.3720559 0.7490690 -0.2367212
v -0.3857332 0.7291454 -0.2492088
v -0.3857332 0.7291454 -0.2492088
v -0.5124336 0.5479016 -0.3502871
v -0.5100750 0.5330252 -0.3434901
v -0.5100750 0.5330252 -0.3434901
v -0.5100750 0.5330252 -0.3434901
v -0.5346089 0.5087578 -0.3652679
v -0.5346089 0.5087578 -0.3652679
v -0.5238477 0.4990345 -0.3568039
v -0.5238477 0.4990345 -0.3568039
v -0.5238477 0.4990345 -0.3568039
v -0.4961125 0.4945475 -0.3840401
v -0.4961125 0.4945475 -0.3840401
v -0.4961125 0.4945475 -0.3840401
v -0.5074976 0.4916453 -0.3602633
v -0.5074976 0.4916453 -0.3602633
v -0.3252903 0.7534912 -0.2536301
v -0.3231897 0.7831893 -0.2686405
v -0.2826653 0.9180476 -0.0484910
v -0.2826653 0.9180476 -0.0484910
v -0.2736743 0.9512228 -0.0523598
v -0.2736743 0.9692427 -0.0484453
v -0.2736743 0.9884242 -0.0342320
v -0.2736743 0.9970736 -0.0185550
v -0.3338901 0.7248631 -0.2658134
v -0.4494865 0.5360657 -0.3697899
v -0.4526708 0.5141295 -0.3395970
v -0.4526708 0.5141295 -0.3395970
v 0.3452200 0.9970736 -0.0185550
v 0.3452200 0.9970736 -0.0185550
v 0.3452200 0.9884242 -0.0342320
v 0.3452200 0.9884242 -0.0342320
v 0.3452187 0.9692427 -0.0484453
v 0.3452187 0.9692427 -0.0484453
v 0.3452200 0.9495633 -0.0523598
v 0.3452200 0.9495633 -0.0523598
v 0.3288218 0.9343974 -0.0498146
v 0.3288218 0.9343974 -0.0498146
v 0.2916973 0.9389191 -0.0511862
v 0.2916973 0.9389191 -0.0511862
v 0.2916973 0.9389191 -0.0511862
v 0.2914380 0.9970736 -0.0185550
v 0.3327009 0.9970736 -0.0185550
v 0.2914380 0.9884242 -0.0342320
v 0.3327009 0.9884242 -0.0342320
v 0.2914380 0.9692427 -0.0484453
v 0.3327009 0.9692427 -0.0484453
v 0.2914380 0.9512228 -0.0523598
v 0.3327009 0.9512228 -0.0523598
v 0.3073825 0.9455778 -0.0519673
v 0.3073825 0.9455778 -0.0519673
v 0.3120694 0.9692427 -0.0484453
v 0.3120694 0.9512228 -0.0523598
v 0.3120694 0.9884242 -0.0342320
v 0.3120694 0.9970736 -0.0185550
v 0.3946282 0.7564417 -0.2811651
v 0.3533654 0.7522804 -0.2909513
v 0.3727331 0.7634544 -0.2925598
v 0.5352814 0.5162412 -0.3763633
v 0.5352814 0.5162412 -0.3763633
v 0.5076104 0.5110890 -0.3979369
v 0.5076104 0.5110890 -0.3979369
v 0.5239129 0.5170330 -0.3947516
v 0.5239129 0.5170330 -0.3947516
v 0.3660274 0.7855579 -0.2629123
v 0.3876393 0.7778341 -0.2531945
v 0.3441674 0.7834689 -0.2685645
v 0.3441674 0.7834689 -0.2685645
v 0.3933644 0.7603100 -0.2761073
v 0.3715205 0.7674513 -0.2871988
v 0.3469721 0.7596752 -0.2810854
v 0.3555624 0.7254032 -0.2654126
v 0.3555624 0.7254032 -0.2654126
v 0.3464043 0.7541687 -0.2533041
v 0.3464043 0.7541687 -0.2533041
v 0.4734725 0.5316726 -0.3653183
v 0.4734725 0.5316726 -0.3653183
v 0.4734725 0.5316726 -0.3653183
v 0.5009748 0.5544219 -0.3792463
v 0.5132679 0.5530549 -0.3602816
v 0.4751366 0.5380487 -0.3748320
v 0.4820529 0.5141379 -0.3395287
v 0.4820529 0.5141379 -0.3395287
v 0.4820529 0.5141379 -0.3395287
v 0.4820529 0.5141379 -0.3395287
v 0.3452188 0.9395308 -0.0513718
v 0.3452188 0.9395308 -0.0513718
v 0.3452188 0.9395308 -0.0513718
v 0.3329603 0.9223167 -0.0451030
v 0.3452188 0.9213568 -0.0431490
v 0.3452188 0.9213568 -0.0431490
v 0.3937976 0.7468057 -0.2633082
v 0.3883872 0.7614178 -0.2439213
v 0.3139353 0.9046664 -0.0256521
v 0.3139353 0.9046664 -0.0256521
v 0.3452188 0.9055153 -0.0270920
v 0.3452188 0.9055153 -0.0270920
v 0.3452188 0.9055153 -0.0270920
v 0.3720559 0.7490690 -0.2367212
v 0.3720559 0.7490690 -0.2367212
v 0.3857332 0.7291454 -0.2492088
v 0.3857332 0.7291454 -0.2492088
v 0.5124336 0.5479016 -0.3502871
v 0.5100750 0.5330252 -0.3434901
v 0.5100750 0.5330252 -0.3434901
v 0.5100750 0.5330252 -0.3434901
v 0.5346089 0.5087578 -0.3652679
v 0.5346089 0.5087578 -0.3652679
v 0.5238477 0.4990345 -0.3568039
v 0.5238477 0.4990345 -0.3568039
v 0.5238477 0.4990345 -0.3568039
v 0.4961125 0.4945475 -0.3840401
v 0.4961125 0.4945475 -0.3840401
v 0.4961125 0.4945475 -0.3840401
v 0.5074976 0.4916453 -0.3602633
v 0.5074976 0.4916453 -0.3602633
v 0.3252903 0.7534912 -0.2536301
v 0.3231897 0.7831893 -0.2686405
v 0.2826653 0.9180476 -0.0484910
v 0.2826653 0.9180476 -0.0484910
v 0.2736743 0.9512228 -0.0523598
v 0.2736743 0.9692427 -0.0484453
v 0.2736743 0.9884242 -0.0342320
v 0.2736743 0.9970736 -0.0185550
v 0.3338901 0.7248631 -0.2658134
v 0.4494865 0.5360657 -0.3697899
v 0.4526708 0.5141295 -0.3395970
v 0.4526708 0.5141295 -0.3395970
vt 0.4196841 0.0170234
vt 0.5199454 0.7531345
vt 0.3448980 0.7529014
vt 0.4229757 0.0259615
vt 0.5200483 0.7436146
vt 0.3449111 0.7433766
vt 0.4138318 0.0100830
vt 0.5199349 0.7622088
vt 0.3448857 0.7619807
vt 0.4028865 0.0049125
vt 0.5199224 0.7743075
vt 0.3448693 0.7740864
vt 0.3927127 0.0049125
vt 0.5199171 0.7844755
vt 0.3448566 0.7834371
vt 0.3131556 0.9267786
vt 0.5116039 0.7922700
vt 0.3109849 0.0918563
vt 0.3207091 0.9057161
vt 0.4927813 0.7898977
vt 0.4926831 0.7531011
vt 0.5136004 0.7531266
vt 0.5136489 0.7436059
vt 0.4927318 0.7435774
vt 0.4926724 0.7621792
vt 0.5135900 0.7622018
vt 0.4926601 0.7742838
vt 0.5135782 0.7743018
vt 0.4926530 0.7836329
vt 0.5135713 0.7836473
vt 0.3196825 0.9150838
vt 0.5007328 0.7865080
vt 0.5031197 0.7742931
vt 0.5031126 0.7836425
vt 0.5031320 0.7621908
vt 0.5031425 0.7531139
vt 0.5031912 0.7435919
vt 0.1511622 0.9085028
vt 0.1520291 0.8870996
vt 0.1529672 0.8970091
vt 0.0117254 0.9367375
vt 0.2182112 0.4725326
vt 0.0088384 0.9178143
vt 0.2113747 0.4557941
vt 0.0095899 0.9264135
vt 0.2182112 0.4615635
vt 0.3140647 0.2460680
vt 0.3448308 0.8022855
vt 0.1708605 0.8989923
vt 0.1682768 0.9117082
vt 0.1712452 0.8869350
vt 0.4480842 0.0702533
vt 0.4507256 0.2460680
vt 0.1541334 0.9090862
vt 0.1561375 0.8972307
vt 0.1579401 0.8849278
vt 0.1457648 0.8709698
vt 0.4809896 0.0647140
vt 0.1624799 0.8719773
vt 0.4649418 0.0690721
vt 0.4699173 0.2460680
vt 0.0280817 0.9008832
vt 0.4651689 0.4340054
vt 0.5908080 0.0104408
vt 0.0319957 0.9218351
vt 0.0337299 0.9327563
vt 0.0296318 0.9063583
vt 0.4850786 0.2460680
vt 0.5900975 0.2460680
vt 0.4487682 0.4340054
vt 0.6065212 0.0047540
vt 0.7968433 0.7454180
vt 0.8988284 0.8873885
vt 0.6089007 0.2460680
vt 0.8523642 0.8872806
vt 0.7970589 0.5732606
vt 0.8988284 0.9201151
vt 0.8523642 0.9201151
vt 0.3206788 0.9265666
vt 0.3878211 0.0063962
vt 0.5199233 0.7895842
vt 0.3118274 0.9342186
vt 0.3188269 0.9351657
vt 0.3795966 0.0122831
vt 0.1532297 0.9180529
vt 0.1654287 0.9203718
vt 0.3096863 0.9512441
vt 0.5644860 0.5867218
vt 0.3214369 0.9451028
vt 0.3733066 0.0218351
vt 0.5488527 0.5870889
vt 0.1653800 0.9306843
vt 0.6495765 0.6933084
vt 0.1523876 0.9296061
vt 0.6618211 0.6996475
vt 0.5671089 0.5732606
vt 0.3730487 0.0358949
vt 0.5494931 0.5732606
vt 0.6458452 0.5732606
vt 0.6609191 0.5732606
vt 0.0345527 0.9381269
vt 0.0317136 0.9456469
vt 0.4317412 0.4367834
vt 0.7796949 0.7474060
vt 0.0120370 0.9432383
vt 0.2134303 0.4773606
vt 0.0136043 0.9512441
vt 0.2049609 0.4782354
vt 0.4373405 0.4557582
vt 0.0053946 0.9062834
vt 0.1994357 0.4591790
vt 0.4594875 0.4573289
vt 0.1976756 0.4725109
vt 0.4464463 0.4540472
vt 0.7799582 0.5732606
vt 0.3982091 0.0308890
vt 0.4651639 0.0798420
vt 0.4482211 0.0809532
vt 0.3167246 0.1020182
vt 0.4882068 0.8005613
vt 0.4836422 0.7836291
vt 0.4836524 0.7742758
vt 0.4837231 0.7435652
vt 0.4836654 0.7621691
vt 0.4836765 0.7530900
vt 0.4810223 0.0757198
vt 0.5891529 0.0227679
vt 0.6076888 0.0198892
vt 0.8959963 0.8873820
vt 0.8959963 0.9201151
vt 0.1698507 0.7526584
vt 0.3103292 0.0334593
vt 0.1697737 0.7431383
vt 0.3107091 0.0429767
vt 0.1698364 0.7617321
vt 0.3130794 0.0248075
vt 0.1698162 0.7738312
vt 0.3212120 0.0158411
vt 0.1697939 0.7839993
vt 0.3306111 0.0119472
vt 0.1780859 0.7918160
vt 0.8588490 0.0136757
vt 0.1969147 0.7894951
vt 0.3109849 0.4002796
vt 0.8799115 0.0061225
vt 0.1971130 0.7526991
vt 0.1761956 0.7526679
vt 0.1761730 0.7431468
vt 0.1970902 0.7431750
vt 0.1970989 0.7617772
vt 0.1761815 0.7617427
vt 0.1970785 0.7738814
vt 0.1761603 0.7738429
vt 0.1970600 0.7832307
vt 0.1761418 0.7831880
vt 0.1889726 0.7860840
vt 0.8705436 0.0071488
vt 0.1866185 0.7738627
vt 0.1866004 0.7832118
vt 0.1866395 0.7617599
vt 0.1866536 0.7526835
vt 0.1866308 0.7431610
vt 0.8771247 0.1756696
vt 0.8985279 0.1748023
vt 0.8886185 0.1738641
vt 0.3274942 0.4677821
vt 0.8488901 0.3151060
vt 0.3107555 0.4609456
vt 0.8678135 0.3179929
vt 0.3165250 0.4677821
vt 0.8592141 0.3172418
vt 0.8866351 0.1559708
vt 0.8739192 0.1585547
vt 0.4480842 0.4218825
vt 0.8986927 0.1555862
vt 0.8765411 0.1726983
vt 0.8883969 0.1706941
vt 0.9006999 0.1688913
vt 0.4809896 0.4274219
vt 0.9146578 0.1810666
vt 0.4649418 0.4230640
vt 0.9136503 0.1643517
vt 0.4547156 0.0083852
vt 0.5908080 0.4816952
vt 0.8847442 0.2987498
vt 0.8637923 0.2948357
vt 0.8528714 0.2931013
vt 0.8792693 0.2971997
vt 0.4547156 0.0247859
vt 0.5637929 0.6740175
vt 0.6065212 0.4873819
vt 0.8059000 0.8873885
vt 0.3916355 0.6742334
vt 0.8059000 0.9201151
vt 0.1697737 0.7891079
vt 0.3356982 0.0114458
vt 0.8590610 0.0061529
vt 0.8514090 0.0150041
vt 0.3455497 0.0137363
vt 0.8504616 0.0080045
vt 0.8675748 0.1736016
vt 0.8652557 0.1614029
vt 0.4050969 0.4416602
vt 0.8343834 0.0171452
vt 0.3550167 0.0201535
vt 0.4054640 0.4260269
vt 0.8405244 0.0053948
vt 0.5116835 0.5267509
vt 0.8549432 0.1614513
vt 0.5180222 0.5389956
vt 0.8560215 0.1744439
vt 0.3916355 0.4442832
vt 0.3606365 0.0330439
vt 0.3916355 0.4266677
vt 0.3916355 0.5230197
vt 0.3916355 0.5380937
vt 0.8475005 0.2922788
vt 0.4519374 0.0418129
vt 0.5657813 0.6568692
vt 0.8399808 0.2951179
vt 0.3323221 0.4630014
vt 0.8423894 0.3147944
vt 0.3331967 0.4545316
vt 0.4329627 0.0362134
vt 0.8343834 0.3132268
vt 0.3141402 0.4490068
vt 0.4313921 0.0140667
vt 0.8793440 0.3214369
vt 0.3274723 0.4472464
vt 0.4346738 0.0271078
vt 0.3916355 0.6571329
vt 0.3354760 0.0380495
vt 0.4651639 0.4122941
vt 0.4482211 0.4111828
vt 0.2014602 0.8001713
vt 0.3167246 0.3901176
vt 0.2060708 0.7832515
vt 0.2060861 0.7738981
vt 0.2060990 0.7431876
vt 0.2061060 0.7617916
vt 0.2061197 0.7527125
vt 0.4810223 0.4164163
vt 0.5891529 0.4693681
vt 0.6076888 0.4722466
vt 0.8087322 0.8873820
vt 0.8087322 0.9201151
vt 0.4233558 0.0354788
vt 0.5199712 0.7340946
vt 0.3449241 0.7338511
vt 0.4206057 0.0441310
vt 0.5199856 0.7250205
vt 0.3449364 0.7247720
vt 0.4124732 0.0530971
vt 0.5200058 0.7129214
vt 0.3449529 0.7126666
vt 0.4030742 0.0569912
vt 0.5200284 0.7027534
vt 0.3449656 0.7033154
vt 0.5117363 0.6949366
vt 0.7691782 0.9163415
vt 0.0045745 0.4002796
vt 0.4929074 0.6972577
vt 0.7767315 0.9374042
vt 0.4927092 0.7340537
vt 0.5136263 0.7340850
vt 0.4927230 0.7249756
vt 0.5136406 0.7250100
vt 0.4927437 0.7128711
vt 0.5136617 0.7129099
vt 0.4927621 0.7035219
vt 0.5136803 0.7035646
vt 0.5008495 0.7006686
vt 0.7757048 0.9280362
vt 0.5032033 0.7128901
vt 0.5032218 0.7035408
vt 0.5031826 0.7249926
vt 0.5031684 0.7340693
vt 0.6071844 0.9346172
vt 0.6080515 0.9560204
vt 0.6089899 0.9461111
vt 0.1689291 0.4568528
vt 0.4677476 0.9063828
vt 0.1757655 0.4401141
vt 0.4648610 0.9253058
vt 0.1689291 0.4458836
vt 0.4656121 0.9167069
vt 0.0076543 0.2460680
vt 0.3449912 0.6844671
vt 0.6268830 0.9441279
vt 0.6242990 0.9314119
vt 0.1416738 0.4218828
vt 0.6272678 0.9561853
vt 0.1443153 0.2460680
vt 0.6101557 0.9340336
vt 0.6121598 0.9458897
vt 0.6139626 0.9581922
vt 0.1745793 0.4274219
vt 0.6017871 0.9721505
vt 0.1585317 0.4230640
vt 0.6185023 0.9711431
vt 0.1635070 0.2460680
vt 0.2843975 0.4816952
vt 0.3436500 0.4364225
vt 0.4841043 0.9422370
vt 0.4880183 0.9212851
vt 0.4897524 0.9103638
vt 0.4856543 0.9367619
vt 0.1786683 0.2460680
vt 0.2836871 0.2460680
vt 0.3001109 0.4873819
vt 0.3272494 0.4364225
vt 0.7968433 0.4011032
vt 0.8988284 0.9528416
vt 0.3024904 0.2460680
vt 0.8523643 0.9529496
vt 0.3979874 0.0574927
vt 0.5200483 0.6976447
vt 0.7767009 0.9165536
vt 0.7678496 0.9089017
vt 0.3881357 0.0552023
vt 0.7748493 0.9079542
vt 0.6092520 0.9250674
vt 0.6214510 0.9227483
vt 0.5644860 0.5597994
vt 0.7657086 0.8918762
vt 0.3786685 0.0487850
vt 0.5488527 0.5594324
vt 0.7774590 0.8980173
vt 0.6214025 0.9124358
vt 0.6495765 0.4532127
vt 0.6084098 0.9135138
vt 0.6618211 0.4468738
vt 0.4905749 0.9049935
vt 0.3102223 0.4336443
vt 0.4877360 0.8974733
vt 0.7796948 0.3991150
vt 0.1737098 0.4616810
vt 0.4680595 0.8998820
vt 0.1821797 0.4625555
vt 0.3158216 0.4146697
vt 0.4696269 0.8918762
vt 0.1877043 0.4434991
vt 0.3379688 0.4130991
vt 0.4614170 0.9368368
vt 0.1894648 0.4568309
vt 0.3249276 0.4163804
vt 0.1587535 0.4122941
vt 0.1418106 0.4111828
vt 0.0103141 0.3901178
vt 0.4883618 0.6865815
vt 0.4837512 0.7035012
vt 0.4837359 0.7128546
vt 0.4837162 0.7249612
vt 0.4837024 0.7340404
vt 0.1746121 0.4164162
vt 0.2827425 0.4693682
vt 0.3012784 0.4722468
vt 0.8959963 0.9528483
vt 0.1698767 0.7336182
vt 0.3140009 0.0519150
vt 0.1698871 0.7245440
vt 0.3198532 0.0588553
vt 0.1698999 0.7124454
vt 0.3307984 0.0640260
vt 0.1699050 0.7022769
vt 0.3409721 0.0640260
vt 0.1782184 0.6944826
vt 0.3131559 0.8562193
vt 0.0045745 0.0918565
vt 0.1970407 0.6968552
vt 0.3207091 0.8351567
vt 0.1971390 0.7336516
vt 0.1762216 0.7336258
vt 0.1971496 0.7245734
vt 0.1762322 0.7245508
vt 0.1971619 0.7124687
vt 0.1762438 0.7124508
vt 0.1971690 0.7031199
vt 0.1762507 0.7031050
vt 0.1890893 0.7002448
vt 0.3196827 0.8445243
vt 0.1867023 0.7124595
vt 0.1867093 0.7031103
vt 0.1866900 0.7245620
vt 0.1866796 0.7336388
vt 0.1511624 0.8379437
vt 0.1520292 0.8165403
vt 0.1529676 0.8264498
vt 0.0117253 0.8661783
vt 0.2015953 0.0185409
vt 0.0088387 0.8472549
vt 0.2084321 0.0352797
vt 0.0095899 0.8558542
vt 0.2015953 0.0295103
vt 0.1708608 0.8284332
vt 0.1682769 0.8411489
vt 0.1416737 0.0702535
vt 0.1712454 0.8163755
vt 0.1541334 0.8385271
vt 0.1561377 0.8266714
vt 0.1579401 0.8143685
vt 0.1457649 0.8004103
vt 0.1745794 0.0647142
vt 0.1585316 0.0690722
vt 0.1624802 0.8014180
vt 0.0280819 0.8303239
vt 0.1700612 0.0044654
vt 0.2843974 0.0104411
vt 0.0319960 0.8512760
vt 0.0337302 0.8621972
vt 0.0296320 0.8357992
vt 0.1700612 0.0208659
vt 0.2194781 0.6740175
vt 0.3001109 0.0047541
vt 0.8059000 0.9528416
vt 0.1698988 0.6971684
vt 0.3206787 0.8560074
vt 0.3458637 0.0625425
vt 0.3118276 0.8636593
vt 0.3188270 0.8646064
vt 0.3540883 0.0566556
vt 0.1532299 0.8474935
vt 0.1654290 0.8498126
vt 0.3096865 0.8806848
vt 0.3781742 0.4416603
vt 0.3214369 0.8745438
vt 0.3603783 0.0471035
vt 0.3778071 0.4260269
vt 0.1653803 0.8601249
vt 0.2715874 0.5267510
vt 0.1523877 0.8590470
vt 0.2652487 0.5389957
vt 0.0345526 0.8675673
vt 0.0317137 0.8750875
vt 0.1728393 0.0378929
vt 0.2174900 0.6568693
vt 0.0120372 0.8726790
vt 0.2063763 0.0137128
vt 0.0136045 0.8806849
vt 0.1918140 0.0322936
vt 0.2148457 0.0128382
vt 0.0053949 0.8357242
vt 0.1933848 0.0101467
vt 0.2203708 0.0318947
vt 0.1901029 0.0231878
vt 0.2221311 0.0185626
vt 0.1587534 0.0798421
vt 0.1418105 0.0809535
vt 0.0103142 0.1020184
vt 0.2016153 0.6861914
vt 0.2061798 0.7031235
vt 0.2061697 0.7124773
vt 0.2061566 0.7245834
vt 0.2061455 0.7336627
vt 0.1746120 0.0757197
vt 0.2827425 0.0227681
vt 0.3012783 0.0198893
vt 0.8087322 0.9528483
f 156/156 136/136 142/142
f 156/156 142/142 160/160
f 258/258 159/159 161/161
f 258/258 161/161 256/256
f 256/256 161/161 163/163
f 256/256 163/163 255/255
f 168/168 164/164 151/151
f 168/168 151/151 166/166
f 162/162 145/145 148/148
f 162/162 148/148 164/164
f 160/160 142/142 145/145
f 160/160 145/145 162/162
f 136/136 156/156 157/157
f 136/136 157/157 139/139
f 259/259 137/137 140/140
f 259/259 140/140 257/257
f 167/167 168/168 163/163
f 167/167 163/163 161/161
f 169/169 167/167 161/161
f 169/169 161/161 159/159
f 170/170 169/169 159/159
f 170/170 159/159 155/155
f 170/170 171/171 157/157
f 170/170 157/157 156/156
f 259/259 155/155 159/159
f 259/259 159/159 258/258
f 150/150 184/184 183/183
f 150/150 183/183 165/165
f 155/155 158/158 171/171
f 155/155 171/171 170/170
f 156/156 160/160 169/169
f 156/156 169/169 170/170
f 160/160 162/162 167/167
f 160/160 167/167 169/169
f 162/162 164/164 168/168
f 162/162 168/168 167/167
f 163/163 168/168 166/166
f 163/163 166/166 154/154
f 189/189 188/188 172/172
f 189/189 172/172 174/174
f 190/190 189/189 174/174
f 190/190 174/174 173/173
f 199/199 200/200 175/175
f 199/199 175/175 179/179
f 201/201 199/199 179/179
f 201/201 179/179 177/177
f 254/254 255/255 163/163
f 254/254 163/163 154/154
f 165/165 183/183 185/185
f 165/165 185/185 153/153
f 252/252 253/253 152/152
f 252/252 152/152 186/186
f 185/185 183/183 189/189
f 185/185 189/189 190/190
f 183/183 184/184 188/188
f 183/183 188/188 189/189
f 190/190 173/173 191/191
f 190/190 191/191 193/193
f 190/190 193/193 185/185
f 173/173 174/174 199/199
f 173/173 199/199 201/201
f 174/174 172/172 200/200
f 174/174 200/200 199/199
f 196/196 191/191 173/173
f 196/196 173/173 201/201
f 252/252 186/186 194/194
f 252/252 194/194 251/251
f 260/260 251/251 194/194
f 260/260 194/194 192/192
f 261/261 203/203 202/202
f 261/261 202/202 260/260
f 261/261 198/198 205/205
f 261/261 205/205 262/262
f 263/263 207/207 211/211
f 263/263 211/211 264/264
f 151/151 164/164 148/148
f 151/151 148/148 215/215
f 217/217 216/216 150/150
f 217/217 150/150 213/213
f 184/184 150/150 216/216
f 184/184 216/216 220/220
f 188/188 184/184 220/220
f 188/188 220/220 219/219
f 216/216 217/217 223/223
f 216/216 223/223 221/221
f 228/228 219/219 220/220
f 228/228 220/220 226/226
f 221/221 226/226 220/220
f 221/221 220/220 216/216
f 222/222 225/225 232/232
f 222/222 232/232 230/230
f 227/227 222/222 230/230
f 227/227 230/230 233/233
f 234/234 229/229 227/227
f 234/234 227/227 233/233
f 188/188 219/219 172/172
f 219/219 228/228 236/236
f 219/219 236/236 235/235
f 235/235 236/236 241/241
f 235/235 241/241 239/239
f 172/172 219/219 235/235
f 172/172 235/235 200/200
f 244/244 196/196 201/201
f 244/244 201/201 177/177
f 248/248 204/204 197/197
f 248/248 197/197 246/246
f 249/249 210/210 206/206
f 249/249 206/206 238/238
f 175/175 200/200 235/235
f 175/175 235/235 239/239
f 234/234 249/249 238/238
f 234/234 238/238 229/229
f 243/243 237/237 204/204
f 243/243 204/204 248/248
f 242/242 247/247 245/245
f 180/180 176/176 242/242
f 245/245 178/178 180/180
f 245/245 180/180 242/242
f 176/176 240/240 242/242
f 147/147 144/144 250/250
f 224/224 218/218 250/250
f 231/231 224/224 250/250
f 135/135 138/138 250/250
f 218/218 214/214 250/250
f 214/214 147/147 250/250
f 144/144 141/141 250/250
f 141/141 135/135 250/250
f 209/209 263/263 264/264
f 209/209 264/264 212/212
f 203/203 261/261 262/262
f 203/203 262/262 208/208
f 198/198 261/261 260/260
f 198/198 260/260 192/192
f 202/202 195/195 251/251
f 202/202 251/251 260/260
f 187/187 252/252 251/251
f 187/187 251/251 195/195
f 187/187 181/181 253/253
f 187/187 253/253 252/252
f 182/182 149/149 255/255
f 182/182 255/255 254/254
f 137/137 259/259 258/258
f 137/137 258/258 143/143
f 155/155 259/259 257/257
f 155/155 257/257 158/158
f 146/146 256/256 255/255
f 146/146 255/255 149/149
f 143/143 258/258 256/256
f 143/143 256/256 146/146
f 281/281 285/285 269/269
f 281/281 269/269 265/265
f 374/374 372/372 286/286
f 374/374 286/286 284/284
f 372/372 371/371 288/288
f 372/372 288/288 286/286
f 293/293 290/290 275/275
f 293/293 275/275 289/289
f 287/287 289/289 273/273
f 287/287 273/273 271/271
f 285/285 287/287 271/271
f 285/285 271/271 269/269
f 265/265 267/267 282/282
f 265/265 282/282 281/281
f 375/375 373/373 140/140
f 375/375 140/140 137/137
f 292/292 286/286 288/288
f 292/292 288/288 293/293
f 294/294 284/284 286/286
f 294/294 286/286 292/292
f 295/295 280/280 284/284
f 295/295 284/284 294/294
f 295/295 281/281 282/282
f 295/295 282/282 296/296
f 375/375 374/374 284/284
f 375/375 284/284 280/280
f 276/276 291/291 306/306
f 276/276 306/306 307/307
f 280/280 295/295 296/296
f 280/280 296/296 283/283
f 281/281 295/295 294/294
f 281/281 294/294 285/285
f 285/285 294/294 292/292
f 285/285 292/292 287/287
f 287/287 292/292 293/293
f 287/287 293/293 289/289
f 288/288 277/277 290/290
f 288/288 290/290 293/293
f 311/311 299/299 297/297
f 311/311 297/297 310/310
f 312/312 298/298 299/299
f 312/312 299/299 311/311
f 320/320 305/305 301/301
f 320/320 301/301 321/321
f 322/322 303/303 305/305
f 322/322 305/305 320/320
f 369/369 277/277 288/288
f 369/369 288/288 371/371
f 291/291 279/279 309/309
f 291/291 309/309 306/306
f 368/368 308/308 278/278
f 368/368 278/278 370/370
f 309/309 312/312 311/311
f 309/309 311/311 306/306
f 306/306 311/311 310/310
f 306/306 310/310 307/307
f 312/312 316/316 314/314
f 312/312 314/314 298/298
f 312/312 309/309 316/316
f 298/298 322/322 320/320
f 298/298 320/320 299/299
f 299/299 320/320 321/321
f 299/299 321/321 297/297
f 319/319 322/322 298/298
f 319/319 298/298 314/314
f 368/368 367/367 315/315
f 368/368 315/315 308/308
f 376/376 313/313 315/315
f 376/376 315/315 367/367
f 377/377 376/376 202/202
f 377/377 202/202 203/203
f 377/377 378/378 325/325
f 377/377 325/325 318/318
f 379/379 380/380 328/328
f 379/379 328/328 326/326
f 275/275 329/329 273/273
f 275/275 273/273 289/289
f 334/334 331/331 276/276
f 334/334 276/276 332/332
f 307/307 336/336 332/332
f 307/307 332/332 276/276
f 310/310 335/335 336/336
f 310/310 336/336 307/307
f 332/332 338/338 341/341
f 332/332 341/341 334/334
f 345/345 343/343 336/336
f 345/345 336/336 335/335
f 338/338 332/332 336/336
f 338/338 336/336 343/343
f 337/337 346/346 348/348
f 337/337 348/348 340/340
f 342/342 349/349 346/346
f 342/342 346/346 337/337
f 350/350 349/349 342/342
f 350/350 342/342 344/344
f 310/310 297/297 335/335
f 335/335 351/351 354/354
f 335/335 354/354 345/345
f 351/351 356/356 359/359
f 351/351 359/359 354/354
f 297/297 321/321 351/351
f 297/297 351/351 335/335
f 362/362 303/303 322/322
f 362/362 322/322 319/319
f 364/364 361/361 317/317
f 364/364 317/317 323/323
f 365/365 353/353 324/324
f 365/365 324/324 327/327
f 301/301 356/356 351/351
f 301/301 351/351 321/321
f 350/350 344/344 353/353
f 350/350 353/353 365/365
f 358/358 364/364 323/323
f 358/358 323/323 352/352
f 357/357 360/360 363/363
f 304/304 357/357 300/300
f 360/360 304/304 302/302
f 360/360 357/357 304/304
f 300/300 357/357 355/355
f 274/274 366/366 272/272
f 339/339 366/366 333/333
f 347/347 366/366 339/339
f 266/266 366/366 268/268
f 333/333 366/366 330/330
f 330/330 366/366 274/274
f 272/272 366/366 270/270
f 270/270 366/366 266/266
f 209/209 212/212 380/380
f 209/209 380/380 379/379
f 203/203 208/208 378/378
f 203/203 378/378 377/377
f 318/318 313/313 376/376
f 318/318 376/376 377/377
f 202/202 376/376 367/367
f 202/202 367/367 195/195
f 187/187 195/195 367/367
f 187/187 367/367 368/368
f 187/187 368/368 370/370
f 187/187 370/370 181/181
f 182/182 369/369 371/371
f 182/182 371/371 149/149
f 137/137 143/143 374/374
f 137/137 374/374 375/375
f 280/280 283/283 373/373
f 280/280 373/373 375/375
f 146/146 149/149 371/371
f 146/146 371/371 372/372
f 143/143 146/146 372/372
f 143/143 372/372 374/374
f 399/399 401/401 385/385
f 399/399 385/385 382/382
f 487/487 486/486 402/402
f 487/487 402/402 400/400
f 486/486 485/485 404/404
f 486/486 404/404 402/402
f 409/409 406/406 393/393
f 409/409 393/393 405/405
f 403/403 405/405 391/391
f 403/403 391/391 388/388
f 401/401 403/403 388/388
f 401/401 388/388 385/385
f 382/382 139/139 157/157
f 382/382 157/157 399/399
f 488/488 257/257 140/140
f 488/488 140/140 383/383
f 408/408 402/402 404/404
f 408/408 404/404 409/409
f 410/410 400/400 402/402
f 410/410 402/402 408/408
f 411/411 398/398 400/400
f 411/411 400/400 410/410
f 411/411 399/399 157/157
f 411/411 157/157 171/171
f 488/488 487/487 400/400
f 488/488 400/400 398/398
f 394/394 407/407 423/423
f 394/394 423/423 424/424
f 398/398 411/411 171/171
f 398/398 171/171 158/158
f 399/399 411/411 410/410
f 399/399 410/410 401/401
f 401/401 410/410 408/408
f 401/401 408/408 403/403
f 403/403 408/408 409/409
f 403/403 409/409 405/405
f 404/404 396/396 406/406
f 404/404 406/406 409/409
f 429/429 414/414 412/412
f 429/429 412/412 428/428
f 430/430 413/413 414/414
f 430/430 414/414 429/429
f 439/439 420/420 416/416
f 439/439 416/416 440/440
f 441/441 418/418 420/420
f 441/441 420/420 439/439
f 484/484 396/396 404/404
f 484/484 404/404 485/485
f 407/407 397/397 426/426
f 407/407 426/426 423/423
f 482/482 425/425 395/395
f 482/482 395/395 483/483
f 426/426 430/430 429/429
f 426/426 429/429 423/423
f 423/423 429/429 428/428
f 423/423 428/428 424/424
f 430/430 434/434 432/432
f 430/430 432/432 413/413
f 430/430 426/426 434/434
f 413/413 441/441 439/439
f 413/413 439/439 414/414
f 414/414 439/439 440/440
f 414/414 440/440 412/412
f 438/438 441/441 413/413
f 438/438 413/413 432/432
f 482/482 481/481 433/433
f 482/482 433/433 425/425
f 489/489 431/431 433/433
f 489/489 433/433 481/481
f 490/490 489/489 442/442
f 490/490 442/442 443/443
f 490/490 491/491 444/444
f 490/490 444/444 436/436
f 492/492 264/264 211/211
f 492/492 211/211 447/447
f 393/393 451/451 391/391
f 393/393 391/391 405/405
f 455/455 452/452 394/394
f 455/455 394/394 453/453
f 424/424 457/457 453/453
f 424/424 453/453 394/394
f 428/428 456/456 457/457
f 428/428 457/457 424/424
f 453/453 459/459 462/462
f 453/453 462/462 455/455
f 465/465 463/463 457/457
f 465/465 457/457 456/456
f 459/459 453/453 457/457
f 459/459 457/457 463/463
f 458/458 230/230 232/232
f 458/458 232/232 461/461
f 464/464 233/233 230/230
f 464/464 230/230 458/458
f 234/234 233/233 464/464
f 234/234 464/464 466/466
f 428/428 412/412 456/456
f 456/456 467/467 469/469
f 456/456 469/469 465/465
f 467/467 472/472 475/475
f 467/467 475/475 469/469
f 412/412 440/440 467/467
f 412/412 467/467 456/456
f 478/478 418/418 441/441
f 478/478 441/441 438/438
f 480/480 477/477 437/437
f 480/480 437/437 445/445
f 249/249 470/470 446/446
f 249/249 446/446 210/210
f 416/416 472/472 467/467
f 416/416 467/467 440/440
f 234/234 466/466 470/470
f 234/234 470/470 249/249
f 474/474 480/480 445/445
f 474/474 445/445 468/468
f 473/473 476/476 479/479
f 419/419 473/473 415/415
f 476/476 419/419 417/417
f 476/476 473/473 419/419
f 415/415 473/473 471/471
f 390/390 250/250 387/387
f 460/460 250/250 454/454
f 231/231 250/250 460/460
f 381/381 250/250 138/138
f 454/454 250/250 450/450
f 450/450 250/250 390/390
f 387/387 250/250 384/384
f 384/384 250/250 381/381
f 449/449 212/212 264/264
f 449/449 264/264 492/492
f 443/443 448/448 491/491
f 443/443 491/491 490/490
f 436/436 431/431 489/489
f 436/436 489/489 490/490
f 442/442 489/489 481/481
f 442/442 481/481 435/435
f 427/427 435/435 481/481
f 427/427 481/481 482/482
f 427/427 482/482 483/483
f 427/427 483/483 421/421
f 422/422 484/484 485/485
f 422/422 485/485 392/392
f 383/383 386/386 487/487
f 383/383 487/487 488/488
f 398/398 158/158 257/257
f 398/398 257/257 488/488
f 389/389 392/392 485/485
f 389/389 485/485 486/486
f 386/386 389/389 486/486
f 386/386 486/486 487/487
f 507/507 493/493 495/495
f 507/507 495/495 509/509
f 587/587 508/508 510/510
f 587/587 510/510 586/586
f 586/586 510/510 512/512
f 586/586 512/512 585/585
f 517/517 513/513 501/501
f 517/517 501/501 514/514
f 511/511 497/497 499/499
f 511/511 499/499 513/513
f 509/509 495/495 497/497
f 509/509 497/497 511/511
f 493/493 507/507 282/282
f 493/493 282/282 267/267
f 588/588 383/383 140/140
f 588/588 140/140 373/373
f 516/516 517/517 512/512
f 516/516 512/512 510/510
f 518/518 516/516 510/510
f 518/518 510/510 508/508
f 519/519 518/518 508/508
f 519/519 508/508 506/506
f 519/519 296/296 282/282
f 519/519 282/282 507/507
f 588/588 506/506 508/508
f 588/588 508/508 587/587
f 502/502 530/530 529/529
f 502/502 529/529 515/515
f 506/506 283/283 296/296
f 506/506 296/296 519/519
f 507/507 509/509 518/518
f 507/507 518/518 519/519
f 509/509 511/511 516/516
f 509/509 516/516 518/518
f 511/511 513/513 517/517
f 511/511 517/517 516/516
f 512/512 517/517 514/514
f 512/512 514/514 504/504
f 534/534 533/533 520/520
f 534/534 520/520 522/522
f 535/535 534/534 522/522
f 535/535 522/522 521/521
f 543/543 544/544 523/523
f 543/543 523/523 527/527
f 545/545 543/543 527/527
f 545/545 527/527 525/525
f 584/584 585/585 512/512
f 584/584 512/512 504/504
f 515/515 529/529 532/532
f 515/515 532/532 505/505
f 582/582 583/583 503/503
f 582/582 503/503 531/531
f 532/532 529/529 534/534
f 532/532 534/534 535/535
f 529/529 530/530 533/533
f 529/529 533/533 534/534
f 535/535 521/521 536/536
f 535/535 536/536 539/539
f 535/535 539/539 532/532
f 521/521 522/522 543/543
f 521/521 543/543 545/545
f 522/522 520/520 544/544
f 522/522 544/544 543/543
f 540/540 536/536 521/521
f 540/540 521/521 545/545
f 582/582 531/531 538/538
f 582/582 538/538 581/581
f 589/589 581/581 538/538
f 589/589 538/538 537/537
f 590/590 443/443 442/442
f 590/590 442/442 589/589
f 590/590 542/542 548/548
f 590/590 548/548 591/591
f 592/592 549/549 328/328
f 592/592 328/328 380/380
f 501/501 513/513 499/499
f 501/501 499/499 550/550
f 554/554 553/553 502/502
f 554/554 502/502 551/551
f 530/530 502/502 553/553
f 530/530 553/553 557/557
f 533/533 530/530 557/557
f 533/533 557/557 556/556
f 553/553 554/554 560/560
f 553/553 560/560 558/558
f 565/565 556/556 557/557
f 565/565 557/557 563/563
f 558/558 563/563 557/557
f 558/558 557/557 553/553
f 559/559 562/562 348/348
f 559/559 348/348 346/346
f 564/564 559/559 346/346
f 564/564 346/346 349/349
f 350/350 566/566 564/564
f 350/350 564/564 349/349
f 533/533 556/556 520/520
f 556/556 565/565 568/568
f 556/556 568/568 567/567
f 567/567 568/568 573/573
f 567/567 573/573 571/571
f 520/520 556/556 567/567
f 520/520 567/567 544/544
f 576/576 540/540 545/545
f 576/576 545/545 525/525
f 579/579 546/546 541/541
f 579/579 541/541 577/577
f 365/365 327/327 547/547
f 365/365 547/547 570/570
f 523/523 544/544 567/567
f 523/523 567/567 571/571
f 350/350 365/365 570/570
f 350/350 570/570 566/566
f 574/574 569/569 546/546
f 574/574 546/546 579/579
f 575/575 580/580 578/578
f 528/528 524/524 575/575
f 578/578 526/526 528/528
f 578/578 528/528 575/575
f 524/524 572/572 575/575
f 500/500 498/498 366/366
f 561/561 555/555 366/366
f 347/347 561/561 366/366
f 494/494 268/268 366/366
f 555/555 552/552 366/366
f 552/552 500/500 366/366
f 498/498 496/496 366/366
f 496/496 494/494 366/366
f 449/449 592/592 380/380
f 449/449 380/380 212/212
f 443/443 590/590 591/591
f 443/443 591/591 448/448
f 542/542 590/590 589/589
f 542/542 589/589 537/537
f 442/442 435/435 581/581
f 442/442 581/581 589/589
f 427/427 582/582 581/581
f 427/427 581/581 435/435
f 427/427 421/421 583/583
f 427/427 583/583 582/582
f 422/422 392/392 585/585
f 422/422 585/585 584/584
f 383/383 588/588 587/587
f 383/383 587/587 386/386
f 506/506 588/588 373/373
f 506/506 373/373 283/283
f 389/389 586/586 585/585
f 389/389 585/585 392/392
f 386/386 587/587 586/586
f 386/386 586/586 389/389