mtllib house4.mtl
o mesh_0
usemtl house4_0
v -0.5479808 0.0000000 0.4833451
v -0.5479808 0.0000000 0.4833451
v -0.5479808 0.0000000 0.4833451
v -0.5479808 0.0000000 -0.6264684
v -0.5479808 0.0000000 -0.6264684
v -0.5479808 0.0000000 -0.6264684
v -0.5479808 0.7222306 0.4833451
v -0.5479808 0.7222306 0.4833451
v -0.5479808 0.7222306 0.4833451
v -0.5479808 0.9558552 -0.6264684
v -0.5479808 0.9558552 -0.6264684
v -0.5479808 0.9558552 -0.6264684
v -0.1722346 0.0000000 0.4833451
v -0.1722346 0.0000000 0.4833451
v -0.1722346 0.0000000 -0.6264684
v -0.1722346 0.0000000 -0.6264684
v -0.1722346 0.9558552 -0.6264684
v -0.1722346 0.9558552 -0.6264684
v -0.1722346 0.7222306 0.4833451
v -0.1722346 0.7222306 0.4833451
v -0.5479808 0.5542103 0.4833451
v -0.5479808 0.5542103 0.4833451
v -0.5479808 0.5542103 -0.6264684
v -0.5479808 0.5542103 -0.6264684
v -0.1722346 0.5542103 -0.6264684
v -0.1722346 0.5542103 0.4833451
v -0.1722346 0.0000000 0.4048122
v -0.1722346 0.0000000 0.4048122
v -0.1722346 0.5500979 0.4048122
v -0.1722346 0.1866957 -0.6264684
v -0.5479808 0.1415693 0.4833451
v -0.5479808 0.1415693 0.4833451
v -0.5479808 0.1866958 -0.6264684
v -0.5479808 0.1866958 -0.6264684
v -0.1722346 0.1415693 0.4833451
v -0.1722346 0.1415693 0.4048122
v 0.5541959 0.0000000 0.4833451
v 0.5541959 0.0000000 0.4833451
v 0.5541959 0.0000000 0.4833451
v 0.5541959 0.0000000 -0.6264684
v 0.5541959 0.0000000 -0.6264684
v 0.5541959 0.0000000 -0.6264684
v 0.5541959 0.7222306 0.4833451
v 0.5541959 0.7222306 0.4833451
v 0.5541959 0.7222306 0.4833451
v 0.5541959 0.9558552 -0.6264684
v 0.5541959 0.9558552 -0.6264684
v 0.5541959 0.9558552 -0.6264684
v 0.1784497 0.0000000 0.4833451
v 0.1784497 0.0000000 0.4833451
v 0.1784497 0.0000000 -0.6264684
v 0.1784497 0.0000000 -0.6264684
v 0.1784497 0.9558552 -0.6264684
v 0.1784497 0.9558552 -0.6264684
v 0.1784497 0.7222306 0.4833451
v 0.1784497 0.7222306 0.4833451
v 0.5541959 0.5542103 0.4833451
v 0.5541959 0.5542103 0.4833451
v 0.5541959 0.5542103 -0.6264684
v 0.5541959 0.5542103 -0.6264684
v 0.1784497 0.5542103 -0.6264684
v 0.1784497 0.5542103 0.4833451
v 0.1784497 0.0000000 0.4048122
v 0.1784497 0.0000000 0.4048122
v 0.1784497 0.5500979 0.4048122
v 0.1784497 0.1866957 -0.6264684
v 0.5541959 0.1415693 0.4833451
v 0.5541959 0.1415693 0.4833451
v 0.5541959 0.1866958 -0.6264684
v 0.5541959 0.1866958 -0.6264684
v 0.1784497 0.1415693 0.4833451
v 0.1784497 0.1415693 0.4048122
vt 0.6787628 0.8049462
vt 0.6926957 0.7448817
vt 0.7010491 0.7611088
vt 0.5004420 0.3148302
vt 0.6787628 0.8934538
vt 0.9551755 0.7611088
vt 0.5026104 0.8049459
vt 0.7010491 0.9264860
vt 0.9541636 0.7448817
vt 0.5026104 0.8953934
vt 0.7692807 0.3148302
vt 0.9551755 0.9799817
vt 0.6487972 0.8049462
vt 0.6926957 0.6088514
vt 0.5004420 0.2091501
vt 0.6487972 0.8934538
vt 0.5325762 0.8953934
vt 0.7692807 0.2091501
vt 0.5325762 0.8049459
vt 0.9541636 0.6088514
vt 0.7010491 0.8880125
vt 0.8933354 0.7448817
vt 0.6563162 0.3148302
vt 0.9551755 0.8880125
vt 0.6563162 0.2091501
vt 0.8933354 0.6088514
vt 0.6487972 0.8112090
vt 0.6926955 0.6088514
vt 0.8918465 0.6088514
vt 0.5529510 0.2091501
vt 0.7010491 0.7935256
vt 0.7439476 0.7448817
vt 0.5529510 0.3148302
vt 0.9551755 0.8038587
vt 0.7439476 0.6088514
vt 0.7439476 0.6088514
vt 0.5908641 0.8049459
vt 0.6926955 0.3458625
vt 0.9965060 0.0045819
vt 0.5004420 0.0048378
vt 0.5908641 0.8934538
vt 0.9965060 0.2587084
vt 0.5905094 0.8049459
vt 0.8311288 0.0045819
vt 0.9541636 0.3458625
vt 0.5905094 0.8953934
vt 0.7692807 0.0048378
vt 0.7776332 0.2587082
vt 0.6208298 0.8049459
vt 0.6926955 0.4818940
vt 0.5004420 0.1105187
vt 0.6208298 0.8934538
vt 0.5605435 0.8953934
vt 0.7692807 0.1105187
vt 0.5605435 0.8049459
vt 0.9541636 0.4818940
vt 0.8696023 0.0045819
vt 0.8933354 0.3458625
vt 0.6563162 0.0048378
vt 0.8696023 0.2587082
vt 0.6563162 0.1105187
vt 0.8933354 0.4818940
vt 0.6208298 0.8112090
vt 0.6926955 0.4818940
vt 0.8918465 0.4818940
vt 0.5529510 0.1105187
vt 0.7439476 0.3458625
vt 0.9640893 0.0045819
vt 0.5529510 0.0048378
vt 0.9537562 0.2587084
vt 0.7439476 0.4818940
vt 0.7439476 0.4818940
f 21/21 8/8 12/12
f 21/21 12/12 24/24
f 23/23 11/11 18/18
f 23/23 18/18 25/25
f 7/7 19/19 17/17
f 7/7 17/17 10/10
f 22/22 26/26 20/20
f 22/22 20/20 9/9
f 32/32 35/35 26/26
f 32/32 26/26 22/22
f 33/33 23/23 25/25
f 33/33 25/25 30/30
f 31/31 21/21 24/24
f 31/31 24/24 34/34
f 55/55 53/53 17/17
f 55/55 17/17 19/19
f 61/61 25/25 18/18
f 61/61 18/18 54/54
f 51/51 15/15 30/30
f 51/51 30/30 66/66
f 64/64 72/72 36/36
f 64/64 36/36 28/28
f 35/35 14/14 28/28
f 35/35 28/28 36/36
f 29/29 65/65 62/62
f 29/29 62/62 26/26
f 16/16 52/52 63/63
f 16/16 63/63 27/27
f 13/13 1/1 27/27
f 1/1 5/5 16/16
f 1/1 16/16 27/27
f 66/66 30/30 25/25
f 66/66 25/25 61/61
f 26/26 35/35 36/36
f 26/26 36/36 29/29
f 72/72 65/65 29/29
f 72/72 29/29 36/36
f 3/3 31/31 34/34
f 3/3 34/34 6/6
f 4/4 33/33 30/30
f 4/4 30/30 15/15
f 2/2 14/14 35/35
f 2/2 35/35 32/32
f 57/57 60/60 48/48
f 57/57 48/48 44/44
f 59/59 61/61 54/54
f 59/59 54/54 47/47
f 43/43 46/46 53/53
f 43/43 53/53 55/55
f 58/58 45/45 56/56
f 58/58 56/56 62/62
f 67/67 58/58 62/62
f 67/67 62/62 71/71
f 69/69 66/66 61/61
f 69/69 61/61 59/59
f 68/68 70/70 60/60
f 68/68 60/60 57/57
f 71/71 72/72 64/64
f 71/71 64/64 50/50
f 49/49 63/63 37/37
f 37/37 63/63 52/52
f 37/37 52/52 41/41
f 62/62 65/65 72/72
f 62/62 72/72 71/71
f 39/39 42/42 70/70
f 39/39 70/70 68/68
f 40/40 51/51 66/66
f 40/40 66/66 69/69
f 38/38 67/67 71/71
f 38/38 71/71 50/50
f 62/62 56/56 20/20
f 62/62 20/20 26/26
o mesh_1
usemtl house4_1
v -0.4565682 0.2069549 0.4838383
v -0.4565682 0.2069549 0.4838383
v -0.4565682 0.2185161 0.4838383
v -0.4565682 0.2185161 0.4838383
v -0.4681275 0.2185161 0.4838383
v -0.4681275 0.2185161 0.4838383
v -0.4681275 0.2069549 0.4838383
v -0.4681275 0.2069549 0.4838383
v -0.4565682 0.2092818 0.4998071
v -0.4565682 0.2092818 0.4998071
v -0.4565682 0.2199630 0.4953825
v -0.4565682 0.2199630 0.4953825
v -0.4565682 0.2199630 0.4953825
v -0.4681275 0.2199630 0.4953825
v -0.4681275 0.2199630 0.4953825
v -0.4681275 0.2199630 0.4953825
v -0.4681275 0.2092818 0.4998071
v -0.4681275 0.2092818 0.4998071
v -0.4565682 0.2169563 0.5083897
v -0.4565682 0.2169563 0.5083897
v -0.4565682 0.2169563 0.5083897
v -0.4565682 0.2239943 0.4992177
v -0.4565682 0.2239943 0.4992177
v -0.4681275 0.2239943 0.4992177
v -0.4681275 0.2239943 0.4992177
v -0.4681275 0.2169563 0.5083897
v -0.4681275 0.2169563 0.5083897
v -0.4681275 0.2169563 0.5083897
v -0.4565682 0.2278940 0.5119853
v -0.4565682 0.2278940 0.5119853
v -0.4565682 0.2294031 0.5005229
v -0.4565682 0.2294031 0.5005229
v -0.4681275 0.2294031 0.5005229
v -0.4681275 0.2294031 0.5005229
v -0.4681275 0.2278940 0.5119853
v -0.4681275 0.2278940 0.5119853
v -0.4565682 0.4860643 0.4838383
v -0.4565682 0.4860643 0.4838383
v -0.4565682 0.4745031 0.4838383
v -0.4565682 0.4745031 0.4838383
v -0.4681275 0.4745031 0.4838383
v -0.4681275 0.4745031 0.4838383
v -0.4681275 0.4860643 0.4838383
v -0.4681275 0.4860643 0.4838383
v -0.4565682 0.4837374 0.4998071
v -0.4565682 0.4837374 0.4998071
v -0.4565682 0.4730562 0.4953825
v -0.4565682 0.4730562 0.4953825
v -0.4565682 0.4730562 0.4953825
v -0.4681275 0.4730562 0.4953825
v -0.4681275 0.4730562 0.4953825
v -0.4681275 0.4730562 0.4953825
v -0.4681275 0.4837374 0.4998071
v -0.4681275 0.4837374 0.4998071
v -0.4565682 0.4760629 0.5083897
v -0.4565682 0.4760629 0.5083897
v -0.4565682 0.4760629 0.5083897
v -0.4565682 0.4690249 0.4992177
v -0.4565682 0.4690249 0.4992177
v -0.4681275 0.4690249 0.4992177
v -0.4681275 0.4690249 0.4992177
v -0.4681275 0.4760629 0.5083897
v -0.4681275 0.4760629 0.5083897
v -0.4681275 0.4760629 0.5083897
v -0.4565682 0.4651252 0.5119853
v -0.4565682 0.4651252 0.5119853
v -0.4565682 0.4636162 0.5005229
v -0.4565682 0.4636162 0.5005229
v -0.4681275 0.4636162 0.5005229
v -0.4681275 0.4636162 0.5005229
v -0.4681275 0.4651252 0.5119853
v -0.4681275 0.4651252 0.5119853
v -0.3853985 0.2069549 0.4838383
v -0.3853985 0.2069549 0.4838383
v -0.3853985 0.2185161 0.4838383
v -0.3853985 0.2185161 0.4838383
v -0.3969578 0.2185161 0.4838383
v -0.3969578 0.2185161 0.4838383
v -0.3969578 0.2069549 0.4838383
v -0.3969578 0.2069549 0.4838383
v -0.3853985 0.2092818 0.4998071
v -0.3853985 0.2092818 0.4998071
v -0.3853985 0.2199630 0.4953825
v -0.3853985 0.2199630 0.4953825
v -0.3853985 0.2199630 0.4953825
v -0.3969578 0.2199630 0.4953825
v -0.3969578 0.2199630 0.4953825
v -0.3969578 0.2199630 0.4953825
v -0.3969578 0.2092818 0.4998071
v -0.3969578 0.2092818 0.4998071
v -0.3853985 0.2169563 0.5083897
v -0.3853985 0.2169563 0.5083897
v -0.3853985 0.2169563 0.5083897
v -0.3853985 0.2239943 0.4992177
v -0.3853985 0.2239943 0.4992177
v -0.3969578 0.2239943 0.4992177
v -0.3969578 0.2239943 0.4992177
v -0.3969578 0.2169563 0.5083897
v -0.3969578 0.2169563 0.5083897
v -0.3969578 0.2169563 0.5083897
v -0.3853985 0.2278940 0.5119853
v -0.3853985 0.2278940 0.5119853
v -0.3853985 0.2294031 0.5005229
v -0.3853985 0.2294031 0.5005229
v -0.3969578 0.2294031 0.5005229
v -0.3969578 0.2294031 0.5005229
v -0.3969578 0.2278940 0.5119853
v -0.3969578 0.2278940 0.5119853
v -0.3853985 0.4860643 0.4838383
v -0.3853985 0.4860643 0.4838383
v -0.3853985 0.4745031 0.4838383
v -0.3853985 0.4745031 0.4838383
v -0.3969578 0.4745031 0.4838383
v -0.3969578 0.4745031 0.4838383
v -0.3969578 0.4860643 0.4838383
v -0.3969578 0.4860643 0.4838383
v -0.3853985 0.4837374 0.4998071
v -0.3853985 0.4837374 0.4998071
v -0.3853985 0.4730562 0.4953825
v -0.3853985 0.4730562 0.4953825
v -0.3853985 0.4730562 0.4953825
v -0.3969578 0.4730562 0.4953825
v -0.3969578 0.4730562 0.4953825
v -0.3969578 0.4730562 0.4953825
v -0.3969578 0.4837374 0.4998071
v -0.3969578 0.4837374 0.4998071
v -0.3853985 0.4760629 0.5083897
v -0.3853985 0.4760629 0.5083897
v -0.3853985 0.4760629 0.5083897
v -0.3853985 0.4690249 0.4992177
v -0.3853985 0.4690249 0.4992177
v -0.3969578 0.4690249 0.4992177
v -0.3969578 0.4690249 0.4992177
v -0.3969578 0.4760629 0.5083897
v -0.3969578 0.4760629 0.5083897
v -0.3969578 0.4760629 0.5083897
v -0.3853985 0.4651252 0.5119853
v -0.3853985 0.4651252 0.5119853
v -0.3853985 0.4636162 0.5005229
v -0.3853985 0.4636162 0.5005229
v -0.3969578 0.4636162 0.5005229
v -0.3969578 0.4636162 0.5005229
v -0.3969578 0.4651252 0.5119853
v -0.3969578 0.4651252 0.5119853
v -0.3142287 0.2069549 0.4838383
v -0.3142287 0.2069549 0.4838383
v -0.3142287 0.2185161 0.4838383
v -0.3142287 0.2185161 0.4838383
v -0.3257881 0.2185161 0.4838383
v -0.3257881 0.2185161 0.4838383
v -0.3257881 0.2069549 0.4838383
v -0.3257881 0.2069549 0.4838383
v -0.3142287 0.2092818 0.4998071
v -0.3142287 0.2092818 0.4998071
v -0.3142287 0.2199630 0.4953825
v -0.3142287 0.2199630 0.4953825
v -0.3142287 0.2199630 0.4953825
v -0.3257881 0.2199630 0.4953825
v -0.3257881 0.2199630 0.4953825
v -0.3257881 0.2199630 0.4953825
v -0.3257881 0.2092818 0.4998071
v -0.3257881 0.2092818 0.4998071
v -0.3142287 0.2169563 0.5083897
v -0.3142287 0.2169563 0.5083897
v -0.3142287 0.2169563 0.5083897
v -0.3142287 0.2239943 0.4992177
v -0.3142287 0.2239943 0.4992177
v -0.3257881 0.2239943 0.4992177
v -0.3257881 0.2239943 0.4992177
v -0.3257881 0.2169563 0.5083897
v -0.3257881 0.2169563 0.5083897
v -0.3257881 0.2169563 0.5083897
v -0.3142287 0.2278940 0.5119853
v -0.3142287 0.2278940 0.5119853
v -0.3142287 0.2294031 0.5005229
v -0.3142287 0.2294031 0.5005229
v -0.3257881 0.2294031 0.5005229
v -0.3257881 0.2294031 0.5005229
v -0.3257881 0.2278940 0.5119853
v -0.3257881 0.2278940 0.5119853
v -0.3142287 0.4860643 0.4838383
v -0.3142287 0.4860643 0.4838383
v -0.3142287 0.4745031 0.4838383
v -0.3142287 0.4745031 0.4838383
v -0.3257881 0.4745031 0.4838383
v -0.3257881 0.4745031 0.4838383
v -0.3257881 0.4860643 0.4838383
v -0.3257881 0.4860643 0.4838383
v -0.3142287 0.4837374 0.4998071
v -0.3142287 0.4837374 0.4998071
v -0.3142287 0.4730562 0.4953825
v -0.3142287 0.4730562 0.4953825
v -0.3142287 0.4730562 0.4953825
v -0.3257881 0.4730562 0.4953825
v -0.3257881 0.4730562 0.4953825
v -0.3257881 0.4730562 0.4953825
v -0.3257881 0.4837374 0.4998071
v -0.3257881 0.4837374 0.4998071
v -0.3142287 0.4760629 0.5083897
v -0.3142287 0.4760629 0.5083897
v -0.3142287 0.4760629 0.5083897
v -0.3142287 0.4690249 0.4992177
v -0.3142287 0.4690249 0.4992177
v -0.3257881 0.4690249 0.4992177
v -0.3257881 0.4690249 0.4992177
v -0.3257881 0.4760629 0.5083897
v -0.3257881 0.4760629 0.5083897
v -0.3257881 0.4760629 0.5083897
v -0.3142287 0.4651252 0.5119853
v -0.3142287 0.4651252 0.5119853
v -0.3142287 0.4636162 0.5005229
v -0.3142287 0.4636162 0.5005229
v -0.3257881 0.4636162 0.5005229
v -0.3257881 0.4636162 0.5005229
v -0.3257881 0.4651252 0.5119853
v -0.3257881 0.4651252 0.5119853
v -0.2430590 0.2069549 0.4838383
v -0.2430590 0.2069549 0.4838383
v -0.2430590 0.2185161 0.4838383
v -0.2430590 0.2185161 0.4838383
v -0.2546183 0.2185161 0.4838383
v -0.2546183 0.2185161 0.4838383
v -0.2546183 0.2069549 0.4838383
v -0.2546183 0.2069549 0.4838383
v -0.2430590 0.2092818 0.4998071
v -0.2430590 0.2092818 0.4998071
v -0.2430590 0.2199630 0.4953825
v -0.2430590 0.2199630 0.4953825
v -0.2430590 0.2199630 0.4953825
v -0.2546183 0.2199630 0.4953825
v -0.2546183 0.2199630 0.4953825
v -0.2546183 0.2199630 0.4953825
v -0.2546183 0.2092818 0.4998071
v -0.2546183 0.2092818 0.4998071
v -0.2430590 0.2169563 0.5083897
v -0.2430590 0.2169563 0.5083897
v -0.2430590 0.2169563 0.5083897
v -0.2430590 0.2239943 0.4992177
v -0.2430590 0.2239943 0.4992177
v -0.2546183 0.2239943 0.4992177
v -0.2546183 0.2239943 0.4992177
v -0.2546183 0.2169563 0.5083897
v -0.2546183 0.2169563 0.5083897
v -0.2546183 0.2169563 0.5083897
v -0.2430590 0.2278940 0.5119853
v -0.2430590 0.2278940 0.5119853
v -0.2430590 0.2294031 0.5005229
v -0.2430590 0.2294031 0.5005229
v -0.2546183 0.2294031 0.5005229
v -0.2546183 0.2294031 0.5005229
v -0.2546183 0.2278940 0.5119853
v -0.2546183 0.2278940 0.5119853
v -0.2430590 0.4860643 0.4838383
v -0.2430590 0.4860643 0.4838383
v -0.2430590 0.4745031 0.4838383
v -0.2430590 0.4745031 0.4838383
v -0.2546183 0.4745031 0.4838383
v -0.2546183 0.4745031 0.4838383
v -0.2546183 0.4860643 0.4838383
v -0.2546183 0.4860643 0.4838383
v -0.2430590 0.4837374 0.4998071
v -0.2430590 0.4837374 0.4998071
v -0.2430590 0.4730562 0.4953825
v -0.2430590 0.4730562 0.4953825
v -0.2430590 0.4730562 0.4953825
v -0.2546183 0.4730562 0.4953825
v -0.2546183 0.4730562 0.4953825
v -0.2546183 0.4730562 0.4953825
v -0.2546183 0.4837374 0.4998071
v -0.2546183 0.4837374 0.4998071
v -0.2430590 0.4760629 0.5083897
v -0.2430590 0.4760629 0.5083897
v -0.2430590 0.4760629 0.5083897
v -0.2430590 0.4690249 0.4992177
v -0.2430590 0.4690249 0.4992177
v -0.2546183 0.4690249 0.4992177
v -0.2546183 0.4690249 0.4992177
v -0.2546183 0.4760629 0.5083897
v -0.2546183 0.4760629 0.5083897
v -0.2546183 0.4760629 0.5083897
v -0.2430590 0.4651252 0.5119853
v -0.2430590 0.4651252 0.5119853
v -0.2430590 0.4636162 0.5005229
v -0.2430590 0.4636162 0.5005229
v -0.2546183 0.4636162 0.5005229
v -0.2546183 0.4636162 0.5005229
v -0.2546183 0.4651252 0.5119853
v -0.2546183 0.4651252 0.5119853
v 0.4627833 0.2069549 0.4838383
v 0.4627833 0.2069549 0.4838383
v 0.4627833 0.2185161 0.4838383
v 0.4627833 0.2185161 0.4838383
v 0.4743426 0.2185161 0.4838383
v 0.4743426 0.2185161 0.4838383
v 0.4743426 0.2069549 0.4838383
v 0.4743426 0.2069549 0.4838383
v 0.4627833 0.2092818 0.4998071
v 0.4627833 0.2092818 0.4998071
v 0.4627833 0.2199630 0.4953825
v 0.4627833 0.2199630 0.4953825
v 0.4627833 0.2199630 0.4953825
v 0.4743426 0.2199630 0.4953825
v 0.4743426 0.2199630 0.4953825
v 0.4743426 0.2199630 0.4953825
v 0.4743426 0.2092818 0.4998071
v 0.4743426 0.2092818 0.4998071
v 0.4627833 0.2169563 0.5083897
v 0.4627833 0.2169563 0.5083897
v 0.4627833 0.2169563 0.5083897
v 0.4627833 0.2239943 0.4992177
v 0.4627833 0.2239943 0.4992177
v 0.4743426 0.2239943 0.4992177
v 0.4743426 0.2239943 0.4992177
v 0.4743426 0.2169563 0.5083897
v 0.4743426 0.2169563 0.5083897
v 0.4743426 0.2169563 0.5083897
v 0.4627833 0.2278940 0.5119853
v 0.4627833 0.2278940 0.5119853
v 0.4627833 0.2294031 0.5005229
v 0.4627833 0.2294031 0.5005229
v 0.4743426 0.2294031 0.5005229
v 0.4743426 0.2294031 0.5005229
v 0.4743426 0.2278940 0.5119853
v 0.4743426 0.2278940 0.5119853
v 0.4627833 0.4860643 0.4838383
v 0.4627833 0.4860643 0.4838383
v 0.4627833 0.4745031 0.4838383
v 0.4627833 0.4745031 0.4838383
v 0.4743426 0.4745031 0.4838383
v 0.4743426 0.4745031 0.4838383
v 0.4743426 0.4860643 0.4838383
v 0.4743426 0.4860643 0.4838383
v 0.4627833 0.4837374 0.4998071
v 0.4627833 0.4837374 0.4998071
v 0.4627833 0.4730562 0.4953825
v 0.4627833 0.4730562 0.4953825
v 0.4627833 0.4730562 0.4953825
v 0.4743426 0.4730562 0.4953825
v 0.4743426 0.4730562 0.4953825
v 0.4743426 0.4730562 0.4953825
v 0.4743426 0.4837374 0.4998071
v 0.4743426 0.4837374 0.4998071
v 0.4627833 0.4760629 0.5083897
v 0.4627833 0.4760629 0.5083897
v 0.4627833 0.4760629 0.5083897
v 0.4627833 0.4690249 0.4992177
v 0.4627833 0.4690249 0.4992177
v 0.4743426 0.4690249 0.4992177
v 0.4743426 0.4690249 0.4992177
v 0.4743426 0.4760629 0.5083897
v 0.4743426 0.4760629 0.5083897
v 0.4743426 0.4760629 0.5083897
v 0.4627833 0.4651252 0.5119853
v 0.4627833 0.4651252 0.5119853
v 0.4627833 0.4636162 0.5005229
v 0.4627833 0.4636162 0.5005229
v 0.4743426 0.4636162 0.5005229
v 0.4743426 0.4636162 0.5005229
v 0.4743426 0.4651252 0.5119853
v 0.4743426 0.4651252 0.5119853
v 0.3916136 0.2069549 0.4838383
v 0.3916136 0.2069549 0.4838383
v 0.3916136 0.2185161 0.4838383
v 0.3916136 0.2185161 0.4838383
v 0.4031729 0.2185161 0.4838383
v 0.4031729 0.2185161 0.4838383
v 0.4031729 0.2069549 0.4838383
v 0.4031729 0.2069549 0.4838383
v 0.3916136 0.2092818 0.4998071
v 0.3916136 0.2092818 0.4998071
v 0.3916136 0.2199630 0.4953825
v 0.3916136 0.2199630 0.4953825
v 0.3916136 0.2199630 0.4953825
v 0.4031729 0.2199630 0.4953825
v 0.4031729 0.2199630 0.4953825
v 0.4031729 0.2199630 0.4953825
v 0.4031729 0.2092818 0.4998071
v 0.4031729 0.2092818 0.4998071
v 0.3916136 0.2169563 0.5083897
v 0.3916136 0.2169563 0.5083897
v 0.3916136 0.2169563 0.5083897
v 0.3916136 0.2239943 0.4992177
v 0.3916136 0.2239943 0.4992177
v 0.4031729 0.2239943 0.4992177
v 0.4031729 0.2239943 0.4992177
v 0.4031729 0.2169563 0.5083897
v 0.4031729 0.2169563 0.5083897
v 0.4031729 0.2169563 0.5083897
v 0.3916136 0.2278940 0.5119853
v 0.3916136 0.2278940 0.5119853
v 0.3916136 0.2294031 0.5005229
v 0.3916136 0.2294031 0.5005229
v 0.4031729 0.2294031 0.5005229
v 0.4031729 0.2294031 0.5005229
v 0.4031729 0.2278940 0.5119853
v 0.4031729 0.2278940 0.5119853
v 0.3916136 0.4860643 0.4838383
v 0.3916136 0.4860643 0.4838383
v 0.3916136 0.4745031 0.4838383
v 0.3916136 0.4745031 0.4838383
v 0.4031729 0.4745031 0.4838383
v 0.4031729 0.4745031 0.4838383
v 0.4031729 0.4860643 0.4838383
v 0.4031729 0.4860643 0.4838383
v 0.3916136 0.4837374 0.4998071
v 0.3916136 0.4837374 0.4998071
v 0.3916136 0.4730562 0.4953825
v 0.3916136 0.4730562 0.4953825
v 0.3916136 0.4730562 0.4953825
v 0.4031729 0.4730562 0.4953825
v 0.4031729 0.4730562 0.4953825
v 0.4031729 0.4730562 0.4953825
v 0.4031729 0.4837374 0.4998071
v 0.4031729 0.4837374 0.4998071
v 0.3916136 0.4760629 0.5083897
v 0.3916136 0.4760629 0.5083897
v 0.3916136 0.4760629 0.5083897
v 0.3916136 0.4690249 0.4992177
v 0.3916136 0.4690249 0.4992177
v 0.4031729 0.4690249 0.4992177
v 0.4031729 0.4690249 0.4992177
v 0.4031729 0.4760629 0.5083897
v 0.4031729 0.4760629 0.5083897
v 0.4031729 0.4760629 0.5083897
v 0.3916136 0.4651252 0.5119853
v 0.3916136 0.4651252 0.5119853
v 0.3916136 0.4636162 0.5005229
v 0.3916136 0.4636162 0.5005229
v 0.4031729 0.4636162 0.5005229
v 0.4031729 0.4636162 0.5005229
v 0.4031729 0.4651252 0.5119853
v 0.4031729 0.4651252 0.5119853
v 0.3204439 0.2069549 0.4838383
v 0.3204439 0.2069549 0.4838383
v 0.3204439 0.2185161 0.4838383
v 0.3204439 0.2185161 0.4838383
v 0.3320032 0.2185161 0.4838383
v 0.3320032 0.2185161 0.4838383
v 0.3320032 0.2069549 0.4838383
v 0.3320032 0.2069549 0.4838383
v 0.3204439 0.2092818 0.4998071
v 0.3204439 0.2092818 0.4998071
v 0.3204439 0.2199630 0.4953825
v 0.3204439 0.2199630 0.4953825
v 0.3204439 0.2199630 0.4953825
v 0.3320032 0.2199630 0.4953825
v 0.3320032 0.2199630 0.4953825
v 0.3320032 0.2199630 0.4953825
v 0.3320032 0.2092818 0.4998071
v 0.3320032 0.2092818 0.4998071
v 0.3204439 0.2169563 0.5083897
v 0.3204439 0.2169563 0.5083897
v 0.3204439 0.2169563 0.5083897
v 0.3204439 0.2239943 0.4992177
v 0.3204439 0.2239943 0.4992177
v 0.3320032 0.2239943 0.4992177
v 0.3320032 0.2239943 0.4992177
v 0.3320032 0.2169563 0.5083897
v 0.3320032 0.2169563 0.5083897
v 0.3320032 0.2169563 0.5083897
v 0.3204439 0.2278940 0.5119853
v 0.3204439 0.2278940 0.5119853
v 0.3204439 0.2294031 0.5005229
v 0.3204439 0.2294031 0.5005229
v 0.3320032 0.2294031 0.5005229
v 0.3320032 0.2294031 0.5005229
v 0.3320032 0.2278940 0.5119853
v 0.3320032 0.2278940 0.5119853
v 0.3204439 0.4860643 0.4838383
v 0.3204439 0.4860643 0.4838383
v 0.3204439 0.4745031 0.4838383
v 0.3204439 0.4745031 0.4838383
v 0.3320032 0.4745031 0.4838383
v 0.3320032 0.4745031 0.4838383
v 0.3320032 0.4860643 0.4838383
v 0.3320032 0.4860643 0.4838383
v 0.3204439 0.4837374 0.4998071
v 0.3204439 0.4837374 0.4998071
v 0.3204439 0.4730562 0.4953825
v 0.3204439 0.4730562 0.4953825
v 0.3204439 0.4730562 0.4953825
v 0.3320032 0.4730562 0.4953825
v 0.3320032 0.4730562 0.4953825
v 0.3320032 0.4730562 0.4953825
v 0.3320032 0.4837374 0.4998071
v 0.3320032 0.4837374 0.4998071
v 0.3204439 0.4760629 0.5083897
v 0.3204439 0.4760629 0.5083897
v 0.3204439 0.4760629 0.5083897
v 0.3204439 0.4690249 0.4992177
v 0.3204439 0.4690249 0.4992177
v 0.3320032 0.4690249 0.4992177
v 0.3320032 0.4690249 0.4992177
v 0.3320032 0.4760629 0.5083897
v 0.3320032 0.4760629 0.5083897
v 0.3320032 0.4760629 0.5083897
v 0.3204439 0.4651252 0.5119853
v 0.3204439 0.4651252 0.5119853
v 0.3204439 0.4636162 0.5005229
v 0.3204439 0.4636162 0.5005229
v 0.3320032 0.4636162 0.5005229
v 0.3320032 0.4636162 0.5005229
v 0.3320032 0.4651252 0.5119853
v 0.3320032 0.4651252 0.5119853
v 0.2492741 0.2069549 0.4838383
v 0.2492741 0.2069549 0.4838383
v 0.2492741 0.2185161 0.4838383
v 0.2492741 0.2185161 0.4838383
v 0.2608335 0.2185161 0.4838383
v 0.2608335 0.2185161 0.4838383
v 0.2608335 0.2069549 0.4838383
v 0.2608335 0.2069549 0.4838383
v 0.2492741 0.2092818 0.4998071
v 0.2492741 0.2092818 0.4998071
v 0.2492741 0.2199630 0.4953825
v 0.2492741 0.2199630 0.4953825
v 0.2492741 0.2199630 0.4953825
v 0.2608335 0.2199630 0.4953825
v 0.2608335 0.2199630 0.4953825
v 0.2608335 0.2199630 0.4953825
v 0.2608335 0.2092818 0.4998071
v 0.2608335 0.2092818 0.4998071
v 0.2492741 0.2169563 0.5083897
v 0.2492741 0.2169563 0.5083897
v 0.2492741 0.2169563 0.5083897
v 0.2492741 0.2239943 0.4992177
v 0.2492741 0.2239943 0.4992177
v 0.2608335 0.2239943 0.4992177
v 0.2608335 0.2239943 0.4992177
v 0.2608335 0.2169563 0.5083897
v 0.2608335 0.2169563 0.5083897
v 0.2608335 0.2169563 0.5083897
v 0.2492741 0.2278940 0.5119853
v 0.2492741 0.2278940 0.5119853
v 0.2492741 0.2294031 0.5005229
v 0.2492741 0.2294031 0.5005229
v 0.2608335 0.2294031 0.5005229
v 0.2608335 0.2294031 0.5005229
v 0.2608335 0.2278940 0.5119853
v 0.2608335 0.2278940 0.5119853
v 0.2492741 0.4860643 0.4838383
v 0.2492741 0.4860643 0.4838383
v 0.2492741 0.4745031 0.4838383
v 0.2492741 0.4745031 0.4838383
v 0.2608335 0.4745031 0.4838383
v 0.2608335 0.4745031 0.4838383
v 0.2608335 0.4860643 0.4838383
v 0.2608335 0.4860643 0.4838383
v 0.2492741 0.4837374 0.4998071
v 0.2492741 0.4837374 0.4998071
v 0.2492741 0.4730562 0.4953825
v 0.2492741 0.4730562 0.4953825
v 0.2492741 0.4730562 0.4953825
v 0.2608335 0.4730562 0.4953825
v 0.2608335 0.4730562 0.4953825
v 0.2608335 0.4730562 0.4953825
v 0.2608335 0.4837374 0.4998071
v 0.2608335 0.4837374 0.4998071
v 0.2492741 0.4760629 0.5083897
v 0.2492741 0.4760629 0.5083897
v 0.2492741 0.4760629 0.5083897
v 0.2492741 0.4690249 0.4992177
v 0.2492741 0.4690249 0.4992177
v 0.2608335 0.4690249 0.4992177
v 0.2608335 0.4690249 0.4992177
v 0.2608335 0.4760629 0.5083897
v 0.2608335 0.4760629 0.5083897
v 0.2608335 0.4760629 0.5083897
v 0.2492741 0.4651252 0.5119853
v 0.2492741 0.4651252 0.5119853
v 0.2492741 0.4636162 0.5005229
v 0.2492741 0.4636162 0.5005229
v 0.2608335 0.4636162 0.5005229
v 0.2608335 0.4636162 0.5005229
v 0.2608335 0.4651252 0.5119853
v 0.2608335 0.4651252 0.5119853
vt 0.4492736 0.9672805
vt 0.5401847 0.9397591
vt 0.4492736 0.9605695
vt 0.5393579 0.9566904
vt 0.4486854 0.9605695
vt 0.5393579 0.9499805
vt 0.4486854 0.9672805
vt 0.5468947 0.9397591
vt 0.4585432 0.9659298
vt 0.5401847 0.9304765
vt 0.4559748 0.9597296
vt 0.4802089 0.9521787
vt 0.5460503 0.9566904
vt 0.4419842 0.9597296
vt 0.4734989 0.9521787
vt 0.5460503 0.9499805
vt 0.4394159 0.9659298
vt 0.5468947 0.9304765
vt 0.4635252 0.9614750
vt 0.4662007 0.9556693
vt 0.5401847 0.9254501
vt 0.4582011 0.9573895
vt 0.4802089 0.9498386
vt 0.4397579 0.9573895
vt 0.4734989 0.9498386
vt 0.4344338 0.9614750
vt 0.4729107 0.9556693
vt 0.5468947 0.9254501
vt 0.4656125 0.9551258
vt 0.4662007 0.9493202
vt 0.4589587 0.9542498
vt 0.4802089 0.9466989
vt 0.4390004 0.9542498
vt 0.4734989 0.9466989
vt 0.4323466 0.9551258
vt 0.4729107 0.9493202
vt 0.4492736 0.8052628
vt 0.5283066 0.9364341
vt 0.4492736 0.8119739
vt 0.5268217 0.9538497
vt 0.4486854 0.8119739
vt 0.5268217 0.9471397
vt 0.4486854 0.8052628
vt 0.5350165 0.9364341
vt 0.4585432 0.8066135
vt 0.5283066 0.9457168
vt 0.4559748 0.8128137
vt 0.4802089 0.8052628
vt 0.5201292 0.9538497
vt 0.4419842 0.8128137
vt 0.4734989 0.8052628
vt 0.5201292 0.9471397
vt 0.4394159 0.8066135
vt 0.5350165 0.9457168
vt 0.4635252 0.8110684
vt 0.4662007 0.8052628
vt 0.5283066 0.9507431
vt 0.4582011 0.8151538
vt 0.4802089 0.8076029
vt 0.4397579 0.8151538
vt 0.4734989 0.8076029
vt 0.4344338 0.8110684
vt 0.4729107 0.8052628
vt 0.5350165 0.9507431
vt 0.4656125 0.8174175
vt 0.4662007 0.8116119
vt 0.4589587 0.8182935
vt 0.4802089 0.8107426
vt 0.4390004 0.8182935
vt 0.4734989 0.8107426
vt 0.4323466 0.8174175
vt 0.4729107 0.8116119
vt 0.4492736 0.9672805
vt 0.5401847 0.9397591
vt 0.4492736 0.9605695
vt 0.5393579 0.9566904
vt 0.4486854 0.9605695
vt 0.5393579 0.9499805
vt 0.4486854 0.9672805
vt 0.5468947 0.9397591
vt 0.4585432 0.9659298
vt 0.5401847 0.9304765
vt 0.4559748 0.9597296
vt 0.4802089 0.9521787
vt 0.5460503 0.9566904
vt 0.4419842 0.9597296
vt 0.4734989 0.9521787
vt 0.5460503 0.9499805
vt 0.4394159 0.9659298
vt 0.5468947 0.9304765
vt 0.4635252 0.9614750
vt 0.4662007 0.9556693
vt 0.5401847 0.9254501
vt 0.4582011 0.9573895
vt 0.4802089 0.9498386
vt 0.4397579 0.9573895
vt 0.4734989 0.9498386
vt 0.4344338 0.9614750
vt 0.4729107 0.9556693
vt 0.5468947 0.9254501
vt 0.4656125 0.9551258
vt 0.4662007 0.9493202
vt 0.4589587 0.9542498
vt 0.4802089 0.9466989
vt 0.4390004 0.9542498
vt 0.4734989 0.9466989
vt 0.4323466 0.9551258
vt 0.4729107 0.9493202
vt 0.4492736 0.8052628
vt 0.5283066 0.9364341
vt 0.4492736 0.8119739
vt 0.5268217 0.9538497
vt 0.4486854 0.8119739
vt 0.5268217 0.9471397
vt 0.4486854 0.8052628
vt 0.5350165 0.9364341
vt 0.4585432 0.8066135
vt 0.5283066 0.9457168
vt 0.4559748 0.8128137
vt 0.4802089 0.8052628
vt 0.5201292 0.9538497
vt 0.4419842 0.8128137
vt 0.4734989 0.8052628
vt 0.5201292 0.9471397
vt 0.4394159 0.8066135
vt 0.5350165 0.9457168
vt 0.4635252 0.8110684
vt 0.4662007 0.8052628
vt 0.5283066 0.9507431
vt 0.4582011 0.8151538
vt 0.4802089 0.8076029
vt 0.4397579 0.8151538
vt 0.4734989 0.8076029
vt 0.4344338 0.8110684
vt 0.4729107 0.8052628
vt 0.5350165 0.9507431
vt 0.4656125 0.8174175
vt 0.4662007 0.8116119
vt 0.4589587 0.8182935
vt 0.4802089 0.8107426
vt 0.4390004 0.8182935
vt 0.4734989 0.8107426
vt 0.4323466 0.8174175
vt 0.4729107 0.8116119
vt 0.4492736 0.9672805
vt 0.5401847 0.9397591
vt 0.4492736 0.9605695
vt 0.5393579 0.9566904
vt 0.4486854 0.9605695
vt 0.5393579 0.9499805
vt 0.4486854 0.9672805
vt 0.5468947 0.9397591
vt 0.4585432 0.9659298
vt 0.5401847 0.9304765
vt 0.4559748 0.9597296
vt 0.4802089 0.9521787
vt 0.5460503 0.9566904
vt 0.4419842 0.9597296
vt 0.4734989 0.9521787
vt 0.5460503 0.9499805
vt 0.4394159 0.9659298
vt 0.5468947 0.9304765
vt 0.4635252 0.9614750
vt 0.4662007 0.9556693
vt 0.5401847 0.9254501
vt 0.4582011 0.9573895
vt 0.4802089 0.9498386
vt 0.4397579 0.9573895
vt 0.4734989 0.9498386
vt 0.4344338 0.9614750
vt 0.4729107 0.9556693
vt 0.5468947 0.9254501
vt 0.4656125 0.9551258
vt 0.4662007 0.9493202
vt 0.4589587 0.9542498
vt 0.4802089 0.9466989
vt 0.4390004 0.9542498
vt 0.4734989 0.9466989
vt 0.4323466 0.9551258
vt 0.4729107 0.9493202
vt 0.4492736 0.8052628
vt 0.5283066 0.9364341
vt 0.4492736 0.8119739
vt 0.5268217 0.9538497
vt 0.4486854 0.8119739
vt 0.5268217 0.9471397
vt 0.4486854 0.8052628
vt 0.5350165 0.9364341
vt 0.4585432 0.8066135
vt 0.5283066 0.9457168
vt 0.4559748 0.8128137
vt 0.4802089 0.8052628
vt 0.5201292 0.9538497
vt 0.4419842 0.8128137
vt 0.4734989 0.8052628
vt 0.5201292 0.9471397
vt 0.4394159 0.8066135
vt 0.5350165 0.9457168
vt 0.4635252 0.8110684
vt 0.4662007 0.8052628
vt 0.5283066 0.9507431
vt 0.4582011 0.8151538
vt 0.4802089 0.8076029
vt 0.4397579 0.8151538
vt 0.4734989 0.8076029
vt 0.4344338 0.8110684
vt 0.4729107 0.8052628
vt 0.5350165 0.9507431
vt 0.4656125 0.8174175
vt 0.4662007 0.8116119
vt 0.4589587 0.8182935
vt 0.4802089 0.8107426
vt 0.4390004 0.8182935
vt 0.4734989 0.8107426
vt 0.4323466 0.8174175
vt 0.4729107 0.8116119
vt 0.4492736 0.9672805
vt 0.5401847 0.9397591
vt 0.4492736 0.9605695
vt 0.5393579 0.9566904
vt 0.4486854 0.9605695
vt 0.5393579 0.9499805
vt 0.4486854 0.9672805
vt 0.5468947 0.9397591
vt 0.4585432 0.9659298
vt 0.5401847 0.9304765
vt 0.4559748 0.9597296
vt 0.4802089 0.9521787
vt 0.5460503 0.9566904
vt 0.4419842 0.9597296
vt 0.4734989 0.9521787
vt 0.5460503 0.9499805
vt 0.4394159 0.9659298
vt 0.5468947 0.9304765
vt 0.4635252 0.9614750
vt 0.4662007 0.9556693
vt 0.5401847 0.9254501
vt 0.4582011 0.9573895
vt 0.4802089 0.9498386
vt 0.4397579 0.9573895
vt 0.4734989 0.9498386
vt 0.4344338 0.9614750
vt 0.4729107 0.9556693
vt 0.5468947 0.9254501
vt 0.4656125 0.9551258
vt 0.4662007 0.9493202
vt 0.4589587 0.9542498
vt 0.4802089 0.9466989
vt 0.4390004 0.9542498
vt 0.4734989 0.9466989
vt 0.4323466 0.9551258
vt 0.4729107 0.9493202
vt 0.4492736 0.8052628
vt 0.5283066 0.9364341
vt 0.4492736 0.8119739
vt 0.5268217 0.9538497
vt 0.4486854 0.8119739
vt 0.5268217 0.9471397
vt 0.4486854 0.8052628
vt 0.5350165 0.9364341
vt 0.4585432 0.8066135
vt 0.5283066 0.9457168
vt 0.4559748 0.8128137
vt 0.4802089 0.8052628
vt 0.5201292 0.9538497
vt 0.4419842 0.8128137
vt 0.4734989 0.8052628
vt 0.5201292 0.9471397
vt 0.4394159 0.8066135
vt 0.5350165 0.9457168
vt 0.4635252 0.8110684
vt 0.4662007 0.8052628
vt 0.5283066 0.9507431
vt 0.4582011 0.8151538
vt 0.4802089 0.8076029
vt 0.4397579 0.8151538
vt 0.4734989 0.8076029
vt 0.4344338 0.8110684
vt 0.4729107 0.8052628
vt 0.5350165 0.9507431
vt 0.4656125 0.8174175
vt 0.4662007 0.8116119
vt 0.4589587 0.8182935
vt 0.4802089 0.8107426
vt 0.4390004 0.8182935
vt 0.4734989 0.8107426
vt 0.4323466 0.8174175
vt 0.4729107 0.8116119
vt 0.4492736 0.9672805
vt 0.5401847 0.9397591
vt 0.4492736 0.9605695
vt 0.5393579 0.9566904
vt 0.4486854 0.9605695
vt 0.5393579 0.9499805
vt 0.4486854 0.9672805
vt 0.5468947 0.9397591
vt 0.4585432 0.9659298
vt 0.5401847 0.9304765
vt 0.4559748 0.9597296
vt 0.4802089 0.9521787
vt 0.5460503 0.9566904
vt 0.4419842 0.9597296
vt 0.4734989 0.9521787
vt 0.5460503 0.9499805
vt 0.4394159 0.9659298
vt 0.5468947 0.9304765
vt 0.4635252 0.9614750
vt 0.4662007 0.9556693
vt 0.5401847 0.9254501
vt 0.4582011 0.9573895
vt 0.4802089 0.9498386
vt 0.4397579 0.9573895
vt 0.4734989 0.9498386
vt 0.4344338 0.9614750
vt 0.4729107 0.9556693
vt 0.5468947 0.9254501
vt 0.4656125 0.9551258
vt 0.4662007 0.9493202
vt 0.4589587 0.9542498
vt 0.4802089 0.9466989
vt 0.4390004 0.9542498
vt 0.4734989 0.9466989
vt 0.4323466 0.9551258
vt 0.4729107 0.9493202
vt 0.4492736 0.8052628
vt 0.5283066 0.9364341
vt 0.4492736 0.8119739
vt 0.5268217 0.9538497
vt 0.4486854 0.8119739
vt 0.5268217 0.9471397
vt 0.4486854 0.8052628
vt 0.5350165 0.9364341
vt 0.4585432 0.8066135
vt 0.5283066 0.9457168
vt 0.4559748 0.8128137
vt 0.4802089 0.8052628
vt 0.5201292 0.9538497
vt 0.4419842 0.8128137
vt 0.4734989 0.8052628
vt 0.5201292 0.9471397
vt 0.4394159 0.8066135
vt 0.5350165 0.9457168
vt 0.4635252 0.8110684
vt 0.4662007 0.8052628
vt 0.5283066 0.9507431
vt 0.4582011 0.8151538
vt 0.4802089 0.8076029
vt 0.4397579 0.8151538
vt 0.4734989 0.8076029
vt 0.4344338 0.8110684
vt 0.4729107 0.8052628
vt 0.5350165 0.9507431
vt 0.4656125 0.8174175
vt 0.4662007 0.8116119
vt 0.4589587 0.8182935
vt 0.4802089 0.8107426
vt 0.4390004 0.8182935
vt 0.4734989 0.8107426
vt 0.4323466 0.8174175
vt 0.4729107 0.8116119
vt 0.4492736 0.9672805
vt 0.5401847 0.9397591
vt 0.4492736 0.9605695
vt 0.5393579 0.9566904
vt 0.4486854 0.9605695
vt 0.5393579 0.9499805
vt 0.4486854 0.9672805
vt 0.5468947 0.9397591
vt 0.4585432 0.9659298
vt 0.5401847 0.9304765
vt 0.4559748 0.9597296
vt 0.4802089 0.9521787
vt 0.5460503 0.9566904
vt 0.4419842 0.9597296
vt 0.4734989 0.9521787
vt 0.5460503 0.9499805
vt 0.4394159 0.9659298
vt 0.5468947 0.9304765
vt 0.4635252 0.9614750
vt 0.4662007 0.9556693
vt 0.5401847 0.9254501
vt 0.4582011 0.9573895
vt 0.4802089 0.9498386
vt 0.4397579 0.9573895
vt 0.4734989 0.9498386
vt 0.4344338 0.9614750
vt 0.4729107 0.9556693
vt 0.5468947 0.9254501
vt 0.4656125 0.9551258
vt 0.4662007 0.9493202
vt 0.4589587 0.9542498
vt 0.4802089 0.9466989
vt 0.4390004 0.9542498
vt 0.4734989 0.9466989
vt 0.4323466 0.9551258
vt 0.4729107 0.9493202
vt 0.4492736 0.8052628
vt 0.5283066 0.9364341
vt 0.4492736 0.8119739
vt 0.5268217 0.9538497
vt 0.4486854 0.8119739
vt 0.5268217 0.9471397
vt 0.4486854 0.8052628
vt 0.5350165 0.9364341
vt 0.4585432 0.8066135
vt 0.5283066 0.9457168
vt 0.4559748 0.8128137
vt 0.4802089 0.8052628
vt 0.5201292 0.9538497
vt 0.4419842 0.8128137
vt 0.4734989 0.8052628
vt 0.5201292 0.9471397
vt 0.4394159 0.8066135
vt 0.5350165 0.9457168
vt 0.4635252 0.8110684
vt 0.4662007 0.8052628
vt 0.5283066 0.9507431
vt 0.4582011 0.8151538
vt 0.4802089 0.8076029
vt 0.4397579 0.8151538
vt 0.4734989 0.8076029
vt 0.4344338 0.8110684
vt 0.4729107 0.8052628
vt 0.5350165 0.9507431
vt 0.4656125 0.8174175
vt 0.4662007 0.8116119
vt 0.4589587 0.8182935
vt 0.4802089 0.8107426
vt 0.4390004 0.8182935
vt 0.4734989 0.8107426
vt 0.4323466 0.8174175
vt 0.4729107 0.8116119
vt 0.4492736 0.9672805
vt 0.5401847 0.9397591
vt 0.4492736 0.9605695
vt 0.5393579 0.9566904
vt 0.4486854 0.9605695
vt 0.5393579 0.9499805
vt 0.4486854 0.9672805
vt 0.5468947 0.9397591
vt 0.4585432 0.9659298
vt 0.5401847 0.9304765
vt 0.4559748 0.9597296
vt 0.4802089 0.9521787
vt 0.5460503 0.9566904
vt 0.4419842 0.9597296
vt 0.4734989 0.9521787
vt 0.5460503 0.9499805
vt 0.4394159 0.9659298
vt 0.5468947 0.9304765
vt 0.4635252 0.9614750
vt 0.4662007 0.9556693
vt 0.5401847 0.9254501
vt 0.4582011 0.9573895
vt 0.4802089 0.9498386
vt 0.4397579 0.9573895
vt 0.4734989 0.9498386
vt 0.4344338 0.9614750
vt 0.4729107 0.9556693
vt 0.5468947 0.9254501
vt 0.4656125 0.9551258
vt 0.4662007 0.9493202
vt 0.4589587 0.9542498
vt 0.4802089 0.9466989
vt 0.4390004 0.9542498
vt 0.4734989 0.9466989
vt 0.4323466 0.9551258
vt 0.4729107 0.9493202
vt 0.4492736 0.8052628
vt 0.5283066 0.9364341
vt 0.4492736 0.8119739
vt 0.5268217 0.9538497
vt 0.4486854 0.8119739
vt 0.5268217 0.9471397
vt 0.4486854 0.8052628
vt 0.5350165 0.9364341
vt 0.4585432 0.8066135
vt 0.5283066 0.9457168
vt 0.4559748 0.8128137
vt 0.4802089 0.8052628
vt 0.5201292 0.9538497
vt 0.4419842 0.8128137
vt 0.4734989 0.8052628
vt 0.5201292 0.9471397
vt 0.4394159 0.8066135
vt 0.5350165 0.9457168
vt 0.4635252 0.8110684
vt 0.4662007 0.8052628
vt 0.5283066 0.9507431
vt 0.4582011 0.8151538
vt 0.4802089 0.8076029
vt 0.4397579 0.8151538
vt 0.4734989 0.8076029
vt 0.4344338 0.8110684
vt 0.4729107 0.8052628
vt 0.5350165 0.9507431
vt 0.4656125 0.8174175
vt 0.4662007 0.8116119
vt 0.4589587 0.8182935
vt 0.4802089 0.8107426
vt 0.4390004 0.8182935
vt 0.4734989 0.8107426
vt 0.4323466 0.8174175
vt 0.4729107 0.8116119
vt 0.4492736 0.9672805
vt 0.5401847 0.9397591
vt 0.4492736 0.9605695
vt 0.5393579 0.9566904
vt 0.4486854 0.9605695
vt 0.5393579 0.9499805
vt 0.4486854 0.9672805
vt 0.5468947 0.9397591
vt 0.4585432 0.9659298
vt 0.5401847 0.9304765
vt 0.4559748 0.9597296
vt 0.4802089 0.9521787
vt 0.5460503 0.9566904
vt 0.4419842 0.9597296
vt 0.4734989 0.9521787
vt 0.5460503 0.9499805
vt 0.4394159 0.9659298
vt 0.5468947 0.9304765
vt 0.4635252 0.9614750
vt 0.4662007 0.9556693
vt 0.5401847 0.9254501
vt 0.4582011 0.9573895
vt 0.4802089 0.9498386
vt 0.4397579 0.9573895
vt 0.4734989 0.9498386
vt 0.4344338 0.9614750
vt 0.4729107 0.9556693
vt 0.5468947 0.9254501
vt 0.4656125 0.9551258
vt 0.4662007 0.9493202
vt 0.4589587 0.9542498
vt 0.4802089 0.9466989
vt 0.4390004 0.9542498
vt 0.4734989 0.9466989
vt 0.4323466 0.9551258
vt 0.4729107 0.9493202
vt 0.4492736 0.8052628
vt 0.5283066 0.9364341
vt 0.4492736 0.8119739
vt 0.5268217 0.9538497
vt 0.4486854 0.8119739
vt 0.5268217 0.9471397
vt 0.4486854 0.8052628
vt 0.5350165 0.9364341
vt 0.4585432 0.8066135
vt 0.5283066 0.9457168
vt 0.4559748 0.8128137
vt 0.4802089 0.8052628
vt 0.5201292 0.9538497
vt 0.4419842 0.8128137
vt 0.4734989 0.8052628
vt 0.5201292 0.9471397
vt 0.4394159 0.8066135
vt 0.5350165 0.9457168
vt 0.4635252 0.8110684
vt 0.4662007 0.8052628
vt 0.5283066 0.9507431
vt 0.4582011 0.8151538
vt 0.4802089 0.8076029
vt 0.4397579 0.8151538
vt 0.4734989 0.8076029
vt 0.4344338 0.8110684
vt 0.4729107 0.8052628
vt 0.5350165 0.9507431
vt 0.4656125 0.8174175
vt 0.4662007 0.8116119
vt 0.4589587 0.8182935
vt 0.4802089 0.8107426
vt 0.4390004 0.8182935
vt 0.4734989 0.8107426
vt 0.4323466 0.8174175
vt 0.4729107 0.8116119
f 79/79 89/89 86/86
f 79/79 86/86 77/77
f 74/74 82/82 90/90
f 74/74 90/90 80/80
f 83/83 94/94 91/91
f 83/83 91/91 81/81
f 78/78 88/88 85/85
f 78/78 85/85 76/76
f 82/82 93/93 100/100
f 82/82 100/100 90/90
f 94/94 103/103 101/101
f 94/94 101/101 91/91
f 87/87 97/97 95/95
f 87/87 95/95 84/84
f 89/89 98/98 96/96
f 89/89 96/96 86/86
f 92/92 102/102 108/108
f 92/92 108/108 99/99
f 98/98 107/107 105/105
f 98/98 105/105 96/96
f 97/97 106/106 104/104
f 97/97 104/104 95/95
f 138/138 144/144 108/108
f 138/138 108/108 102/102
f 142/142 140/140 104/104
f 142/142 104/104 106/106
f 75/75 83/83 81/81
f 75/75 81/81 73/73
f 143/143 141/141 105/105
f 143/143 105/105 107/107
f 115/115 113/113 122/122
f 115/115 122/122 125/125
f 110/110 116/116 126/126
f 110/110 126/126 118/118
f 119/119 117/117 127/127
f 119/119 127/127 130/130
f 114/114 112/112 121/121
f 114/114 121/121 124/124
f 118/118 126/126 136/136
f 118/118 136/136 129/129
f 130/130 127/127 137/137
f 130/130 137/137 139/139
f 123/123 120/120 131/131
f 123/123 131/131 133/133
f 125/125 122/122 132/132
f 125/125 132/132 134/134
f 128/128 135/135 144/144
f 128/128 144/144 138/138
f 134/134 132/132 141/141
f 134/134 141/141 143/143
f 133/133 131/131 140/140
f 133/133 140/140 142/142
f 111/111 109/109 117/117
f 111/111 117/117 119/119
f 137/137 101/101 103/103
f 137/137 103/103 139/139
f 151/151 161/161 158/158
f 151/151 158/158 149/149
f 146/146 154/154 162/162
f 146/146 162/162 152/152
f 155/155 166/166 163/163
f 155/155 163/163 153/153
f 150/150 160/160 157/157
f 150/150 157/157 148/148
f 154/154 165/165 172/172
f 154/154 172/172 162/162
f 166/166 175/175 173/173
f 166/166 173/173 163/163
f 159/159 169/169 167/167
f 159/159 167/167 156/156
f 161/161 170/170 168/168
f 161/161 168/168 158/158
f 164/164 174/174 180/180
f 164/164 180/180 171/171
f 170/170 179/179 177/177
f 170/170 177/177 168/168
f 169/169 178/178 176/176
f 169/169 176/176 167/167
f 210/210 216/216 180/180
f 210/210 180/180 174/174
f 214/214 212/212 176/176
f 214/214 176/176 178/178
f 147/147 155/155 153/153
f 147/147 153/153 145/145
f 215/215 213/213 177/177
f 215/215 177/177 179/179
f 187/187 185/185 194/194
f 187/187 194/194 197/197
f 182/182 188/188 198/198
f 182/182 198/198 190/190
f 191/191 189/189 199/199
f 191/191 199/199 202/202
f 186/186 184/184 193/193
f 186/186 193/193 196/196
f 190/190 198/198 208/208
f 190/190 208/208 201/201
f 202/202 199/199 209/209
f 202/202 209/209 211/211
f 195/195 192/192 203/203
f 195/195 203/203 205/205
f 197/197 194/194 204/204
f 197/197 204/204 206/206
f 200/200 207/207 216/216
f 200/200 216/216 210/210
f 206/206 204/204 213/213
f 206/206 213/213 215/215
f 205/205 203/203 212/212
f 205/205 212/212 214/214
f 183/183 181/181 189/189
f 183/183 189/189 191/191
f 209/209 173/173 175/175
f 209/209 175/175 211/211
f 223/223 233/233 230/230
f 223/223 230/230 221/221
f 218/218 226/226 234/234
f 218/218 234/234 224/224
f 227/227 238/238 235/235
f 227/227 235/235 225/225
f 222/222 232/232 229/229
f 222/222 229/229 220/220
f 226/226 237/237 244/244
f 226/226 244/244 234/234
f 238/238 247/247 245/245
f 238/238 245/245 235/235
f 231/231 241/241 239/239
f 231/231 239/239 228/228
f 233/233 242/242 240/240
f 233/233 240/240 230/230
f 236/236 246/246 252/252
f 236/236 252/252 243/243
f 242/242 251/251 249/249
f 242/242 249/249 240/240
f 241/241 250/250 248/248
f 241/241 248/248 239/239
f 282/282 288/288 252/252
f 282/282 252/252 246/246
f 286/286 284/284 248/248
f 286/286 248/248 250/250
f 219/219 227/227 225/225
f 219/219 225/225 217/217
f 287/287 285/285 249/249
f 287/287 249/249 251/251
f 259/259 257/257 266/266
f 259/259 266/266 269/269
f 254/254 260/260 270/270
f 254/254 270/270 262/262
f 263/263 261/261 271/271
f 263/263 271/271 274/274
f 258/258 256/256 265/265
f 258/258 265/265 268/268
f 262/262 270/270 280/280
f 262/262 280/280 273/273
f 274/274 271/271 281/281
f 274/274 281/281 283/283
f 267/267 264/264 275/275
f 267/267 275/275 277/277
f 269/269 266/266 276/276
f 269/269 276/276 278/278
f 272/272 279/279 288/288
f 272/272 288/288 282/282
f 278/278 276/276 285/285
f 278/278 285/285 287/287
f 277/277 275/275 284/284
f 277/277 284/284 286/286
f 255/255 253/253 261/261
f 255/255 261/261 263/263
f 281/281 245/245 247/247
f 281/281 247/247 283/283
f 295/295 305/305 302/302
f 295/295 302/302 293/293
f 290/290 298/298 306/306
f 290/290 306/306 296/296
f 299/299 310/310 307/307
f 299/299 307/307 297/297
f 294/294 304/304 301/301
f 294/294 301/301 292/292
f 298/298 309/309 316/316
f 298/298 316/316 306/306
f 310/310 319/319 317/317
f 310/310 317/317 307/307
f 303/303 313/313 311/311
f 303/303 311/311 300/300
f 305/305 314/314 312/312
f 305/305 312/312 302/302
f 308/308 318/318 324/324
f 308/308 324/324 315/315
f 314/314 323/323 321/321
f 314/314 321/321 312/312
f 313/313 322/322 320/320
f 313/313 320/320 311/311
f 354/354 360/360 324/324
f 354/354 324/324 318/318
f 358/358 356/356 320/320
f 358/358 320/320 322/322
f 291/291 299/299 297/297
f 291/291 297/297 289/289
f 359/359 357/357 321/321
f 359/359 321/321 323/323
f 331/331 329/329 338/338
f 331/331 338/338 341/341
f 326/326 332/332 342/342
f 326/326 342/342 334/334
f 335/335 333/333 343/343
f 335/335 343/343 346/346
f 330/330 328/328 337/337
f 330/330 337/337 340/340
f 334/334 342/342 352/352
f 334/334 352/352 345/345
f 346/346 343/343 353/353
f 346/346 353/353 355/355
f 339/339 336/336 347/347
f 339/339 347/347 349/349
f 341/341 338/338 348/348
f 341/341 348/348 350/350
f 344/344 351/351 360/360
f 344/344 360/360 354/354
f 350/350 348/348 357/357
f 350/350 357/357 359/359
f 349/349 347/347 356/356
f 349/349 356/356 358/358
f 327/327 325/325 333/333
f 327/327 333/333 335/335
f 353/353 317/317 319/319
f 353/353 319/319 355/355
f 367/367 365/365 374/374
f 367/367 374/374 377/377
f 362/362 368/368 378/378
f 362/362 378/378 370/370
f 371/371 369/369 379/379
f 371/371 379/379 382/382
f 366/366 364/364 373/373
f 366/366 373/373 376/376
f 370/370 378/378 388/388
f 370/370 388/388 381/381
f 382/382 379/379 389/389
f 382/382 389/389 391/391
f 375/375 372/372 383/383
f 375/375 383/383 385/385
f 377/377 374/374 384/384
f 377/377 384/384 386/386
f 380/380 387/387 396/396
f 380/380 396/396 390/390
f 386/386 384/384 393/393
f 386/386 393/393 395/395
f 385/385 383/383 392/392
f 385/385 392/392 394/394
f 426/426 390/390 396/396
f 426/426 396/396 432/432
f 430/430 394/394 392/392
f 430/430 392/392 428/428
f 363/363 361/361 369/369
f 363/363 369/369 371/371
f 431/431 395/395 393/393
f 431/431 393/393 429/429
f 403/403 413/413 410/410
f 403/403 410/410 401/401
f 398/398 406/406 414/414
f 398/398 414/414 404/404
f 407/407 418/418 415/415
f 407/407 415/415 405/405
f 402/402 412/412 409/409
f 402/402 409/409 400/400
f 406/406 417/417 424/424
f 406/406 424/424 414/414
f 418/418 427/427 425/425
f 418/418 425/425 415/415
f 411/411 421/421 419/419
f 411/411 419/419 408/408
f 413/413 422/422 420/420
f 413/413 420/420 410/410
f 416/416 426/426 432/432
f 416/416 432/432 423/423
f 422/422 431/431 429/429
f 422/422 429/429 420/420
f 421/421 430/430 428/428
f 421/421 428/428 419/419
f 399/399 407/407 405/405
f 399/399 405/405 397/397
f 425/425 427/427 391/391
f 425/425 391/391 389/389
f 439/439 437/437 446/446
f 439/439 446/446 449/449
f 434/434 440/440 450/450
f 434/434 450/450 442/442
f 443/443 441/441 451/451
f 443/443 451/451 454/454
f 438/438 436/436 445/445
f 438/438 445/445 448/448
f 442/442 450/450 460/460
f 442/442 460/460 453/453
f 454/454 451/451 461/461
f 454/454 461/461 463/463
f 447/447 444/444 455/455
f 447/447 455/455 457/457
f 449/449 446/446 456/456
f 449/449 456/456 458/458
f 452/452 459/459 468/468
f 452/452 468/468 462/462
f 458/458 456/456 465/465
f 458/458 465/465 467/467
f 457/457 455/455 464/464
f 457/457 464/464 466/466
f 498/498 462/462 468/468
f 498/498 468/468 504/504
f 502/502 466/466 464/464
f 502/502 464/464 500/500
f 435/435 433/433 441/441
f 435/435 441/441 443/443
f 503/503 467/467 465/465
f 503/503 465/465 501/501
f 475/475 485/485 482/482
f 475/475 482/482 473/473
f 470/470 478/478 486/486
f 470/470 486/486 476/476
f 479/479 490/490 487/487
f 479/479 487/487 477/477
f 474/474 484/484 481/481
f 474/474 481/481 472/472
f 478/478 489/489 496/496
f 478/478 496/496 486/486
f 490/490 499/499 497/497
f 490/490 497/497 487/487
f 483/483 493/493 491/491
f 483/483 491/491 480/480
f 485/485 494/494 492/492
f 485/485 492/492 482/482
f 488/488 498/498 504/504
f 488/488 504/504 495/495
f 494/494 503/503 501/501
f 494/494 501/501 492/492
f 493/493 502/502 500/500
f 493/493 500/500 491/491
f 471/471 479/479 477/477
f 471/471 477/477 469/469
f 497/497 499/499 463/463
f 497/497 463/463 461/461
f 511/511 509/509 518/518
f 511/511 518/518 521/521
f 506/506 512/512 522/522
f 506/506 522/522 514/514
f 515/515 513/513 523/523
f 515/515 523/523 526/526
f 510/510 508/508 517/517
f 510/510 517/517 520/520
f 514/514 522/522 532/532
f 514/514 532/532 525/525
f 526/526 523/523 533/533
f 526/526 533/533 535/535
f 519/519 516/516 527/527
f 519/519 527/527 529/529
f 521/521 518/518 528/528
f 521/521 528/528 530/530
f 524/524 531/531 540/540
f 524/524 540/540 534/534
f 530/530 528/528 537/537
f 530/530 537/537 539/539
f 529/529 527/527 536/536
f 529/529 536/536 538/538
f 570/570 534/534 540/540
f 570/570 540/540 576/576
f 574/574 538/538 536/536
f 574/574 536/536 572/572
f 507/507 505/505 513/513
f 507/507 513/513 515/515
f 575/575 539/539 537/537
f 575/575 537/537 573/573
f 547/547 557/557 554/554
f 547/547 554/554 545/545
f 542/542 550/550 558/558
f 542/542 558/558 548/548
f 551/551 562/562 559/559
f 551/551 559/559 549/549
f 546/546 556/556 553/553
f 546/546 553/553 544/544
f 550/550 561/561 568/568
f 550/550 568/568 558/558
f 562/562 571/571 569/569
f 562/562 569/569 559/559
f 555/555 565/565 563/563
f 555/555 563/563 552/552
f 557/557 566/566 564/564
f 557/557 564/564 554/554
f 560/560 570/570 576/576
f 560/560 576/576 567/567
f 566/566 575/575 573/573
f 566/566 573/573 564/564
f 565/565 574/574 572/572
f 565/565 572/572 563/563
f 543/543 551/551 549/549
f 543/543 549/549 541/541
f 569/569 571/571 535/535
f 569/569 535/535 533/533
f 583/583 581/581 590/590
f 583/583 590/590 593/593
f 578/578 584/584 594/594
f 578/578 594/594 586/586
f 587/587 585/585 595/595
f 587/587 595/595 598/598
f 582/582 580/580 589/589
f 582/582 589/589 592/592
f 586/586 594/594 604/604
f 586/586 604/604 597/597
f 598/598 595/595 605/605
f 598/598 605/605 607/607
f 591/591 588/588 599/599
f 591/591 599/599 601/601
f 593/593 590/590 600/600
f 593/593 600/600 602/602
f 596/596 603/603 612/612
f 596/596 612/612 606/606
f 602/602 600/600 609/609
f 602/602 609/609 611/611
f 601/601 599/599 608/608
f 601/601 608/608 610/610
f 642/642 606/606 612/612
f 642/642 612/612 648/648
f 646/646 610/610 608/608
f 646/646 608/608 644/644
f 579/579 577/577 585/585
f 579/579 585/585 587/587
f 647/647 611/611 609/609
f 647/647 609/609 645/645
f 619/619 629/629 626/626
f 619/619 626/626 617/617
f 614/614 622/622 630/630
f 614/614 630/630 620/620
f 623/623 634/634 631/631
f 623/623 631/631 621/621
f 618/618 628/628 625/625
f 618/618 625/625 616/616
f 622/622 633/633 640/640
f 622/622 640/640 630/630
f 634/634 643/643 641/641
f 634/634 641/641 631/631
f 627/627 637/637 635/635
f 627/627 635/635 624/624
f 629/629 638/638 636/636
f 629/629 636/636 626/626
f 632/632 642/642 648/648
f 632/632 648/648 639/639
f 638/638 647/647 645/645
f 638/638 645/645 636/636
f 637/637 646/646 644/644
f 637/637 644/644 635/635
f 615/615 623/623 621/621
f 615/615 621/621 613/613
f 641/641 643/643 607/607
f 641/641 607/607 605/605
o mesh_2
usemtl house4_2
v 0.1784497 0.0000000 0.4304200
v 0.1784497 0.0000000 0.4304200
v 0.1784497 0.0000000 0.4304200
v -0.1722346 0.5500979 0.4304200
v -0.1722346 0.5500979 0.4304200
v -0.1722346 0.5500979 0.4304200
v 0.1784497 0.5500979 0.4304200
v 0.1784497 0.5500979 0.4304200
v 0.1784497 0.5500979 0.4304200
v -0.1722346 0.0000000 0.4222878
v -0.1722346 0.0000000 0.4222878
v -0.1722346 0.5500979 0.4222878
v -0.1722346 0.5500979 0.4222878
v 0.1784497 0.5500979 0.4222878
v 0.1784497 0.5500979 0.4222878
v -0.1722346 0.0000000 0.4304200
v -0.1722346 0.0000000 0.4304200
v -0.1722346 0.0000000 0.4304200
v 0.1784497 0.0000000 0.4222878
v 0.1784497 0.0000000 0.4222878
v -0.1722346 0.0000000 0.4141555
v -0.1722346 0.0000000 0.4141555
v -0.1722346 0.0000000 0.4141555
v -0.1722346 0.5500979 0.4141555
v -0.1722346 0.5500979 0.4141555
v -0.1722346 0.5500979 0.4141555
v 0.1784497 0.0000000 0.4141555
v 0.1784497 0.0000000 0.4141555
v 0.1784497 0.0000000 0.4141555
v 0.1784497 0.5500979 0.4141555
v 0.1784497 0.5500979 0.4141555
v 0.1784497 0.5500979 0.4141555
v -0.1507115 0.2975393 0.4298031
v -0.1507115 0.2975393 0.4298031
v -0.1507115 0.2975393 0.4298031
v -0.1507036 0.2844752 0.4297170
v -0.1507036 0.2844752 0.4297170
v -0.1507036 0.2844752 0.4297170
v -0.1537685 0.2872245 0.4357410
v -0.1537685 0.2872245 0.4357410
v -0.1537685 0.2872245 0.4357410
v -0.1636882 0.2845627 0.4298039
v -0.1636882 0.2845627 0.4298039
v -0.1636882 0.2845627 0.4298039
v -0.1536049 0.2947576 0.4341131
v -0.1536049 0.2947576 0.4341131
v -0.1636959 0.2976268 0.4297170
v -0.1636959 0.2976268 0.4297170
v -0.1636959 0.2976268 0.4297170
v -0.1607037 0.2950805 0.4343175
v -0.1607037 0.2950805 0.4343175
v -0.1606060 0.2871909 0.4357488
v -0.1606060 0.2871909 0.4357488
v -0.1606060 0.2871909 0.4357488
v -0.1537657 0.2903909 0.4426096
v -0.1537657 0.2903909 0.4426096
v -0.1537657 0.2903909 0.4426096
v -0.1606309 0.2888792 0.4431332
v -0.1606309 0.2888792 0.4431332
v -0.1606309 0.2888792 0.4431332
v -0.1507115 0.2376152 0.4298031
v -0.1507115 0.2376152 0.4298031
v -0.1507115 0.2376152 0.4298031
v -0.1507036 0.2506794 0.4297170
v -0.1507036 0.2506794 0.4297170
v -0.1507036 0.2506794 0.4297170
v -0.1537685 0.2479300 0.4357410
v -0.1537685 0.2479300 0.4357410
v -0.1537685 0.2479300 0.4357410
v -0.1636882 0.2505918 0.4298039
v -0.1636882 0.2505918 0.4298039
v -0.1636882 0.2505918 0.4298039
v -0.1536049 0.2403969 0.4341131
v -0.1536049 0.2403969 0.4341131
v -0.1636959 0.2375277 0.4297170
v -0.1636959 0.2375277 0.4297170
v -0.1636959 0.2375277 0.4297170
v -0.1607037 0.2400740 0.4343175
v -0.1607037 0.2400740 0.4343175
v -0.1606060 0.2479636 0.4357488
v -0.1606060 0.2479636 0.4357488
v -0.1606060 0.2479636 0.4357488
v -0.1537657 0.2447636 0.4426096
v -0.1537657 0.2447636 0.4426096
v -0.1537657 0.2447636 0.4426096
v -0.1606309 0.2462753 0.4431332
v -0.1606309 0.2462753 0.4431332
v -0.1606309 0.2462753 0.4431332
vt 0.3206460 0.0331915
vt 0.4899862 0.3540158
vt 0.4899862 0.0487349
vt 0.0228484 0.0562181
vt 0.0228484 0.0481577
vt 0.3206460 0.0406746
vt 0.0228484 0.3540158
vt 0.0228484 0.0487350
vt 0.0228484 0.0406746
vt 0.0228484 0.0262856
vt 0.4899862 0.0412518
vt 0.0228484 0.0412518
vt 0.3206460 0.0337687
vt 0.0228484 0.0556408
vt 0.0228484 0.0337688
vt 0.0228484 0.0331916
vt 0.4899862 0.0562180
vt 0.4899862 0.0481577
vt 0.3206460 0.0262856
vt 0.4899862 0.0556408
vt 0.0228484 0.0331916
vt 0.4899862 0.0562180
vt 0.4899862 0.0481577
vt 0.0228484 0.0562181
vt 0.0228484 0.0481577
vt 0.3206460 0.0406746
vt 0.3206460 0.0331915
vt 0.4899862 0.3540158
vt 0.4899862 0.0487349
vt 0.0228484 0.3540158
vt 0.0228484 0.0487350
vt 0.0228484 0.0406746
vt 0.6386690 0.9669828
vt 0.6465245 0.9401150
vt 0.6540673 0.9650409
vt 0.6386719 0.9719188
vt 0.6464924 0.9449116
vt 0.6600590 0.9450227
vt 0.6486553 0.9435784
vt 0.6571898 0.9401150
vt 0.6575728 0.9438413
vt 0.6337645 0.9718847
vt 0.6460766 0.9450464
vt 0.6600590 0.9401150
vt 0.6480481 0.9408414
vt 0.6551491 0.9669415
vt 0.6337616 0.9669508
vt 0.6461095 0.9401150
vt 0.6589744 0.9650409
vt 0.6443284 0.9410236
vt 0.6578300 0.9669949
vt 0.6437864 0.9440010
vt 0.6546057 0.9401277
vt 0.6575968 0.9412574
vt 0.6512408 0.9423606
vt 0.6516237 0.9401150
vt 0.6551839 0.9705251
vt 0.6409979 0.9433695
vt 0.6542227 0.9406620
vt 0.6577799 0.9709299
vt 0.6333756 0.9718847
vt 0.6409979 0.9690803
vt 0.6465245 0.9621100
vt 0.6333786 0.9669508
vt 0.6464924 0.9573163
vt 0.6600581 0.9454056
vt 0.6486553 0.9580015
vt 0.6571898 0.9549585
vt 0.6575728 0.9465874
vt 0.6284711 0.9669829
vt 0.6460766 0.9578698
vt 0.6600581 0.9503132
vt 0.6420789 0.9671774
vt 0.6480481 0.9607944
vt 0.6284682 0.9719189
vt 0.6459051 0.9690803
vt 0.6461095 0.9628013
vt 0.6443284 0.9617876
vt 0.6447601 0.9671247
vt 0.6437864 0.9588086
vt 0.6546057 0.9549457
vt 0.6575966 0.9491711
vt 0.6421127 0.9635916
vt 0.6512408 0.9591081
vt 0.6516237 0.9571831
vt 0.6409979 0.9594517
vt 0.6447081 0.9631844
vt 0.6542227 0.9565991
f 665/665 650/650 655/655
f 665/665 655/655 652/652
f 651/651 668/668 662/662
f 651/651 662/662 656/656
f 666/666 653/653 660/660
f 666/666 660/660 659/659
f 654/654 657/657 663/663
f 654/654 663/663 661/661
f 664/664 658/658 667/667
f 664/664 667/667 649/649
f 670/670 672/672 678/678
f 670/670 678/678 676/676
f 677/677 679/679 662/662
f 677/677 662/662 668/668
f 671/671 659/659 660/660
f 671/671 660/660 673/673
f 674/674 661/661 663/663
f 674/674 663/663 680/680
f 669/669 675/675 667/667
f 669/669 667/667 658/658
f 699/699 705/705 694/694
f 700/700 706/706 698/698
f 715/715 732/732 722/722
f 731/731 727/727 721/721
f 734/734 728/728 726/726
f 686/686 689/689 702/702
f 686/686 702/702 692/692
f 696/696 691/691 700/700
f 696/696 700/700 698/698
f 683/683 697/697 699/699
f 683/683 699/699 694/694
f 682/682 693/693 687/687
f 682/682 687/687 685/685
f 703/703 732/732 715/715
f 703/703 715/715 687/687
f 687/687 693/693 703/703
f 699/699 708/708 705/705
f 716/716 729/729 701/701
f 716/716 701/701 688/688
f 728/728 734/734 706/706
f 728/728 706/706 700/700
f 736/736 733/733 704/704
f 736/736 704/704 707/707
f 723/723 718/718 712/712
f 723/723 712/712 709/709
f 730/730 717/717 714/714
f 730/730 714/714 720/720
f 726/726 728/728 719/719
f 726/726 719/719 725/725
f 721/721 727/727 724/724
f 721/721 724/724 710/710
f 713/713 715/715 722/722
f 713/713 722/722 711/711
f 731/731 735/735 727/727
f 684/684 690/690 695/695
f 684/684 695/695 681/681
o mesh_3
usemtl house4_3
v 0.3517652 0.7343457 0.5712729
v 0.3517652 0.7343457 0.5712729
v 0.3808774 0.7343457 0.5712729
v 0.3808774 0.7343457 0.5712729
v 0.3955366 0.7343922 0.5966014
v 0.3808806 0.7343523 0.6219324
v 0.3808806 0.7343523 0.6219324
v 0.3517620 0.7343523 0.6219324
v 0.3517620 0.7343523 0.6219324
v 0.3371060 0.7343922 0.5966014
v 0.3512141 0.6732638 0.5720441
v 0.3512141 0.6732638 0.5720441
v 0.3814285 0.6732638 0.5720441
v 0.3814285 0.6732638 0.5720441
v 0.3954979 0.6682621 0.5978035
v 0.3803841 0.6634179 0.6216825
v 0.3803841 0.6634179 0.6216825
v 0.3522585 0.6634179 0.6216825
v 0.3522585 0.6634179 0.6216825
v 0.3371447 0.6682621 0.5978035
v 0.3502518 0.6643440 0.5704800
v 0.3502518 0.6643440 0.5704800
v 0.3502518 0.6643440 0.5704800
v 0.3823908 0.6643440 0.5704800
v 0.3823908 0.6643440 0.5704800
v 0.3823908 0.6643440 0.5704800
v 0.3953893 0.6454024 0.5894215
v 0.3801281 0.6289113 0.6059127
v 0.3801281 0.6289113 0.6059127
v 0.3801281 0.6289113 0.6059127
v 0.3525146 0.6289113 0.6059127
v 0.3525146 0.6289113 0.6059127
v 0.3525146 0.6289113 0.6059127
v 0.3372533 0.6454024 0.5894215
v 0.3512079 0.6627808 0.5615863
v 0.3512079 0.6627808 0.5615863
v 0.3814347 0.6627808 0.5615863
v 0.3814347 0.6627808 0.5615863
v 0.3954978 0.6370211 0.5665711
v 0.3803870 0.6131470 0.5714252
v 0.3803870 0.6131470 0.5714252
v 0.3522556 0.6131470 0.5714252
v 0.3522556 0.6131470 0.5714252
v 0.3371448 0.6370211 0.5665711
v 0.3517758 0.6635569 0.5474145
v 0.3517758 0.6635569 0.5474145
v 0.3808668 0.6635569 0.5474145
v 0.3808668 0.6635569 0.5474145
v 0.3955365 0.6382239 0.5473349
v 0.3808736 0.6128877 0.5473968
v 0.3808736 0.6128877 0.5473968
v 0.3517691 0.6128877 0.5473968
v 0.3517691 0.6128877 0.5473968
v 0.3371061 0.6382239 0.5473349
v 0.3470386 0.7343436 0.5630478
v 0.3856041 0.7343436 0.5630478
v 0.4050234 0.7344051 0.5966011
v 0.3856084 0.7343523 0.6301576
v 0.3470342 0.7343523 0.6301576
v 0.3276192 0.7344051 0.5966011
v 0.3663213 0.7821133 0.5966024
v 0.3504943 0.6635571 0.4578242
v 0.3504943 0.6635571 0.4578242
v 0.3795853 0.6635571 0.4578242
v 0.3795853 0.6635571 0.4578242
v 0.3942550 0.6382241 0.4577447
v 0.3795921 0.6128880 0.4578066
v 0.3795921 0.6128880 0.4578066
v 0.3504876 0.6128880 0.4578066
v 0.3504876 0.6128880 0.4578066
v 0.3358246 0.6382242 0.4577447
vt 0.5882902 0.9369722
vt 0.5884526 0.9368709
vt 0.5883967 0.9368709
vt 0.5885189 0.9370944
vt 0.5885124 0.9371453
vt 0.5882319 0.9368730
vt 0.5885192 0.9371914
vt 0.5881760 0.9368730
vt 0.5882900 0.9368749
vt 0.5882888 0.9369246
vt 0.5881729 0.9369708
vt 0.5884537 0.9367537
vt 0.5883956 0.9367537
vt 0.5884047 0.9370939
vt 0.5883890 0.9371454
vt 0.5882305 0.9367380
vt 0.5883871 0.9371884
vt 0.5881539 0.9368754
vt 0.5881765 0.9367380
vt 0.5881619 0.9369224
vt 0.5881557 0.9369739
vt 0.5884555 0.9367365
vt 0.5884575 0.9366683
vt 0.5883875 0.9370908
vt 0.5883937 0.9367365
vt 0.5885192 0.9366682
vt 0.5883464 0.9371285
vt 0.5882306 0.9366681
vt 0.5882869 0.9368730
vt 0.5883227 0.9371570
vt 0.5880878 0.9369056
vt 0.5881775 0.9366681
vt 0.5882339 0.9368721
vt 0.5881180 0.9369384
vt 0.5881528 0.9369909
vt 0.5884593 0.9366832
vt 0.5883850 0.9370735
vt 0.5885173 0.9366832
vt 0.5883306 0.9370845
vt 0.5882887 0.9368004
vt 0.5882930 0.9370905
vt 0.5880576 0.9369719
vt 0.5882346 0.9367995
vt 0.5881020 0.9369823
vt 0.5881544 0.9370180
vt 0.5884603 0.9367093
vt 0.5883867 0.9370463
vt 0.5885162 0.9367092
vt 0.5883327 0.9370477
vt 0.5882902 0.9367569
vt 0.5882921 0.9370446
vt 0.5880572 0.9370180
vt 0.5882342 0.9367560
vt 0.5881044 0.9370192
vt 0.5901107 0.9398568
vt 0.5901107 0.9398568
vt 0.5901107 0.9398568
vt 0.5901107 0.9398568
vt 0.5901107 0.9398568
vt 0.5901107 0.9398568
vt 0.5901107 0.9398568
vt 0.5881546 0.9371901
vt 0.5884575 0.9368709
vt 0.5883867 0.9368746
vt 0.5885134 0.9368709
vt 0.5883327 0.9368761
vt 0.5882898 0.9365956
vt 0.5882921 0.9368729
vt 0.5880573 0.9371902
vt 0.5882339 0.9365947
vt 0.5881046 0.9371914
f 737/737 747/747 756/756
f 737/737 756/756 746/746
f 739/739 749/749 748/748
f 739/739 748/748 738/738
f 741/741 751/751 750/750
f 741/741 750/750 740/740
f 743/743 753/753 751/751
f 743/743 751/751 741/741
f 744/744 755/755 752/752
f 744/744 752/752 742/742
f 746/746 756/756 754/754
f 746/746 754/754 745/745
f 747/747 757/757 770/770
f 747/747 770/770 756/756
f 749/749 761/761 758/758
f 749/749 758/758 748/748
f 751/751 763/763 760/760
f 751/751 760/760 750/750
f 753/753 766/766 763/763
f 753/753 763/763 751/751
f 755/755 768/768 764/764
f 755/755 764/764 752/752
f 756/756 770/770 767/767
f 756/756 767/767 754/754
f 757/757 771/771 780/780
f 757/757 780/780 770/770
f 762/762 774/774 772/772
f 762/762 772/772 759/759
f 763/763 775/775 773/773
f 763/763 773/773 760/760
f 766/766 777/777 775/775
f 766/766 775/775 763/763
f 769/769 779/779 776/776
f 769/769 776/776 765/765
f 770/770 780/780 778/778
f 770/770 778/778 767/767
f 771/771 781/781 790/790
f 771/771 790/790 780/780
f 774/774 784/784 782/782
f 774/774 782/782 772/772
f 775/775 785/785 783/783
f 775/775 783/783 773/773
f 777/777 787/787 785/785
f 777/777 785/785 775/775
f 779/779 789/789 786/786
f 779/779 786/786 776/776
f 780/780 790/790 788/788
f 780/780 788/788 778/778
f 796/796 797/797 791/791
f 793/793 797/797 794/794
f 791/791 797/797 792/792
f 795/795 797/797 796/796
f 794/794 797/797 795/795
f 792/792 797/797 793/793
f 792/792 793/793 794/794
f 791/791 792/792 794/794
f 791/791 794/794 795/795
f 796/796 791/791 795/795
f 783/783 785/785 802/802
f 783/783 802/802 800/800
f 788/788 790/790 807/807
f 788/788 807/807 805/805
f 785/785 787/787 804/804
f 785/785 804/804 802/802
f 790/790 781/781 798/798
f 790/790 798/798 807/807
f 782/782 784/784 801/801
f 782/782 801/801 799/799
f 786/786 789/789 806/806
f 786/786 806/806 803/803
o mesh_4
usemtl house4_4
v -0.5480420 0.7400364 0.5574991
v -0.5480420 0.7400364 0.5574991
v -0.5362977 0.7445824 0.5584840
v -0.5362977 0.7445824 0.5584840
v -0.5480420 0.9954540 -0.6216418
v -0.5480420 0.9954540 -0.6216418
v -0.5362977 1.0000000 -0.6206570
v -0.5362977 1.0000000 -0.6206570
v -0.5536869 0.7314173 0.5556321
v -0.5536869 0.7314173 0.5556321
v -0.5536869 0.9868349 -0.6235088
v -0.5536869 0.9868349 -0.6235088
v -0.5541959 0.7189810 0.5529382
v -0.5541959 0.7189810 0.5529382
v -0.5541959 0.7189810 0.5529382
v -0.5541959 0.9743986 -0.6262027
v -0.5541959 0.9743986 -0.6262027
v -0.5541959 0.9743986 -0.6262027
v -0.5470700 0.7095294 0.5508909
v -0.5470700 0.7095294 0.5508909
v -0.5470700 0.9649470 -0.6282500
v -0.5470700 0.9649470 -0.6282500
v -0.5358723 0.7048036 0.5498672
v -0.5358723 0.7048036 0.5498672
v -0.5358723 0.9602212 -0.6292737
v -0.5358723 0.9602212 -0.6292737
v -0.5191390 0.7087832 0.5507293
v -0.5191390 0.7087832 0.5507293
v -0.5191390 0.9642008 -0.6284116
v -0.5191390 0.9642008 -0.6284116
v -0.5222687 0.7389397 0.5572617
v -0.5222687 0.7389397 0.5572617
v -0.5222687 0.9943573 -0.6218793
v -0.5222687 0.9943573 -0.6218793
v -0.5165416 0.7292997 0.5551735
v -0.5165416 0.7292997 0.5551735
v -0.5165416 0.9847173 -0.6239675
v -0.5165416 0.9847173 -0.6239675
v -0.4853101 0.7007229 0.5489833
v -0.4853101 0.7007229 0.5489833
v -0.4853101 0.9561405 -0.6301576
v -0.4853101 0.9561405 -0.6301576
v -0.4853101 0.7212393 0.5534275
v -0.4853101 0.7212393 0.5534275
v -0.4853101 0.9766570 -0.6257135
v -0.4853101 0.9766570 -0.6257135
v -0.4449902 0.7092310 0.5508263
v -0.4449902 0.7092310 0.5508263
v -0.4449902 0.9646486 -0.6283146
v -0.4449902 0.9646486 -0.6283146
v -0.4449902 0.7297475 0.5552705
v -0.4449902 0.7297475 0.5552705
v -0.4449902 0.9851651 -0.6238705
v -0.4449902 0.9851651 -0.6238705
v -0.4387608 0.7400364 0.5574991
v -0.4387608 0.7400364 0.5574991
v -0.4270164 0.7445824 0.5584840
v -0.4270164 0.7445824 0.5584840
v -0.4387608 0.9954540 -0.6216418
v -0.4387608 0.9954540 -0.6216418
v -0.4270164 1.0000000 -0.6206570
v -0.4270164 1.0000000 -0.6206570
v -0.4377888 0.7095294 0.5508909
v -0.4377888 0.7095294 0.5508909
v -0.4377888 0.9649470 -0.6282500
v -0.4377888 0.9649470 -0.6282500
v -0.4265911 0.7048036 0.5498672
v -0.4265911 0.7048036 0.5498672
v -0.4265911 0.9602212 -0.6292737
v -0.4265911 0.9602212 -0.6292737
v -0.4098578 0.7087832 0.5507293
v -0.4098578 0.7087832 0.5507293
v -0.4098578 0.9642008 -0.6284116
v -0.4098578 0.9642008 -0.6284116
v -0.4129875 0.7389397 0.5572617
v -0.4129875 0.7389397 0.5572617
v -0.4129875 0.9943573 -0.6218793
v -0.4129875 0.9943573 -0.6218793
v -0.4072603 0.7292997 0.5551735
v -0.4072603 0.7292997 0.5551735
v -0.4072603 0.9847173 -0.6239675
v -0.4072603 0.9847173 -0.6239675
v -0.3760289 0.7007229 0.5489833
v -0.3760289 0.7007229 0.5489833
v -0.3760289 0.9561405 -0.6301576
v -0.3760289 0.9561405 -0.6301576
v -0.3760289 0.7212393 0.5534275
v -0.3760289 0.7212393 0.5534275
v -0.3760289 0.9766570 -0.6257135
v -0.3760289 0.9766570 -0.6257135
v -0.3357090 0.7092310 0.5508263
v -0.3357090 0.7092310 0.5508263
v -0.3357090 0.9646486 -0.6283146
v -0.3357090 0.9646486 -0.6283146
v -0.3357090 0.7297475 0.5552705
v -0.3357090 0.7297475 0.5552705
v -0.3357090 0.9851651 -0.6238705
v -0.3357090 0.9851651 -0.6238705
v -0.3294796 0.7400364 0.5574991
v -0.3294796 0.7400364 0.5574991
v -0.3177352 0.7445824 0.5584840
v -0.3177352 0.7445824 0.5584840
v -0.3294796 0.9954540 -0.6216418
v -0.3294796 0.9954540 -0.6216418
v -0.3177352 1.0000000 -0.6206570
v -0.3177352 1.0000000 -0.6206570
v -0.3285076 0.7095294 0.5508909
v -0.3285076 0.7095294 0.5508909
v -0.3285076 0.9649470 -0.6282500
v -0.3285076 0.9649470 -0.6282500
v -0.3173099 0.7048036 0.5498672
v -0.3173099 0.7048036 0.5498672
v -0.3173099 0.9602212 -0.6292737
v -0.3173099 0.9602212 -0.6292737
v -0.3005766 0.7087832 0.5507293
v -0.3005766 0.7087832 0.5507293
v -0.3005766 0.9642008 -0.6284116
v -0.3005766 0.9642008 -0.6284116
v -0.3037063 0.7389397 0.5572617
v -0.3037063 0.7389397 0.5572617
v -0.3037063 0.9943573 -0.6218793
v -0.3037063 0.9943573 -0.6218793
v -0.2979791 0.7292997 0.5551735
v -0.2979791 0.7292997 0.5551735
v -0.2979791 0.9847173 -0.6239675
v -0.2979791 0.9847173 -0.6239675
v -0.2667477 0.7007229 0.5489833
v -0.2667477 0.7007229 0.5489833
v -0.2667477 0.9561405 -0.6301576
v -0.2667477 0.9561405 -0.6301576
v -0.2667477 0.7212393 0.5534275
v -0.2667477 0.7212393 0.5534275
v -0.2667477 0.9766570 -0.6257135
v -0.2667477 0.9766570 -0.6257135
v -0.2264278 0.9646486 -0.6283146
v -0.2264278 0.9646486 -0.6283146
v -0.2264278 0.7297475 0.5552705
v -0.2264278 0.7297475 0.5552705
v -0.2264278 0.7092310 0.5508263
v -0.2264278 0.7092310 0.5508263
v -0.2264278 0.9851651 -0.6238705
v -0.2264278 0.9851651 -0.6238705
v -0.2201984 0.7400364 0.5574991
v -0.2201984 0.7400364 0.5574991
v -0.2084540 0.7445824 0.5584840
v -0.2084540 0.7445824 0.5584840
v -0.2201984 0.9954540 -0.6216418
v -0.2201984 0.9954540 -0.6216418
v -0.2084540 1.0000000 -0.6206570
v -0.2084540 1.0000000 -0.6206570
v -0.2192264 0.7095294 0.5508909
v -0.2192264 0.7095294 0.5508909
v -0.2192264 0.9649470 -0.6282500
v -0.2192264 0.9649470 -0.6282500
v -0.2080286 0.7048036 0.5498672
v -0.2080286 0.7048036 0.5498672
v -0.2080286 0.9602212 -0.6292737
v -0.2080286 0.9602212 -0.6292737
v -0.1912954 0.7087832 0.5507293
v -0.1912954 0.7087832 0.5507293
v -0.1912954 0.9642008 -0.6284116
v -0.1912954 0.9642008 -0.6284116
v -0.1944251 0.7389397 0.5572617
v -0.1944251 0.7389397 0.5572617
v -0.1944251 0.9943573 -0.6218793
v -0.1944251 0.9943573 -0.6218793
v -0.1886979 0.7292997 0.5551735
v -0.1886979 0.7292997 0.5551735
v -0.1886979 0.9847173 -0.6239675
v -0.1886979 0.9847173 -0.6239675
v -0.1574665 0.7007229 0.5489833
v -0.1574665 0.7007229 0.5489833
v -0.1574665 0.9561405 -0.6301576
v -0.1574665 0.9561405 -0.6301576
v -0.1574665 0.7212393 0.5534275
v -0.1574665 0.7212393 0.5534275
v -0.1574665 0.9766570 -0.6257135
v -0.1574665 0.9766570 -0.6257135
v -0.1171466 0.9646486 -0.6283146
v -0.1171466 0.9646486 -0.6283146
v -0.1171466 0.9851651 -0.6238705
v -0.1171466 0.9851651 -0.6238705
v -0.1171466 0.7092310 0.5508263
v -0.1171466 0.7092310 0.5508263
v -0.1171466 0.7297475 0.5552705
v -0.1171466 0.7297475 0.5552705
v -0.1109172 0.7400364 0.5574991
v -0.1109172 0.7400364 0.5574991
v -0.0991728 0.7445824 0.5584840
v -0.0991728 0.7445824 0.5584840
v -0.1109172 0.9954540 -0.6216418
v -0.1109172 0.9954540 -0.6216418
v -0.0991728 1.0000000 -0.6206570
v -0.0991728 1.0000000 -0.6206570
v -0.1099452 0.7095294 0.5508909
v -0.1099452 0.7095294 0.5508909
v -0.1099452 0.9649470 -0.6282500
v -0.1099452 0.9649470 -0.6282500
v -0.0987474 0.7048036 0.5498672
v -0.0987474 0.7048036 0.5498672
v -0.0987474 0.9602212 -0.6292737
v -0.0987474 0.9602212 -0.6292737
v -0.0820142 0.7087832 0.5507293
v -0.0820142 0.7087832 0.5507293
v -0.0820142 0.9642008 -0.6284116
v -0.0820142 0.9642008 -0.6284116
v -0.0851439 0.7389397 0.5572617
v -0.0851439 0.7389397 0.5572617
v -0.0851439 0.9943573 -0.6218793
v -0.0851439 0.9943573 -0.6218793
v -0.0794166 0.7292997 0.5551735
v -0.0794166 0.7292997 0.5551735
v -0.0794166 0.9847173 -0.6239675
v -0.0794166 0.9847173 -0.6239675
v -0.0481852 0.7007229 0.5489833
v -0.0481852 0.7007229 0.5489833
v -0.0481852 0.9561405 -0.6301576
v -0.0481852 0.9561405 -0.6301576
v -0.0481852 0.7212393 0.5534275
v -0.0481852 0.7212393 0.5534275
v -0.0481852 0.9766570 -0.6257135
v -0.0481852 0.9766570 -0.6257135
v -0.0078653 0.7092310 0.5508263
v -0.0078653 0.7092310 0.5508263
v -0.0078653 0.7092310 0.5508263
v -0.0078653 0.9646486 -0.6283146
v -0.0078653 0.9646486 -0.6283146
v -0.0078653 0.9646486 -0.6283146
v -0.0078653 0.7297475 0.5552705
v -0.0078653 0.7297475 0.5552705
v -0.0078653 0.7297475 0.5552705
v -0.0078653 0.9851651 -0.6238705
v -0.0078653 0.9851651 -0.6238705
v -0.0078653 0.9851651 -0.6238705
v -0.0016359 0.7400364 0.5574991
v -0.0016359 0.7400364 0.5574991
v 0.0101084 0.7445824 0.5584840
v 0.0101084 0.7445824 0.5584840
v -0.0016359 0.9954540 -0.6216418
v -0.0016359 0.9954540 -0.6216418
v 0.0101084 1.0000000 -0.6206570
v 0.0101084 1.0000000 -0.6206570
v -0.0006640 0.7095294 0.5508909
v -0.0006640 0.7095294 0.5508909
v -0.0006640 0.9649470 -0.6282500
v -0.0006640 0.9649470 -0.6282500
v 0.0105338 0.7048036 0.5498672
v 0.0105338 0.7048036 0.5498672
v 0.0105338 0.9602212 -0.6292737
v 0.0105338 0.9602212 -0.6292737
v 0.0272670 0.7087832 0.5507293
v 0.0272670 0.7087832 0.5507293
v 0.0272670 0.9642008 -0.6284116
v 0.0272670 0.9642008 -0.6284116
v 0.0241373 0.7389397 0.5572617
v 0.0241373 0.7389397 0.5572617
v 0.0241373 0.9943573 -0.6218793
v 0.0241373 0.9943573 -0.6218793
v 0.0298646 0.7292997 0.5551735
v 0.0298646 0.7292997 0.5551735
v 0.0298646 0.9847173 -0.6239675
v 0.0298646 0.9847173 -0.6239675
v 0.0610960 0.7007229 0.5489833
v 0.0610960 0.7007229 0.5489833
v 0.0610960 0.9561405 -0.6301576
v 0.0610960 0.9561405 -0.6301576
v 0.0610960 0.7212393 0.5534275
v 0.0610960 0.7212393 0.5534275
v 0.0610960 0.9766570 -0.6257135
v 0.0610960 0.9766570 -0.6257135
v 0.1014159 0.7092310 0.5508263
v 0.1014159 0.7092310 0.5508263
v 0.1014159 0.9646486 -0.6283146
v 0.1014159 0.9646486 -0.6283146
v 0.1014159 0.7297475 0.5552705
v 0.1014159 0.7297475 0.5552705
v 0.1014159 0.9851651 -0.6238705
v 0.1014159 0.9851651 -0.6238705
v 0.1076453 0.7400364 0.5574991
v 0.1076453 0.7400364 0.5574991
v 0.1193896 0.7445824 0.5584840
v 0.1193896 0.7445824 0.5584840
v 0.1076453 0.9954540 -0.6216418
v 0.1076453 0.9954540 -0.6216418
v 0.1193896 1.0000000 -0.6206570
v 0.1193896 1.0000000 -0.6206570
v 0.1086173 0.7095294 0.5508909
v 0.1086173 0.7095294 0.5508909
v 0.1086173 0.9649470 -0.6282500
v 0.1086173 0.9649470 -0.6282500
v 0.1198150 0.7048036 0.5498672
v 0.1198150 0.7048036 0.5498672
v 0.1198150 0.9602212 -0.6292737
v 0.1198150 0.9602212 -0.6292737
v 0.1365482 0.7087832 0.5507293
v 0.1365482 0.7087832 0.5507293
v 0.1365482 0.9642008 -0.6284116
v 0.1365482 0.9642008 -0.6284116
v 0.1334185 0.7389397 0.5572617
v 0.1334185 0.7389397 0.5572617
v 0.1334185 0.9943573 -0.6218793
v 0.1334185 0.9943573 -0.6218793
v 0.1391458 0.7292997 0.5551735
v 0.1391458 0.7292997 0.5551735
v 0.1391458 0.9847173 -0.6239675
v 0.1391458 0.9847173 -0.6239675
v 0.1703772 0.7007229 0.5489833
v 0.1703772 0.7007229 0.5489833
v 0.1703772 0.9561405 -0.6301576
v 0.1703772 0.9561405 -0.6301576
v 0.1703772 0.7212393 0.5534275
v 0.1703772 0.7212393 0.5534275
v 0.1703772 0.9766570 -0.6257135
v 0.1703772 0.9766570 -0.6257135
v 0.2106971 0.7092310 0.5508263
v 0.2106971 0.7092310 0.5508263
v 0.2106971 0.9646486 -0.6283146
v 0.2106971 0.9646486 -0.6283146
v 0.2106971 0.7297475 0.5552705
v 0.2106971 0.7297475 0.5552705
v 0.2106971 0.9851651 -0.6238705
v 0.2106971 0.9851651 -0.6238705
v 0.2169265 0.7400364 0.5574991
v 0.2169265 0.7400364 0.5574991
v 0.2286708 0.7445824 0.5584840
v 0.2286708 0.7445824 0.5584840
v 0.2169265 0.9954540 -0.6216418
v 0.2169265 0.9954540 -0.6216418
v 0.2286708 1.0000000 -0.6206570
v 0.2286708 1.0000000 -0.6206570
v 0.2178984 0.7095294 0.5508909
v 0.2178984 0.7095294 0.5508909
v 0.2178984 0.9649470 -0.6282500
v 0.2178984 0.9649470 -0.6282500
v 0.2290962 0.7048036 0.5498672
v 0.2290962 0.7048036 0.5498672
v 0.2290962 0.9602212 -0.6292737
v 0.2290962 0.9602212 -0.6292737
v 0.2458295 0.7087832 0.5507293
v 0.2458295 0.7087832 0.5507293
v 0.2458295 0.9642008 -0.6284116
v 0.2458295 0.9642008 -0.6284116
v 0.2426997 0.7389397 0.5572617
v 0.2426997 0.7389397 0.5572617
v 0.2426997 0.9943573 -0.6218793
v 0.2426997 0.9943573 -0.6218793
v 0.2484270 0.7292997 0.5551735
v 0.2484270 0.7292997 0.5551735
v 0.2484270 0.9847173 -0.6239675
v 0.2484270 0.9847173 -0.6239675
v 0.2796584 0.7007229 0.5489833
v 0.2796584 0.7007229 0.5489833
v 0.2796584 0.9561405 -0.6301576
v 0.2796584 0.9561405 -0.6301576
v 0.2796584 0.7212393 0.5534275
v 0.2796584 0.7212393 0.5534275
v 0.2796584 0.9766570 -0.6257135
v 0.2796584 0.9766570 -0.6257135
v 0.3199782 0.7092310 0.5508263
v 0.3199782 0.7092310 0.5508263
v 0.3199782 0.9646486 -0.6283146
v 0.3199782 0.9646486 -0.6283146
v 0.3199782 0.7297475 0.5552705
v 0.3199782 0.7297475 0.5552705
v 0.3199782 0.9851651 -0.6238705
v 0.3199782 0.9851651 -0.6238705
v 0.3262076 0.7400364 0.5574991
v 0.3262076 0.7400364 0.5574991
v 0.3379520 0.7445824 0.5584840
v 0.3379520 0.7445824 0.5584840
v 0.3262076 0.9954540 -0.6216418
v 0.3262076 0.9954540 -0.6216418
v 0.3379520 1.0000000 -0.6206570
v 0.3379520 1.0000000 -0.6206570
v 0.3271796 0.7095294 0.5508909
v 0.3271796 0.7095294 0.5508909
v 0.3271796 0.9649470 -0.6282500
v 0.3271796 0.9649470 -0.6282500
v 0.3383774 0.7048036 0.5498672
v 0.3383774 0.7048036 0.5498672
v 0.3383774 0.9602212 -0.6292737
v 0.3383774 0.9602212 -0.6292737
v 0.3551106 0.7087832 0.5507293
v 0.3551106 0.7087832 0.5507293
v 0.3551106 0.9642008 -0.6284116
v 0.3551106 0.9642008 -0.6284116
v 0.3519809 0.7389397 0.5572617
v 0.3519809 0.7389397 0.5572617
v 0.3519809 0.9943573 -0.6218793
v 0.3519809 0.9943573 -0.6218793
v 0.3577082 0.7292997 0.5551735
v 0.3577082 0.7292997 0.5551735
v 0.3577082 0.9847173 -0.6239675
v 0.3577082 0.9847173 -0.6239675
v 0.3889396 0.7007229 0.5489833
v 0.3889396 0.7007229 0.5489833
v 0.3889396 0.9561405 -0.6301576
v 0.3889396 0.9561405 -0.6301576
v 0.3889396 0.7212393 0.5534275
v 0.3889396 0.7212393 0.5534275
v 0.3889396 0.9766570 -0.6257135
v 0.3889396 0.9766570 -0.6257135
v 0.4292595 0.7092310 0.5508263
v 0.4292595 0.7092310 0.5508263
v 0.4292595 0.9646486 -0.6283146
v 0.4292595 0.9646486 -0.6283146
v 0.4292595 0.7297475 0.5552705
v 0.4292595 0.7297475 0.5552705
v 0.4292595 0.9851651 -0.6238705
v 0.4292595 0.9851651 -0.6238705
v 0.4354888 0.7400364 0.5574991
v 0.4354888 0.7400364 0.5574991
v 0.4472332 0.7445824 0.5584840
v 0.4472332 0.7445824 0.5584840
v 0.4354888 0.9954540 -0.6216418
v 0.4354888 0.9954540 -0.6216418
v 0.4472332 1.0000000 -0.6206570
v 0.4472332 1.0000000 -0.6206570
v 0.4364608 0.7095294 0.5508909
v 0.4364608 0.7095294 0.5508909
v 0.4364608 0.9649470 -0.6282500
v 0.4364608 0.9649470 -0.6282500
v 0.4476586 0.7048036 0.5498672
v 0.4476586 0.7048036 0.5498672
v 0.4476586 0.9602212 -0.6292737
v 0.4476586 0.9602212 -0.6292737
v 0.4643918 0.7087832 0.5507293
v 0.4643918 0.7087832 0.5507293
v 0.4643918 0.9642008 -0.6284116
v 0.4643918 0.9642008 -0.6284116
v 0.4612621 0.7389397 0.5572617
v 0.4612621 0.7389397 0.5572617
v 0.4612621 0.9943573 -0.6218793
v 0.4612621 0.9943573 -0.6218793
v 0.4669894 0.7292997 0.5551735
v 0.4669894 0.7292997 0.5551735
v 0.4669894 0.9847173 -0.6239675
v 0.4669894 0.9847173 -0.6239675
v 0.4982207 0.7007229 0.5489833
v 0.4982207 0.7007229 0.5489833
v 0.4982207 0.9561405 -0.6301576
v 0.4982207 0.9561405 -0.6301576
v 0.4982207 0.7212393 0.5534275
v 0.4982207 0.7212393 0.5534275
v 0.4982207 0.9766570 -0.6257135
v 0.4982207 0.9766570 -0.6257135
v 0.5385406 0.7092310 0.5508263
v 0.5385406 0.7092310 0.5508263
v 0.5385406 0.7092310 0.5508263
v 0.5385406 0.9646486 -0.6283146
v 0.5385406 0.9646486 -0.6283146
v 0.5385406 0.9646486 -0.6283146
v 0.5385406 0.7297475 0.5552705
v 0.5385406 0.7297475 0.5552705
v 0.5385406 0.7297475 0.5552705
v 0.5385406 0.9851651 -0.6238705
v 0.5385406 0.9851651 -0.6238705
v 0.5385406 0.9851651 -0.6238705
vt 0.1900402 0.3971186
vt 0.2583476 0.3668098
vt 0.1851106 0.4095656
vt 0.2624126 0.3668098
vt 0.1330495 0.9630879
vt 0.2583476 0.7842664
vt 0.1281199 0.9506410
vt 0.2624126 0.7842664
vt 0.1993869 0.3911361
vt 0.2563947 0.3668098
vt 0.1423961 0.9690706
vt 0.2563947 0.7842664
vt 0.2128728 0.3905966
vt 0.2562189 0.3668098
vt 0.2572057 0.9724341
vt 0.1558821 0.9696100
vt 0.2562189 0.7842664
vt 0.2572057 0.8067636
vt 0.2231222 0.3981489
vt 0.2581842 0.9724341
vt 0.1661314 0.9620579
vt 0.2581842 0.8067636
vt 0.2282468 0.4100164
vt 0.2597219 0.9724341
vt 0.1712561 0.9501904
vt 0.2597219 0.8067636
vt 0.2239313 0.4277506
vt 0.2620198 0.9724341
vt 0.1669406 0.9324560
vt 0.2620198 0.8067636
vt 0.1912295 0.4244338
vt 0.2672662 0.3668098
vt 0.1342388 0.9357728
vt 0.2672662 0.7842664
vt 0.2016832 0.4305035
vt 0.2692470 0.3668098
vt 0.1446925 0.9297031
vt 0.2692470 0.7842664
vt 0.2326719 0.4636033
vt 0.2666648 0.9724341
vt 0.1756812 0.8966033
vt 0.2666648 0.8067636
vt 0.2104238 0.4636033
vt 0.2800545 0.3668098
vt 0.1534331 0.8966033
vt 0.2800545 0.7842664
vt 0.2234457 0.5063353
vt 0.2722014 0.9724341
vt 0.1664550 0.8538713
vt 0.2722014 0.8067636
vt 0.2011976 0.5063353
vt 0.2940056 0.3668098
vt 0.1442069 0.8538713
vt 0.2940056 0.7842664
vt 0.1900402 0.5129372
vt 0.2961605 0.3668098
vt 0.1851106 0.5253842
vt 0.3002239 0.3668098
vt 0.1330495 0.8472692
vt 0.2961605 0.7842664
vt 0.1281199 0.8348223
vt 0.3002239 0.7842664
vt 0.2231222 0.5139675
vt 0.2731906 0.9724341
vt 0.1661314 0.8462392
vt 0.2731906 0.8067636
vt 0.2282468 0.5258350
vt 0.2747282 0.9724341
vt 0.1712561 0.8343716
vt 0.2747282 0.8067636
vt 0.2239313 0.5435693
vt 0.2770260 0.9724341
vt 0.1669406 0.8166372
vt 0.2770260 0.8067636
vt 0.1912295 0.5402523
vt 0.3050792 0.3668098
vt 0.1342388 0.8199543
vt 0.3050792 0.7842664
vt 0.2016832 0.5463222
vt 0.3070600 0.3668098
vt 0.1446925 0.8138843
vt 0.3070600 0.7842664
vt 0.2326719 0.5794219
vt 0.2816711 0.9724341
vt 0.1756812 0.7807847
vt 0.2816711 0.8067636
vt 0.2104238 0.5794219
vt 0.3178674 0.3668098
vt 0.1534331 0.7807847
vt 0.3178674 0.7842664
vt 0.2234457 0.6221537
vt 0.2872076 0.9724341
vt 0.1664550 0.7380527
vt 0.2872076 0.8067636
vt 0.2011976 0.6221537
vt 0.3318169 0.3668098
vt 0.1442069 0.7380527
vt 0.3318169 0.7842664
vt 0.1900403 0.6287559
vt 0.3339719 0.3668098
vt 0.1851106 0.6412029
vt 0.3380370 0.3668098
vt 0.1330495 0.7314506
vt 0.3339719 0.7842664
vt 0.1281198 0.7190037
vt 0.3380370 0.7842664
vt 0.2231222 0.6297860
vt 0.2881963 0.9724341
vt 0.1661314 0.7304205
vt 0.2881963 0.8067636
vt 0.2282468 0.6416537
vt 0.2897345 0.9724341
vt 0.1712561 0.7185529
vt 0.2897345 0.8067636
vt 0.2239313 0.6593879
vt 0.2920318 0.9724341
vt 0.1669406 0.7008187
vt 0.2920318 0.8067636
vt 0.1912295 0.6560709
vt 0.3428906 0.3668098
vt 0.1342388 0.7041356
vt 0.3428906 0.7842664
vt 0.2016832 0.6621408
vt 0.3448730 0.3668098
vt 0.1446925 0.6980656
vt 0.3448730 0.7842664
vt 0.2326719 0.6952406
vt 0.2966774 0.9724341
vt 0.1756812 0.6649659
vt 0.2966774 0.8067636
vt 0.2104238 0.6952406
vt 0.3556788 0.3668098
vt 0.1534331 0.6649659
vt 0.3556788 0.7842664
vt 0.1664550 0.6222340
vt 0.3022134 0.8067636
vt 0.2011976 0.7379726
vt 0.3696299 0.3668098
vt 0.2234457 0.7379726
vt 0.3022134 0.9724341
vt 0.1442069 0.6222340
vt 0.3696299 0.7842664
vt 0.1900403 0.7445745
vt 0.3717849 0.3668098
vt 0.1851106 0.7570214
vt 0.3758500 0.3668098
vt 0.1330495 0.6156319
vt 0.3717849 0.7842664
vt 0.1281198 0.6031851
vt 0.3758500 0.7842664
vt 0.2231222 0.7456046
vt 0.3032026 0.9724341
vt 0.1661314 0.6146020
vt 0.3032026 0.8067636
vt 0.2282468 0.7574723
vt 0.3047403 0.9724341
vt 0.1712561 0.6027343
vt 0.3047403 0.8067636
vt 0.2239313 0.7752066
vt 0.3070381 0.9724341
vt 0.1669406 0.5850000
vt 0.3070381 0.8067636
vt 0.1912296 0.7718897
vt 0.3807034 0.3668098
vt 0.1342388 0.5883169
vt 0.3807034 0.7842664
vt 0.2016832 0.7779595
vt 0.3826844 0.3668098
vt 0.1446925 0.5822470
vt 0.3826844 0.7842664
vt 0.2326719 0.8110593
vt 0.3116831 0.9724341
vt 0.1756812 0.5491472
vt 0.3116831 0.8067636
vt 0.2104238 0.8110593
vt 0.3934917 0.3668098
vt 0.1534331 0.5491472
vt 0.3934917 0.7842664
vt 0.1664550 0.5064154
vt 0.3172196 0.8067636
vt 0.1442069 0.5064154
vt 0.4074413 0.7842664
vt 0.2234458 0.8537912
vt 0.3172196 0.9724341
vt 0.2011976 0.8537912
vt 0.4074413 0.3668098
vt 0.1900403 0.8603932
vt 0.4095979 0.3668098
vt 0.1851106 0.8728402
vt 0.4136613 0.3668098
vt 0.1330495 0.4998133
vt 0.4095979 0.7842664
vt 0.1281198 0.4873664
vt 0.4136613 0.7842664
vt 0.2231222 0.8614234
vt 0.3182089 0.9724341
vt 0.1661314 0.4987832
vt 0.3182089 0.8067636
vt 0.2282468 0.8732910
vt 0.3197465 0.9724341
vt 0.1712561 0.4869154
vt 0.3197465 0.8067636
vt 0.2239313 0.8910253
vt 0.3220444 0.9724341
vt 0.1669406 0.4691812
vt 0.3220444 0.8067636
vt 0.1912296 0.8877084
vt 0.4185164 0.3668098
vt 0.1342388 0.4724982
vt 0.4185164 0.7842664
vt 0.2016832 0.8937783
vt 0.4204973 0.3668098
vt 0.1446925 0.4664284
vt 0.4204973 0.7842664
vt 0.2326719 0.9268779
vt 0.3266894 0.9724341
vt 0.1756812 0.4333286
vt 0.3266894 0.8067636
vt 0.2104238 0.9268779
vt 0.4313030 0.3668098
vt 0.1534330 0.4333286
vt 0.4313030 0.7842664
vt 0.0524734 0.3905967
vt 0.2234458 0.9696099
vt 0.3322260 0.9724341
vt 0.1094642 0.9696899
vt 0.1664550 0.3905967
vt 0.3322260 0.8067636
vt 0.0302253 0.3905967
vt 0.2011976 0.9696099
vt 0.4452543 0.3668098
vt 0.0872160 0.9696899
vt 0.1442069 0.3905967
vt 0.4452543 0.7842664
vt 0.0190679 0.3971988
vt 0.4474092 0.3668098
vt 0.0141382 0.4096457
vt 0.4514743 0.3668098
vt 0.0760587 0.9630879
vt 0.4474092 0.7842664
vt 0.0711290 0.9506410
vt 0.4514743 0.7842664
vt 0.0521498 0.3982289
vt 0.3332146 0.9724341
vt 0.1091406 0.9620577
vt 0.3332146 0.8067636
vt 0.0572745 0.4100965
vt 0.3347528 0.9724341
vt 0.1142652 0.9501901
vt 0.3347528 0.8067636
vt 0.0529590 0.4278308
vt 0.3370501 0.9724341
vt 0.1099498 0.9324559
vt 0.3370501 0.8067636
vt 0.0202572 0.4245137
vt 0.4563277 0.3668098
vt 0.0772479 0.9357727
vt 0.4563277 0.7842664
vt 0.0307109 0.4305837
vt 0.4583102 0.3668098
vt 0.0877016 0.9297029
vt 0.4583102 0.7842664
vt 0.0616996 0.4636834
vt 0.3416957 0.9724341
vt 0.1186904 0.8966032
vt 0.3416957 0.8067636
vt 0.0394515 0.4636834
vt 0.4691161 0.3668098
vt 0.0964422 0.8966032
vt 0.4691161 0.7842664
vt 0.0524734 0.5064154
vt 0.3472317 0.9724341
vt 0.1094642 0.8538712
vt 0.3472317 0.8067636
vt 0.0302253 0.5064154
vt 0.4830672 0.3668098
vt 0.0872160 0.8538712
vt 0.4830672 0.7842664
vt 0.0190679 0.5130174
vt 0.4852222 0.3668098
vt 0.0141382 0.5254644
vt 0.4892856 0.3668098
vt 0.0760587 0.8472692
vt 0.4852222 0.7842664
vt 0.0711290 0.8348223
vt 0.4892856 0.7842664
vt 0.0521498 0.5140476
vt 0.3482209 0.9724341
vt 0.1091406 0.8462391
vt 0.3482209 0.8067636
vt 0.0572745 0.5259151
vt 0.3497586 0.9724341
vt 0.1142652 0.8343714
vt 0.3497586 0.8067636
vt 0.0529590 0.5436494
vt 0.3520564 0.9724341
vt 0.1099498 0.8166372
vt 0.3520564 0.8067636
vt 0.0202572 0.5403326
vt 0.4941408 0.3668098
vt 0.0772479 0.8199541
vt 0.4941408 0.7842664
vt 0.0307109 0.5464025
vt 0.4961216 0.3668098
vt 0.0877016 0.8138842
vt 0.4961216 0.7842664
vt 0.0616996 0.5795021
vt 0.3567014 0.9724341
vt 0.1186904 0.7807844
vt 0.3567014 0.8067636
vt 0.0394515 0.5795021
vt 0.5069290 0.3668098
vt 0.0964422 0.7807844
vt 0.5069290 0.7842664
vt 0.0524734 0.6222340
vt 0.3622380 0.9724341
vt 0.1094642 0.7380525
vt 0.3622380 0.8067636
vt 0.0302253 0.6222340
vt 0.5208786 0.3668098
vt 0.0872160 0.7380525
vt 0.5208786 0.7842664
vt 0.0190679 0.6288361
vt 0.5230352 0.3668098
vt 0.0141382 0.6412830
vt 0.5270985 0.3668098
vt 0.0760587 0.7314506
vt 0.5230352 0.7842664
vt 0.0711290 0.7190036
vt 0.5270985 0.7842664
vt 0.0521498 0.6298662
vt 0.3632272 0.9724341
vt 0.1091406 0.7304204
vt 0.3632272 0.8067636
vt 0.0572745 0.6417339
vt 0.3647649 0.9724341
vt 0.1142652 0.7185528
vt 0.3647649 0.8067636
vt 0.0529590 0.6594681
vt 0.3670626 0.9724341
vt 0.1099498 0.7008186
vt 0.3670626 0.8067636
vt 0.0202572 0.6561511
vt 0.5319536 0.3668098
vt 0.0772479 0.7041354
vt 0.5319536 0.7842664
vt 0.0307109 0.6622211
vt 0.5339345 0.3668098
vt 0.0877016 0.6980655
vt 0.5339345 0.7842664
vt 0.0616996 0.6953207
vt 0.3717077 0.9724341
vt 0.1186903 0.6649659
vt 0.3717077 0.8067636
vt 0.0394515 0.6953207
vt 0.5447404 0.3668098
vt 0.0964422 0.6649659
vt 0.5447404 0.7842664
vt 0.0524734 0.7380525
vt 0.3772443 0.9724341
vt 0.1094642 0.6222339
vt 0.3772443 0.8067636
vt 0.0302253 0.7380525
vt 0.5586916 0.3668098
vt 0.0872160 0.6222339
vt 0.5586916 0.7842664
vt 0.0190679 0.7446547
vt 0.5608465 0.3668098
vt 0.0141382 0.7571017
vt 0.5649115 0.3668098
vt 0.0760587 0.6156319
vt 0.5608465 0.7842664
vt 0.0711290 0.6031850
vt 0.5649115 0.7842664
vt 0.0521498 0.7456847
vt 0.3782329 0.9724341
vt 0.1091406 0.6146017
vt 0.3782329 0.8067636
vt 0.0572745 0.7575524
vt 0.3797706 0.9724341
vt 0.1142652 0.6027341
vt 0.3797706 0.8067636
vt 0.0529590 0.7752867
vt 0.3820683 0.9724341
vt 0.1099498 0.5849999
vt 0.3820683 0.8067636
vt 0.0202572 0.7719697
vt 0.5697651 0.3668098
vt 0.0772479 0.5883168
vt 0.5697651 0.7842664
vt 0.0307109 0.7780398
vt 0.5717475 0.3668098
vt 0.0877016 0.5822468
vt 0.5717475 0.7842664
vt 0.0616996 0.8111394
vt 0.3867140 0.9724341
vt 0.1186903 0.5491471
vt 0.3867140 0.8067636
vt 0.0394515 0.8111394
vt 0.5825533 0.3668098
vt 0.0964422 0.5491471
vt 0.5825533 0.7842664
vt 0.0524734 0.8538713
vt 0.3922500 0.9724341
vt 0.1094642 0.5064152
vt 0.3922500 0.8067636
vt 0.0302253 0.8538713
vt 0.5965045 0.3668098
vt 0.0872160 0.5064152
vt 0.5965045 0.7842664
vt 0.0190679 0.8604733
vt 0.5986593 0.3668098
vt 0.0141382 0.8729203
vt 0.6027229 0.3668098
vt 0.0760587 0.4998133
vt 0.5986593 0.7842664
vt 0.0711290 0.4873664
vt 0.6027229 0.7842664
vt 0.0521498 0.8615035
vt 0.3932391 0.9724341
vt 0.1091406 0.4987831
vt 0.3932391 0.8067636
vt 0.0572745 0.8733711
vt 0.3947769 0.9724341
vt 0.1142652 0.4869154
vt 0.3947769 0.8067636
vt 0.0529590 0.8911055
vt 0.3970746 0.9724341
vt 0.1099498 0.4691812
vt 0.3970746 0.8067636
vt 0.0202572 0.8877884
vt 0.6075782 0.3668098
vt 0.0772479 0.4724982
vt 0.6075782 0.7842664
vt 0.0307109 0.8938585
vt 0.6095589 0.3668098
vt 0.0877016 0.4664282
vt 0.6095589 0.7842664
vt 0.0616996 0.9269580
vt 0.4017197 0.9724341
vt 0.1186903 0.4333286
vt 0.4017197 0.8067636
vt 0.0394515 0.9269580
vt 0.6203664 0.3668098
vt 0.0964422 0.4333286
vt 0.6203664 0.7842664
vt 0.0524734 0.9696899
vt 0.3574473 0.6150213
vt 0.4072562 0.9724341
vt 0.1094642 0.3905967
vt 0.4072562 0.8067636
vt 0.6289498 0.6150212
vt 0.0302253 0.9696899
vt 0.3574473 0.6197453
vt 0.6343158 0.3668098
vt 0.0872160 0.3905967
vt 0.6289498 0.6197453
vt 0.6343158 0.7842664
f 809/809 811/811 815/815
f 809/809 815/815 813/813
f 809/809 813/813 819/819
f 809/809 819/819 817/817
f 817/817 819/819 824/824
f 817/817 824/824 821/821
f 822/822 825/825 829/829
f 822/822 829/829 827/827
f 827/827 829/829 833/833
f 827/827 833/833 831/831
f 831/831 833/833 837/837
f 831/831 837/837 835/835
f 815/815 811/811 839/839
f 815/815 839/839 841/841
f 841/841 839/839 843/843
f 841/841 843/843 845/845
f 845/845 843/843 851/851
f 845/845 851/851 853/853
f 835/835 837/837 849/849
f 835/835 849/849 847/847
f 853/853 851/851 859/859
f 853/853 859/859 861/861
f 847/847 849/849 857/857
f 847/847 857/857 855/855
f 863/863 865/865 869/869
f 863/863 869/869 867/867
f 873/873 871/871 855/855
f 873/873 855/855 857/857
f 863/863 867/867 861/861
f 863/863 861/861 859/859
f 871/871 873/873 877/877
f 871/871 877/877 875/875
f 875/875 877/877 881/881
f 875/875 881/881 879/879
f 869/869 865/865 883/883
f 869/869 883/883 885/885
f 885/885 883/883 887/887
f 885/885 887/887 889/889
f 889/889 887/887 895/895
f 889/889 895/895 897/897
f 879/879 881/881 893/893
f 879/879 893/893 891/891
f 897/897 895/895 903/903
f 897/897 903/903 905/905
f 891/891 893/893 901/901
f 891/891 901/901 899/899
f 907/907 909/909 913/913
f 907/907 913/913 911/911
f 917/917 915/915 899/899
f 917/917 899/899 901/901
f 907/907 911/911 905/905
f 907/907 905/905 903/903
f 915/915 917/917 921/921
f 915/915 921/921 919/919
f 919/919 921/921 925/925
f 919/919 925/925 923/923
f 913/913 909/909 927/927
f 913/913 927/927 929/929
f 929/929 927/927 931/931
f 929/929 931/931 933/933
f 933/933 931/931 939/939
f 933/933 939/939 941/941
f 923/923 925/925 937/937
f 923/923 937/937 935/935
f 941/941 939/939 945/945
f 941/941 945/945 949/949
f 935/935 937/937 943/943
f 935/935 943/943 947/947
f 951/951 953/953 957/957
f 951/951 957/957 955/955
f 961/961 959/959 947/947
f 961/961 947/947 943/943
f 951/951 955/955 949/949
f 951/951 949/949 945/945
f 959/959 961/961 965/965
f 959/959 965/965 963/963
f 963/963 965/965 969/969
f 963/963 969/969 967/967
f 957/957 953/953 971/971
f 957/957 971/971 973/973
f 973/973 971/971 975/975
f 973/973 975/975 977/977
f 977/977 975/975 983/983
f 977/977 983/983 985/985
f 967/967 969/969 981/981
f 967/967 981/981 979/979
f 985/985 983/983 993/993
f 985/985 993/993 989/989
f 979/979 981/981 987/987
f 979/979 987/987 991/991
f 995/995 997/997 1001/1001
f 995/995 1001/1001 999/999
f 1005/1005 1003/1003 991/991
f 1005/1005 991/991 987/987
f 995/995 999/999 989/989
f 995/995 989/989 993/993
f 1003/1003 1005/1005 1009/1009
f 1003/1003 1009/1009 1007/1007
f 1007/1007 1009/1009 1013/1013
f 1007/1007 1013/1013 1011/1011
f 1001/1001 997/997 1015/1015
f 1001/1001 1015/1015 1017/1017
f 1017/1017 1015/1015 1019/1019
f 1017/1017 1019/1019 1021/1021
f 1021/1021 1019/1019 1027/1027
f 1021/1021 1027/1027 1029/1029
f 1011/1011 1013/1013 1025/1025
f 1011/1011 1025/1025 1023/1023
f 1029/1029 1027/1027 1038/1038
f 1029/1029 1038/1038 1041/1041
f 1023/1023 1025/1025 1035/1035
f 1023/1023 1035/1035 1032/1032
f 1043/1043 1045/1045 1049/1049
f 1043/1043 1049/1049 1047/1047
f 1053/1053 1051/1051 1032/1032
f 1053/1053 1032/1032 1035/1035
f 1043/1043 1047/1047 1041/1041
f 1043/1043 1041/1041 1038/1038
f 1051/1051 1053/1053 1057/1057
f 1051/1051 1057/1057 1055/1055
f 1055/1055 1057/1057 1061/1061
f 1055/1055 1061/1061 1059/1059
f 1049/1049 1045/1045 1063/1063
f 1049/1049 1063/1063 1065/1065
f 1065/1065 1063/1063 1067/1067
f 1065/1065 1067/1067 1069/1069
f 1069/1069 1067/1067 1075/1075
f 1069/1069 1075/1075 1077/1077
f 1059/1059 1061/1061 1073/1073
f 1059/1059 1073/1073 1071/1071
f 1077/1077 1075/1075 1083/1083
f 1077/1077 1083/1083 1085/1085
f 1071/1071 1073/1073 1081/1081
f 1071/1071 1081/1081 1079/1079
f 1087/1087 1089/1089 1093/1093
f 1087/1087 1093/1093 1091/1091
f 1097/1097 1095/1095 1079/1079
f 1097/1097 1079/1079 1081/1081
f 1087/1087 1091/1091 1085/1085
f 1087/1087 1085/1085 1083/1083
f 1095/1095 1097/1097 1101/1101
f 1095/1095 1101/1101 1099/1099
f 1099/1099 1101/1101 1105/1105
f 1099/1099 1105/1105 1103/1103
f 1093/1093 1089/1089 1107/1107
f 1093/1093 1107/1107 1109/1109
f 1109/1109 1107/1107 1111/1111
f 1109/1109 1111/1111 1113/1113
f 1113/1113 1111/1111 1119/1119
f 1113/1113 1119/1119 1121/1121
f 1103/1103 1105/1105 1117/1117
f 1103/1103 1117/1117 1115/1115
f 1121/1121 1119/1119 1127/1127
f 1121/1121 1127/1127 1129/1129
f 1115/1115 1117/1117 1125/1125
f 1115/1115 1125/1125 1123/1123
f 1131/1131 1133/1133 1137/1137
f 1131/1131 1137/1137 1135/1135
f 1141/1141 1139/1139 1123/1123
f 1141/1141 1123/1123 1125/1125
f 1131/1131 1135/1135 1129/1129
f 1131/1131 1129/1129 1127/1127
f 1139/1139 1141/1141 1145/1145
f 1139/1139 1145/1145 1143/1143
f 1143/1143 1145/1145 1149/1149
f 1143/1143 1149/1149 1147/1147
f 1137/1137 1133/1133 1151/1151
f 1137/1137 1151/1151 1153/1153
f 1153/1153 1151/1151 1155/1155
f 1153/1153 1155/1155 1157/1157
f 1157/1157 1155/1155 1163/1163
f 1157/1157 1163/1163 1165/1165
f 1147/1147 1149/1149 1161/1161
f 1147/1147 1161/1161 1159/1159
f 1165/1165 1163/1163 1171/1171
f 1165/1165 1171/1171 1173/1173
f 1159/1159 1161/1161 1169/1169
f 1159/1159 1169/1169 1167/1167
f 1175/1175 1177/1177 1181/1181
f 1175/1175 1181/1181 1179/1179
f 1185/1185 1183/1183 1167/1167
f 1185/1185 1167/1167 1169/1169
f 1175/1175 1179/1179 1173/1173
f 1175/1175 1173/1173 1171/1171
f 1183/1183 1185/1185 1189/1189
f 1183/1183 1189/1189 1187/1187
f 1187/1187 1189/1189 1193/1193
f 1187/1187 1193/1193 1191/1191
f 1181/1181 1177/1177 1195/1195
f 1181/1181 1195/1195 1197/1197
f 1197/1197 1195/1195 1199/1199
f 1197/1197 1199/1199 1201/1201
f 1201/1201 1199/1199 1207/1207
f 1201/1201 1207/1207 1209/1209
f 1191/1191 1193/1193 1205/1205
f 1191/1191 1205/1205 1203/1203
f 1209/1209 1207/1207 1215/1215
f 1209/1209 1215/1215 1217/1217
f 1203/1203 1205/1205 1213/1213
f 1203/1203 1213/1213 1211/1211
f 1219/1219 1221/1221 1225/1225
f 1219/1219 1225/1225 1223/1223
f 1229/1229 1227/1227 1211/1211
f 1229/1229 1211/1211 1213/1213
f 1219/1219 1223/1223 1217/1217
f 1219/1219 1217/1217 1215/1215
f 1227/1227 1229/1229 1233/1233
f 1227/1227 1233/1233 1231/1231
f 1231/1231 1233/1233 1237/1237
f 1231/1231 1237/1237 1235/1235
f 1225/1225 1221/1221 1239/1239
f 1225/1225 1239/1239 1241/1241
f 1241/1241 1239/1239 1243/1243
f 1241/1241 1243/1243 1245/1245
f 1245/1245 1243/1243 1251/1251
f 1245/1245 1251/1251 1253/1253
f 1235/1235 1237/1237 1249/1249
f 1235/1235 1249/1249 1247/1247
f 1253/1253 1251/1251 1262/1262
f 1253/1253 1262/1262 1265/1265
f 1247/1247 1249/1249 1258/1258
f 1247/1247 1258/1258 1256/1256
f 1255/1255 1259/1259 1264/1264
f 1255/1255 1264/1264 1261/1261
f 1254/1254 1250/1250 1246/1246
f 1210/1210 1206/1206 1202/1202
f 1166/1166 1162/1162 1158/1158
f 1122/1122 1118/1118 1114/1114
f 1078/1078 1074/1074 1070/1070
f 1031/1031 1026/1026 1022/1022
f 990/990 982/982 978/978
f 946/946 938/938 934/934
f 898/898 894/894 890/890
f 854/854 850/850 846/846
f 1234/1234 1242/1242 1230/1230
f 1190/1190 1198/1198 1186/1186
f 1146/1146 1154/1154 1142/1142
f 1102/1102 1110/1110 1098/1098
f 1058/1058 1066/1066 1054/1054
f 1010/1010 1018/1018 1006/1006
f 966/966 974/974 962/962
f 922/922 930/930 918/918
f 878/878 886/886 874/874
f 834/834 842/842 830/830
f 820/820 826/826 816/816
f 1210/1210 1226/1226 1214/1214
f 1166/1166 1182/1182 1170/1170
f 1102/1102 1118/1118 1110/1110
f 1058/1058 1074/1074 1066/1066
f 1010/1010 1026/1026 1018/1018
f 966/966 982/982 974/974
f 922/922 938/938 930/930
f 878/878 894/894 886/886
f 834/834 850/850 842/842
f 1260/1260 1250/1250 1254/1254
f 1250/1250 1234/1234 1246/1246
f 1078/1078 1094/1094 1082/1082
f 1094/1094 1110/1110 1082/1082
f 1026/1026 1010/1010 1022/1022
f 982/982 966/966 978/978
f 1074/1074 1058/1058 1070/1070
f 1198/1198 1182/1182 1186/1186
f 930/930 914/914 918/918
f 938/938 922/922 934/934
f 894/894 878/878 890/890
f 1226/1226 1242/1242 1214/1214
f 1206/1206 1190/1190 1202/1202
f 1206/1206 1198/1198 1190/1190
f 1182/1182 1198/1198 1170/1170
f 1162/1162 1146/1146 1158/1158
f 1162/1162 1154/1154 1146/1146
f 974/974 958/958 962/962
f 1138/1138 1154/1154 1126/1126
f 946/946 958/958 944/944
f 1250/1250 1242/1242 1234/1234
f 1050/1050 1066/1066 1036/1036
f 1030/1030 1050/1050 1036/1036
f 1110/1110 1094/1094 1098/1098
f 990/990 1002/1002 992/992
f 958/958 974/974 944/944
f 886/886 870/870 874/874
f 1066/1066 1050/1050 1054/1054
f 1154/1154 1138/1138 1142/1142
f 1206/1206 1210/1210 1214/1214
f 1242/1242 1226/1226 1230/1230
f 1162/1162 1166/1166 1170/1170
f 1018/1018 1002/1002 1006/1006
f 1118/1118 1122/1122 1126/1126
f 826/826 842/842 816/816
f 1074/1074 1078/1078 1082/1082
f 1002/1002 1018/1018 992/992
f 1026/1026 1031/1031 1037/1037
f 1118/1118 1102/1102 1114/1114
f 982/982 990/990 992/992
f 914/914 930/930 902/902
f 870/870 886/886 858/858
f 938/938 946/946 944/944
f 842/842 826/826 830/830
f 1122/1122 1138/1138 1126/1126
f 894/894 898/898 902/902
f 850/850 834/834 846/846
f 850/850 854/854 858/858
f 898/898 914/914 902/902
f 1238/1238 1214/1214 1242/1242
f 1194/1194 1170/1170 1198/1198
f 1150/1150 1126/1126 1154/1154
f 1106/1106 1082/1082 1110/1110
f 1062/1062 1036/1036 1066/1066
f 1014/1014 992/992 1018/1018
f 970/970 944/944 974/974
f 926/926 902/902 930/930
f 882/882 858/858 886/886
f 838/838 816/816 842/842
f 1238/1238 1218/1218 1214/1214
f 1194/1194 1174/1174 1170/1170
f 1150/1150 1130/1130 1126/1126
f 1106/1106 1086/1086 1082/1082
f 1062/1062 1042/1042 1036/1036
f 1014/1014 994/994 992/992
f 970/970 950/950 944/944
f 926/926 906/906 902/902
f 882/882 862/862 858/858
f 838/838 808/808 816/816
f 1220/1220 1218/1218 1238/1238
f 1176/1176 1174/1174 1194/1194
f 1132/1132 1130/1130 1150/1150
f 1088/1088 1086/1086 1106/1106
f 1044/1044 1042/1042 1062/1062
f 996/996 994/994 1014/1014
f 952/952 950/950 970/970
f 908/908 906/906 926/926
f 864/864 862/862 882/882
f 810/810 808/808 838/838
f 854/854 870/870 858/858
f 1236/1236 1252/1252 1248/1248
f 1192/1192 1208/1208 1204/1204
f 1148/1148 1164/1164 1160/1160
f 1104/1104 1120/1120 1116/1116
f 1060/1060 1076/1076 1072/1072
f 1012/1012 1028/1028 1024/1024
f 968/968 984/984 980/980
f 924/924 940/940 936/936
f 880/880 896/896 892/892
f 836/836 852/852 848/848
f 1228/1228 1244/1244 1232/1232
f 1184/1184 1200/1200 1188/1188
f 1140/1140 1156/1156 1144/1144
f 1096/1096 1112/1112 1100/1100
f 1052/1052 1068/1068 1056/1056
f 1004/1004 1020/1020 1008/1008
f 960/960 976/976 964/964
f 916/916 932/932 920/920
f 872/872 888/888 876/876
f 828/828 844/844 832/832
f 1200/1200 1192/1192 1188/1188
f 1156/1156 1148/1148 1144/1144
f 1020/1020 1012/1012 1008/1008
f 1124/1124 1120/1120 1128/1128
f 1080/1080 1076/1076 1084/1084
f 1034/1034 1028/1028 1040/1040
f 986/986 984/984 988/988
f 942/942 940/940 948/948
f 900/900 896/896 904/904
f 856/856 852/852 860/860
f 1263/1263 1257/1257 1252/1252
f 1252/1252 1257/1257 1248/1248
f 1208/1208 1212/1212 1204/1204
f 1164/1164 1168/1168 1160/1160
f 1120/1120 1124/1124 1116/1116
f 1076/1076 1080/1080 1072/1072
f 1028/1028 1034/1034 1024/1024
f 984/984 986/986 980/980
f 940/940 942/942 936/936
f 896/896 900/900 892/892
f 852/852 856/856 848/848
f 1212/1212 1208/1208 1216/1216
f 1168/1168 1164/1164 1172/1172
f 828/828 823/823 818/818
f 1112/1112 1104/1104 1100/1100
f 976/976 968/968 964/964
f 1200/1200 1208/1208 1192/1192
f 1244/1244 1252/1252 1236/1236
f 888/888 880/880 876/876
f 932/932 924/924 920/920
f 852/852 836/836 844/844
f 1228/1228 1212/1212 1216/1216
f 1184/1184 1168/1168 1172/1172
f 1156/1156 1164/1164 1148/1148
f 1244/1244 1236/1236 1232/1232
f 1052/1052 1033/1033 1039/1039
f 1004/1004 986/986 988/988
f 844/844 836/836 832/832
f 844/844 828/828 818/818
f 1068/1068 1060/1060 1056/1056
f 1244/1244 1228/1228 1216/1216
f 1140/1140 1124/1124 1128/1128
f 1200/1200 1184/1184 1172/1172
f 1096/1096 1080/1080 1084/1084
f 1156/1156 1140/1140 1128/1128
f 1120/1120 1104/1104 1112/1112
f 1112/1112 1096/1096 1084/1084
f 1076/1076 1060/1060 1068/1068
f 1068/1068 1052/1052 1039/1039
f 1028/1028 1012/1012 1020/1020
f 1020/1020 1004/1004 988/988
f 984/984 968/968 976/976
f 872/872 856/856 860/860
f 976/976 960/960 948/948
f 940/940 924/924 932/932
f 916/916 900/900 904/904
f 932/932 916/916 904/904
f 896/896 880/880 888/888
f 888/888 872/872 860/860
f 1240/1240 1244/1244 1216/1216
f 1196/1196 1200/1200 1172/1172
f 1152/1152 1156/1156 1128/1128
f 1108/1108 1112/1112 1084/1084
f 1064/1064 1068/1068 1039/1039
f 1016/1016 1020/1020 988/988
f 972/972 976/976 948/948
f 928/928 932/932 904/904
f 884/884 888/888 860/860
f 840/840 844/844 818/818
f 1240/1240 1216/1216 1222/1222
f 1196/1196 1172/1172 1178/1178
f 1152/1152 1128/1128 1134/1134
f 1108/1108 1084/1084 1090/1090
f 1064/1064 1039/1039 1046/1046
f 1016/1016 988/988 998/998
f 972/972 948/948 954/954
f 928/928 904/904 910/910
f 884/884 860/860 866/866
f 840/840 818/818 812/812
f 1224/1224 1240/1240 1222/1222
f 1180/1180 1196/1196 1178/1178
f 1136/1136 1152/1152 1134/1134
f 1092/1092 1108/1108 1090/1090
f 1048/1048 1064/1064 1046/1046
f 1000/1000 1016/1016 998/998
f 956/956 972/972 954/954
f 912/912 928/928 910/910
f 868/868 884/884 866/866
f 814/814 840/840 812/812
f 960/960 942/942 948/948