mtllib tree_001.mtl
o mesh_0
usemtl tree_001_0
v 0.0036797 0.3545164 0.3293513
v 0.0036797 0.3545164 0.3293513
v -0.1579977 0.3341002 0.2874962
v -0.1579977 0.3341002 0.2874962
v -0.1579977 0.3341002 0.2874962
v 0.0085319 0.6775179 0.0685109
v 0.0085319 0.6775179 0.0685109
v -0.2497852 0.3412098 0.2125861
v -0.2497852 0.3412098 0.2125861
v -0.2497852 0.3412098 0.2125861
v -0.0405346 0.6812588 0.0525104
v -0.0405346 0.6812588 0.0525104
v -0.0405346 0.6812588 0.0525104
v -0.0405346 0.6812588 0.0525104
v -0.3326019 0.3224941 0.0435627
v -0.3326019 0.3224941 0.0435627
v -0.0674442 0.6846062 -0.0059860
v -0.0674442 0.6846062 -0.0059860
v -0.2629504 0.3550039 -0.2012560
v -0.2629504 0.3550039 -0.2012560
v -0.2629504 0.3550039 -0.2012560
v -0.2629504 0.3550039 -0.2012560
v -0.1614351 0.3748181 -0.2884722
v -0.1614351 0.3748181 -0.2884722
v -0.0427590 0.3762536 -0.3293513
v -0.0427590 0.3762536 -0.3293513
v -0.0256611 0.6891307 -0.0650755
v -0.0256611 0.6891307 -0.0650755
v 0.0874502 0.3762209 -0.3221574
v 0.0874502 0.3762209 -0.3221574
v 0.2058066 0.3765174 -0.2646094
v 0.2058066 0.3765174 -0.2646094
v 0.2058066 0.3765174 -0.2646094
v 0.3069316 0.3776063 -0.1407797
v 0.3069316 0.3776063 -0.1407797
v 0.0387557 0.7000412 -0.0629564
v 0.0387557 0.7000412 -0.0629564
v 0.0387557 0.7000412 -0.0629564
v 0.3326019 0.3873190 -0.0115950
v 0.3326019 0.3873190 -0.0115950
v 0.3165940 0.3902991 0.1061464
v 0.3165940 0.3902991 0.1061464
v 0.3165940 0.3902991 0.1061464
v 0.0738212 0.6977012 -0.0059963
v 0.0738212 0.6977012 -0.0059963
v 0.2787278 0.3900643 0.1823347
v 0.2787278 0.3900643 0.1823347
v 0.2787278 0.3900643 0.1823347
v 0.1693185 0.4216885 0.2872863
v 0.1693185 0.4216885 0.2872863
v 0.0682144 0.3877537 0.3229951
v 0.0682144 0.3877537 0.3229951
v -0.0973824 0.5251526 0.2599192
v -0.0973824 0.5251526 0.2599192
v -0.2000244 0.5720928 0.1921580
v -0.2000244 0.5720928 0.1921580
v -0.2000244 0.5720928 0.1921580
v -0.2000244 0.5720928 0.1921580
v -0.0092628 0.8655160 0.0671128
v -0.0092628 0.8655160 0.0671128
v -0.2535396 0.5858924 0.1050974
v -0.2535396 0.5858924 0.1050974
v -0.2770563 0.5753970 0.0190250
v -0.2770563 0.5753970 0.0190250
v -0.0572552 0.8654586 0.0322432
v -0.0572552 0.8654586 0.0322432
v -0.2391219 0.5540496 -0.1413682
v -0.2391219 0.5540496 -0.1413682
v -0.2391219 0.5540496 -0.1413682
v -0.0598909 0.8711410 -0.0313976
v -0.0598909 0.8711410 -0.0313976
v -0.0598909 0.8711410 -0.0313976
v -0.1325474 0.5645266 -0.2429973
v -0.1325474 0.5645266 -0.2429973
v -0.0109029 0.5641767 -0.2811229
v -0.0109029 0.5641767 -0.2811229
v 0.1283214 0.5619554 -0.2517730
v 0.1283214 0.5619554 -0.2517730
v 0.0067267 0.8816426 -0.0740195
v 0.0067267 0.8816426 -0.0740195
v 0.2407123 0.5662476 -0.1567148
v 0.2407123 0.5662476 -0.1567148
v 0.2407123 0.5662476 -0.1567148
v 0.2835380 0.5810120 -0.0159510
v 0.2835380 0.5810120 -0.0159510
v 0.2673493 0.5876668 0.0894800
v 0.2673493 0.5876668 0.0894800
v 0.0743556 0.8833682 -0.0166532
v 0.0743556 0.8833682 -0.0166532
v 0.0743556 0.8833682 -0.0166532
v 0.2227472 0.5797411 0.1707658
v 0.2227472 0.5797411 0.1707658
v 0.2227472 0.5797411 0.1707658
v 0.1124471 0.5424565 0.2582972
v 0.1124471 0.5424565 0.2582972
v 0.0496861 0.8720030 0.0511069
v 0.0496861 0.8720030 0.0511069
v 0.0496861 0.8720030 0.0511069
v 0.0036797 1.0000000 -0.0014470
v 0.0036797 1.0000000 -0.0014470
v 0.0036797 1.0000000 -0.0014470
v 0.0036797 1.0000000 -0.0014470
v -0.1341980 0.7114278 0.1654620
v -0.1341980 0.7114278 0.1654620
v -0.1341980 0.7114278 0.1654620
v -0.2052407 0.7203000 0.0449371
v -0.2052407 0.7203000 0.0449371
v -0.1849753 0.7170251 -0.1051998
v -0.1849753 0.7170251 -0.1051998
v -0.1849753 0.7170251 -0.1051998
v -0.0809474 0.7327640 -0.1971502
v -0.0809474 0.7327640 -0.1971502
v 0.0439537 0.7382616 -0.2110158
v 0.0439537 0.7382616 -0.2110158
v 0.1721664 0.7409387 -0.1366245
v 0.1721664 0.7409387 -0.1366245
v 0.1721664 0.7409387 -0.1366245
v 0.2177117 0.7453022 -0.0015979
v 0.2177117 0.7453022 -0.0015979
v 0.1848758 0.7238218 0.1119896
v 0.1848758 0.7238218 0.1119896
v 0.1848758 0.7238218 0.1119896
v 0.0504747 0.6944167 0.2122885
v 0.0504747 0.6944167 0.2122885
v 0.0036771 0.0000135 0.0712493
v 0.0036771 0.0000135 0.0712493
v 0.0036771 0.0000135 0.0712493
v -0.0580412 0.0000022 0.0315460
v -0.0580412 0.0000022 0.0315460
v -0.0106619 0.9466678 0.0253797
v -0.0106619 0.9466678 0.0253797
v -0.0106619 0.9466678 0.0253797
v -0.0627623 0.0000014 -0.0216086
v -0.0627623 0.0000014 -0.0216086
v -0.0191427 0.9466546 -0.0201762
v -0.0191427 0.9466546 -0.0201762
v -0.0191427 0.9466546 -0.0201762
v -0.0252970 0.0000041 -0.0658877
v -0.0252970 0.0000041 -0.0658877
v -0.0252970 0.0000041 -0.0658877
v 0.0284697 0.0000000 -0.0657822
v 0.0284697 0.0000000 -0.0657822
v 0.0681201 0.0000057 -0.0304227
v 0.0681201 0.0000057 -0.0304227
v 0.0681201 0.0000057 -0.0304227
v 0.0229836 0.9466514 -0.0234988
v 0.0229836 0.9466514 -0.0234988
v 0.0229836 0.9466514 -0.0234988
v 0.0654032 0.0000038 0.0315420
v 0.0654032 0.0000038 0.0315420
v 0.0654032 0.0000038 0.0315420
v 0.0281108 0.9466437 0.0125955
v 0.0281108 0.9466437 0.0125955
v 0.0281108 0.9466437 0.0125955
vt 0.7524171 0.2604312
vt 0.4078031 0.2627196
vt 0.6107827 0.9682342
vt 0.7779091 0.1987391
vt 0.4103872 0.3467237
vt 0.0071299 0.6326764
vt 0.5584573 0.2193011
vt 0.6689767 0.9561933
vt 0.7581604 0.8008378
vt 0.3868678 0.4012603
vt 0.0039473 0.6583087
vt 0.5612747 0.1987391
vt 0.5704046 0.8008378
vt 0.6107827 0.8248358
vt 0.7369621 0.7131604
vt 0.3172283 0.4649117
vt 0.0247220 0.6830896
vt 0.5584579 0.7723399
vt 0.0597655 0.8169448
vt 0.6784501 0.6100089
vt 0.7922598 0.0086494
vt 0.1890274 0.4649117
vt 0.7430168 0.0083490
vt 0.1325887 0.4278380
vt 0.6843106 0.0039465
vt 0.0964376 0.3763144
vt 0.0605652 0.6768887
vt 0.6701029 0.1856470
vt 0.0818814 0.3125758
vt 0.6188987 0.0039465
vt 0.0932227 0.2475454
vt 0.5584574 0.0096122
vt 0.9743581 0.1898351
vt 0.1388736 0.1815995
vt 0.9870993 0.1279304
vt 0.0738196 0.6471626
vt 0.6377499 0.1908443
vt 0.8001526 0.0838560
vt 0.1973906 0.1511446
vt 0.9870993 0.0630652
vt 0.2562863 0.1424572
vt 0.0465315 0.4878563
vt 0.9854727 0.0039465
vt 0.0555262 0.6190111
vt 0.8060945 0.0553968
vt 0.2982428 0.1501193
vt 0.0039473 0.4885508
vt 0.6614223 0.3887073
vt 0.3633822 0.1878132
vt 0.6883251 0.3225653
vt 0.7266306 0.2819972
vt 0.3952022 0.2320426
vt 0.9498202 0.2178130
vt 0.1941810 0.7628949
vt 0.1763190 0.8248374
vt 0.9026621 0.1977285
vt 0.9827647 0.5922494
vt 0.1374891 0.7394918
vt 0.8001522 0.3512947
vt 0.8586248 0.5884174
vt 0.1847027 0.8713085
vt 0.1023786 0.7020968
vt 0.1815087 0.9159024
vt 0.0817131 0.6624951
vt 0.3307223 0.8867904
vt 0.8694193 0.5606849
vt 0.1763190 0.9935167
vt 0.5342115 0.7281080
vt 0.0832790 0.5802491
vt 0.3353864 0.9184084
vt 0.3697417 0.6326167
vt 0.8531367 0.5330700
vt 0.5415971 0.6767495
vt 0.1251209 0.5191658
vt 0.5476780 0.6166046
vt 0.1808077 0.4878561
vt 0.2521202 0.4878561
vt 0.5476780 0.5462388
vt 0.3701735 0.6000277
vt 0.8131962 0.5330700
vt 0.3172191 0.5227579
vt 0.0039466 0.9936202
vt 0.5370203 0.4878553
vt 0.3531194 0.5871133
vt 0.0746127 0.9960531
vt 0.3562692 0.6403937
vt 0.1277108 0.9945250
vt 0.0856493 0.8248371
vt 0.3641624 0.5649007
vt 0.8001516 0.5756047
vt 0.3427413 0.6850292
vt 0.1684258 0.9960531
vt 0.9844152 0.3806367
vt 0.2971939 0.7400460
vt 0.9849359 0.3085821
vt 0.1193500 0.8298549
vt 0.8081638 0.3806367
vt 0.8292444 0.5976016
vt 0.4570123 0.8248369
vt 0.5413626 0.8248373
vt 0.8001516 0.7515416
vt 0.8001534 0.3885304
vt 0.4649053 0.9719179
vt 0.9811067 0.3885303
vt 0.7088877 0.3965992
vt 0.5296054 0.9699326
vt 0.7583560 0.4464170
vt 0.6028888 0.9719179
vt 0.9777451 0.7515416
vt 0.7673756 0.5217904
vt 0.9525611 0.7077891
vt 0.7281571 0.5797008
vt 0.6691688 0.6021146
vt 0.9180913 0.6558273
vt 0.5975544 0.5820383
vt 0.3432796 0.9384064
vt 0.8749817 0.6054943
vt 0.5584577 0.5222325
vt 0.4058744 0.9646173
vt 0.5604812 0.4625949
vt 0.4570123 0.9905525
vt 0.9018852 0.5251774
vt 0.6135983 0.3965992
vt 0.9624967 0.4667675
vt 0.7373419 0.8356112
vt 0.0039466 0.4798082
vt 0.5411116 0.0982883
vt 0.0278308 0.4799627
vt 0.7421133 0.8721122
vt 0.0039466 0.0050451
vt 0.0818821 0.0982884
vt 0.8233769 0.7594361
vt 0.0545392 0.4785677
vt 0.7232943 0.8911423
vt 0.0271371 0.0039466
vt 0.0818820 0.0514194
vt 0.8001528 0.7594361
vt 0.0739889 0.4765567
vt 0.5505646 0.0514193
vt 0.6942260 0.8911423
vt 0.6768703 0.8705167
vt 0.5505471 0.0244624
vt 0.6775768 0.8438755
vt 0.5467136 0.0039480
vt 0.5494376 0.0903960
vt 0.8024305 0.7804851
vt 0.0818822 0.0820735
vt 0.0822366 0.0303597
vt 0.7021731 0.8248382
vt 0.5390038 0.1345621
vt 0.5494375 0.0593118
vt 0.8206843 0.7797006
vt 0.0823079 0.1187015
vt 0.0826504 0.0639670
f 1/1 7/7 4/4
f 14/14 8/8 3/3
f 18/18 20/20 15/15
f 28/28 23/23 21/21
f 28/28 25/25 23/23
f 37/37 30/30 25/25
f 37/37 32/32 30/30
f 38/38 35/35 33/33
f 35/35 45/45 40/40
f 40/40 45/45 43/43
f 50/50 7/7 51/51
f 51/51 7/7 1/1
f 59/59 53/53 95/95
f 59/59 56/56 53/53
f 65/65 61/61 55/55
f 61/61 65/65 63/63
f 70/70 67/67 63/63
f 79/79 75/75 73/73
f 79/79 78/78 75/75
f 88/88 85/85 82/82
f 85/85 88/88 87/87
f 93/93 97/97 95/95
f 124/124 102/102 104/104
f 103/103 100/100 106/106
f 106/106 100/100 108/108
f 109/109 101/101 111/111
f 111/111 101/101 114/114
f 114/114 101/101 117/117
f 116/116 99/99 119/119
f 119/119 99/99 121/121
f 122/122 102/102 124/124
f 130/130 128/128 126/126
f 135/135 138/138 133/133
f 148/148 142/142 139/139
f 148/148 144/144 142/142
f 154/154 151/151 145/145
f 150/150 153/153 127/127
f 7/7 12/12 4/4
f 7/7 50/50 48/48
f 17/17 27/27 19/19
f 28/28 37/37 25/25
f 35/35 38/38 45/45
f 18/18 15/15 9/9
f 18/18 9/9 13/13
f 26/26 29/29 31/31
f 31/31 34/34 39/39
f 39/39 41/41 46/46
f 46/46 49/49 52/52
f 52/52 2/2 5/5
f 5/5 10/10 16/16
f 16/16 22/22 24/24
f 24/24 26/26 31/31
f 31/31 39/39 46/46
f 46/46 52/52 5/5
f 5/5 16/16 24/24
f 24/24 31/31 46/46
f 46/46 5/5 24/24
f 73/73 68/68 71/71
f 73/73 71/71 79/79
f 60/60 66/66 57/57
f 63/63 65/65 70/70
f 83/83 78/78 79/79
f 83/83 79/79 89/89
f 96/96 92/92 87/87
f 96/96 87/87 88/88
f 80/80 72/72 66/66
f 66/66 60/60 98/98
f 98/98 90/90 80/80
f 66/66 98/98 80/80
f 95/95 97/97 59/59
f 64/64 69/69 74/74
f 74/74 76/76 77/77
f 77/77 81/81 84/84
f 84/84 86/86 91/91
f 91/91 94/94 54/54
f 54/54 58/58 62/62
f 62/62 64/64 74/74
f 74/74 77/77 84/84
f 84/84 91/91 54/54
f 54/54 62/62 74/74
f 74/74 84/84 54/54
f 135/135 133/133 128/128
f 135/135 128/128 130/130
f 110/110 112/112 113/113
f 113/113 115/115 118/118
f 118/118 120/120 123/123
f 123/123 105/105 107/107
f 107/107 110/110 113/113
f 113/113 118/118 123/123
f 113/113 123/123 107/107
f 132/132 152/152 146/146
f 132/132 146/146 137/137
f 136/136 148/148 139/139
f 147/147 154/154 145/145
f 153/153 131/131 127/127
f 149/149 125/125 129/129
f 129/129 134/134 140/140
f 140/140 141/141 143/143
f 143/143 149/149 129/129
f 129/129 140/140 143/143
f 6/6 44/44 36/36
f 36/36 27/27 17/17
f 17/17 11/11 6/6
f 36/36 17/17 6/6
f 42/42 44/44 6/6
f 42/42 6/6 47/47